<svg width="30" height="30" viewBox="0 0 23 23" fill="none" xmlns="http://www.w3.org/2000/svg">
<path opacity="0.5" fill-rule="evenodd" clip-rule="evenodd" d="M0.884616 14C1.37317 14 1.76923 14.403 1.76923 14.9C1.76923 16.6225 1.77111 17.8238 1.8909 18.7303C2.00725 19.6108 2.22009 20.077 2.54653 20.4092C2.87296 20.7414 3.33128 20.9578 4.19676 21.0763C5.08768 21.1981 6.26849 21.2 7.96154 21.2H15.0385C16.7315 21.2 17.9123 21.1981 18.8033 21.0763C19.6688 20.9578 20.127 20.7414 20.4535 20.4092C20.78 20.077 20.9928 19.6108 21.1092 18.7303C21.2289 17.8238 21.2308 16.6225 21.2308 14.9C21.2308 14.403 21.6268 14 22.1154 14C22.6039 14 23 14.403 23 14.9V14.9659C23 16.607 23 17.9298 22.8626 18.9702C22.7199 20.0503 22.4145 20.9596 21.7046 21.6819C20.9945 22.4043 20.1007 22.715 19.039 22.8602C18.0164 23 16.7163 23 15.1032 23H7.89682C6.28377 23 4.98359 23 3.96101 22.8602C2.89935 22.715 2.00545 22.4043 1.29549 21.682C0.585533 20.9596 0.280176 20.0503 0.137434 18.9702C-4.6646e-05 17.9298 -2.29717e-05 16.607 6.17996e-07 14.9659C6.17996e-07 14.9439 6.17996e-07 14.922 6.17996e-07 14.9C6.17996e-07 14.403 0.396061 14 0.884616 14Z" fill="#2F618A"/>
<path fill-rule="evenodd" clip-rule="evenodd" d="M11.5 17C11.7439 17 11.9764 16.8962 12.1409 16.714L16.7725 11.5847C17.0961 11.2263 17.0716 10.6701 16.7176 10.3424C16.3636 10.0148 15.8143 10.0396 15.4907 10.398L12.3684 13.8558V0.87931C12.3684 0.393685 11.9796 0 11.5 0C11.0204 0 10.6316 0.393685 10.6316 0.87931V13.8558L7.50935 10.398C7.18572 10.0396 6.63641 10.0148 6.28245 10.3424C5.92848 10.6701 5.90387 11.2263 6.2275 11.5847L10.8591 16.714C11.0236 16.8962 11.2561 17 11.5 17Z" fill="#2F618A"/>
</svg>
