<svg width="28" height="29" viewBox="0 0 28 29" fill="none" xmlns="http://www.w3.org/2000/svg">
<g clip-path="url(#clip0_62_578)">
<path d="M28 14.3899C28 6.67039 21.7195 0.389893 14 0.389893C6.2805 0.389893 0 6.67039 0 14.3899C0 22.1094 6.2805 28.3899 14 28.3899C21.7195 28.3899 28 22.1094 28 14.3899ZM1.75 14.3899C1.75 7.63509 7.2452 2.13989 14 2.13989C20.7548 2.13989 26.25 7.63509 26.25 14.3899C26.25 21.1447 20.7548 26.6399 14 26.6399C7.2452 26.6399 1.75 21.1447 1.75 14.3899ZM14.6186 20.2585C14.2767 20.6004 13.7231 20.6004 13.3814 20.2585L9.0064 15.8835C8.8355 15.7127 8.75 15.4887 8.75 15.2649C8.75 15.0411 8.8355 14.8171 9.0064 14.6463C9.3483 14.3044 9.9019 14.3044 10.2436 14.6463L13.125 17.5277V9.13989C13.125 8.65669 13.5163 8.26489 14 8.26489C14.4837 8.26489 14.875 8.65669 14.875 9.13989V17.5277L17.7564 14.6463C18.0983 14.3044 18.6519 14.3044 18.9936 14.6463C19.3353 14.9882 19.3355 15.5418 18.9936 15.8835L14.6186 20.2585Z" fill="#307BC4"/>
</g>
<defs>
<clipPath id="clip0_62_578">
<rect width="28" height="28" fill="white" transform="matrix(-1 0 0 -1 28 28.3899)"/>
</clipPath>
</defs>
</svg>
