<svg width="40" height="50" viewBox="0 0 40 50" fill="none" xmlns="http://www.w3.org/2000/svg">
<path d="M5.42323 40.2188C4.9121 40.7865 4.53056 41.4395 4.31699 42.1003C4.16748 42.5657 4.0957 43.025 4.0957 43.4552C4.0957 43.7177 4.12168 43.9679 4.17812 44.2044C4.2209 44.3799 4.27881 44.5478 4.35664 44.7019C4.41465 44.8194 4.48486 44.9308 4.56718 45.0315C4.69081 45.181 4.84335 45.3107 5.02499 45.4007C5.20507 45.4923 5.41258 45.5411 5.62313 45.5396V44.5859C5.57889 44.5859 5.5453 44.5797 5.51327 44.5706C5.45682 44.5554 5.41102 44.5294 5.35917 44.4836C5.32255 44.4486 5.2829 44.4028 5.24628 44.3402C5.1913 44.2501 5.13944 44.125 5.10438 43.9755C5.06933 43.8245 5.0494 43.649 5.0494 43.4552C5.0494 43.1333 5.10585 42.767 5.22489 42.3917C5.33632 42.0468 5.51327 41.6897 5.7452 41.351C6.09158 40.8414 6.56462 40.3761 7.11081 40.0433C7.38239 39.877 7.67536 39.7428 7.97906 39.6512C8.28424 39.5596 8.60318 39.5107 8.93277 39.5107C9.37221 39.5107 9.7934 39.5992 10.187 39.7579C10.776 39.9929 11.3085 40.3881 11.7343 40.8595C12.1585 41.3296 12.4743 41.8757 12.6392 42.3916C12.7597 42.767 12.8162 43.1332 12.8162 43.4551C12.8162 43.652 12.7948 43.8305 12.7582 43.9816C12.7322 44.0945 12.6956 44.1953 12.656 44.2746C12.6254 44.3356 12.5934 44.3844 12.5599 44.4256C12.5111 44.4851 12.4622 44.5233 12.415 44.5477C12.3661 44.5705 12.3157 44.5843 12.2425 44.5859V45.5396C12.3676 45.5411 12.4912 45.5228 12.6087 45.4908C12.8147 45.4343 12.9993 45.3275 13.1504 45.1886C13.2633 45.0848 13.3579 44.9659 13.4357 44.8362C13.5548 44.6409 13.6372 44.4242 13.6905 44.1922C13.7439 43.9603 13.7699 43.7131 13.7699 43.4552C13.7699 43.025 13.6982 42.5641 13.5486 42.1003C13.4067 41.6592 13.19 41.2229 12.9093 40.8124C12.4881 40.1974 11.9266 39.639 11.2522 39.227C10.915 39.0226 10.5502 38.8547 10.1612 38.7388C9.77211 38.6197 9.3601 38.5557 8.93286 38.5557C8.36373 38.5557 7.82047 38.6717 7.32458 38.8715C6.5783 39.1705 5.93436 39.6527 5.42323 40.2188Z" fill="#969696"/>
<path d="M10.7989 44.1509C10.6433 44.2746 10.5518 44.4607 10.5518 44.6606V45.4312C10.5518 45.6295 10.6434 45.8172 10.7989 45.9409C10.9546 46.0629 11.1591 46.1087 11.3513 46.0629L11.8655 45.9409V44.1495L11.3513 44.0274C11.159 43.9816 10.9546 44.0274 10.7989 44.1509Z" fill="#969696"/>
<path d="M6.51425 44.0274L5.99854 44.1495V45.9409L6.51425 46.0629C6.70654 46.1087 6.91103 46.0629 7.06659 45.9409C7.22225 45.8172 7.31376 45.6296 7.31376 45.4312V44.6606C7.31376 44.4607 7.22216 44.2746 7.06659 44.151C6.91103 44.0273 6.70654 43.9816 6.51425 44.0274Z" fill="#969696"/>
<path d="M38.9096 41.9521C38.7127 41.2167 38.4351 40.5575 38.0933 39.9716C37.4936 38.9416 36.7001 38.1405 35.8244 37.5058C35.1668 37.0297 34.4648 36.6407 33.7508 36.3065C32.6811 35.806 31.5871 35.4214 30.577 35.0476C29.5668 34.6752 28.6437 34.3106 27.925 33.8864C27.6625 33.7307 27.4261 33.569 27.2216 33.3997C26.9164 33.1449 26.6784 32.8732 26.506 32.5696C26.3336 32.266 26.2176 31.9242 26.1734 31.497C26.1414 31.1918 26.1276 30.9049 26.1276 30.6303C26.1276 29.8216 26.2466 29.1212 26.3992 28.4056C26.8508 27.8959 27.2643 27.2886 27.6549 26.5623C28.0471 25.8315 28.4194 24.9785 28.7902 23.9683C29.0282 23.86 29.2678 23.7302 29.5012 23.5715C30.0353 23.2145 30.5418 22.714 30.9645 22.0472C31.3856 21.3805 31.7243 20.5518 31.9562 19.5296C32.0203 19.2458 32.0509 18.9635 32.0509 18.6858C32.0524 18.1059 31.915 17.5535 31.6847 17.0592C31.5244 16.7159 31.3215 16.4016 31.085 16.1162C31.2055 15.6706 31.3519 15.071 31.4832 14.3691C31.6633 13.3941 31.8128 12.2222 31.8128 10.9908C31.8128 10.1958 31.7502 9.37491 31.5885 8.56466C31.468 7.95734 31.2894 7.35462 31.0392 6.77786C30.6623 5.90961 30.1145 5.09331 29.353 4.4189C28.6481 3.79479 27.7646 3.29743 26.698 2.97849C26.3211 2.52683 25.9427 2.14226 25.5551 1.8158C25.2194 1.53504 24.8761 1.29852 24.5252 1.10477C23.9972 0.811808 23.4509 0.61806 22.891 0.500483C22.331 0.382906 21.7603 0.340231 21.1683 0.340231C20.352 0.340231 19.4929 0.42109 18.5438 0.514155C18.1852 0.550776 17.8846 0.595014 17.6237 0.640814C17.2346 0.711028 16.9431 0.782707 16.7097 0.83007C16.5922 0.852921 16.49 0.871281 16.3893 0.883487C16.2886 0.894132 16.191 0.901847 16.0795 0.901847C15.93 0.901847 15.7576 0.88964 15.5318 0.857609C14.8406 0.756926 14.2089 0.601264 13.713 0.448628C13.4658 0.373824 13.2521 0.299118 13.0843 0.234959C13.0004 0.202928 12.9271 0.173924 12.8691 0.14951C12.8096 0.125096 12.7653 0.102245 12.7394 0.0900382L12.741 0.0916007C12.6647 0.0519526 12.5915 0.0305661 12.5259 0.0183592C12.4602 0.00302731 12.4023 0 12.3519 0C12.2467 0 12.1719 0.0152342 12.1124 0.0305661C12.0529 0.045898 12.0071 0.0641595 11.9659 0.0809562C11.8865 0.112987 11.8255 0.146581 11.7644 0.183201C11.653 0.250388 11.5463 0.325094 11.4333 0.412105C11.2364 0.564741 11.0198 0.753899 10.7894 0.976651C10.4445 1.30926 10.0752 1.71209 9.73956 2.15154C9.57169 2.3697 9.41456 2.59861 9.27267 2.83513C9.13078 3.07165 9.00568 3.31423 8.90646 3.56911C8.42121 4.83101 8.10081 5.99369 7.90247 7.06643C7.70257 8.13908 7.6263 9.12179 7.6263 10.0235C7.6263 11.499 7.83225 12.7503 8.03069 13.8077C8.03069 13.8581 8.03225 13.9053 8.03528 13.9557C8.04143 14.0549 8.05208 14.1572 8.06272 14.2639C8.07952 14.4226 8.09778 14.5859 8.11155 14.7232C8.11917 14.7918 8.12532 14.8529 8.12991 14.9002C8.13147 14.9231 8.13293 14.9445 8.13293 14.9597L8.1345 14.975V14.9795V14.9811V15.0711L8.32825 15.9332C8.04905 16.2384 7.80794 16.5802 7.62024 16.9556C7.35775 17.4775 7.20218 18.0664 7.20218 18.689C7.20218 18.9637 7.23421 19.2475 7.29828 19.5297C7.45091 20.2117 7.65384 20.8068 7.89641 21.3257C8.25959 22.1054 8.72043 22.7112 9.23 23.1659C9.62521 23.5199 10.0479 23.7778 10.4659 23.9685C10.8352 24.9787 11.2075 25.8301 11.5996 26.561C11.9902 27.2888 12.4022 27.8946 12.8539 28.4042C13.0065 29.1198 13.1255 29.8218 13.127 30.6305C13.127 30.9052 13.1118 31.192 13.0798 31.4972C13.0492 31.7901 12.9851 32.0434 12.8921 32.2723C12.7532 32.6141 12.5503 32.9055 12.2741 33.1818C11.9979 33.4534 11.6454 33.7083 11.2289 33.9448C10.8062 34.1843 10.3164 34.4086 9.7839 34.6223C8.85002 35.0007 7.78499 35.3578 6.70619 35.7896C5.89751 36.1116 5.07808 36.4793 4.29684 36.9386C3.71091 37.2834 3.14783 37.6832 2.62908 38.1577C1.85243 38.8688 1.18252 39.7553 0.720215 40.8509C0.256352 41.9479 -0.00155543 43.2465 7.05822e-06 44.7815C7.05822e-06 44.9982 0.0458075 45.2041 0.120514 45.3949C0.189165 45.5734 0.285356 45.7367 0.398245 45.8923C0.611915 46.1823 0.886522 46.4416 1.22373 46.6919C1.81581 47.1283 2.60154 47.5372 3.61931 47.9218C5.14517 48.4971 7.18988 49.0144 9.83419 49.3897C12.477 49.765 15.7195 50 19.6257 50C23.0146 50 25.9016 49.8245 28.3323 49.5331C30.1541 49.3134 31.7212 49.0296 33.0503 48.7046C34.0482 48.462 34.9133 48.1949 35.6549 47.9142C36.2104 47.7036 36.6987 47.4839 37.1228 47.258C37.4402 47.0887 37.7209 46.9147 37.9697 46.7362C38.342 46.466 38.641 46.1884 38.8684 45.8725C38.9828 45.7154 39.0759 45.5475 39.1445 45.3644C39.2132 45.1843 39.2544 44.986 39.2544 44.7815C39.2544 43.7313 39.1339 42.7928 38.9096 41.9521ZM26.5868 34.9698L21.6888 42.6189L21.1425 38.8638L22.5325 37.3928L21.6322 35.8913L25.4316 33.894C25.5369 34.0298 25.6483 34.158 25.7658 34.28C26.0176 34.5379 26.2938 34.7653 26.5868 34.9698ZM12.506 8.51124C16.9219 9.49082 25.5568 7.61858 25.5568 7.61858C25.5568 7.61858 25.6499 9.75938 27.1223 11.7247C27.7022 12.4968 28.1797 13.7038 28.5383 14.8512C28.4422 14.6727 28.2163 14.6055 27.8791 14.5628C27.1223 14.4606 25.9977 14.395 24.7313 14.456C20.9686 14.6407 21.2477 14.9825 19.7707 14.9825C18.2937 14.9825 18.5729 14.6407 14.8101 14.456C13.5436 14.395 12.4191 14.4606 11.6607 14.5628C11.2671 14.6147 11.0198 14.6941 10.9634 14.9565C10.9436 15.0542 10.913 15.164 10.7772 15.2174C11.1938 13.6611 12.3535 11.6728 12.506 8.51124ZM27.8227 17.2331C27.8227 17.2545 27.8075 19.4121 26.3395 20.149C25.8406 20.4008 25.2149 20.5396 24.5787 20.5412C23.9073 20.5412 23.2939 20.3886 22.8041 20.1002C22.2624 19.7828 21.8977 19.3113 21.7192 18.7025C21.6765 18.5606 21.6384 18.4187 21.5987 18.2813C21.4827 17.8616 21.1699 16.6959 21.8337 16.1832C22.2609 15.8491 23.5869 15.6385 24.858 15.6385C26.013 15.6385 27.191 15.7956 27.5359 16.1558C27.7632 16.3939 27.8517 16.8181 27.8227 17.2331ZM17.9427 18.2814C17.9031 18.4187 17.8633 18.5606 17.8222 18.7026C17.6437 19.3113 17.2789 19.7829 16.7388 20.1003C16.2475 20.3887 15.634 20.5413 14.9627 20.5413C14.3263 20.5397 13.7023 20.4009 13.2018 20.1491C11.734 19.4121 11.7202 17.2545 11.7186 17.2332C11.6896 16.8182 11.7781 16.394 12.004 16.156C12.3504 15.7958 13.5283 15.6387 14.6835 15.6387C15.953 15.6387 17.2805 15.8493 17.7092 16.1834C18.3715 16.696 18.0587 17.8617 17.9427 18.2814ZM13.0401 25.7871C12.6571 25.073 12.2757 24.185 11.8835 23.0772L11.7538 22.7156L11.3936 22.5829C11.1434 22.4913 10.8992 22.3723 10.6658 22.2151C10.3134 21.9786 9.97921 21.6552 9.67247 21.1729C9.36574 20.6907 9.09113 20.0437 8.89279 19.1694C8.85461 19.0031 8.83937 18.8444 8.83937 18.6888C8.83937 18.3378 8.92326 18.0052 9.08351 17.6878C9.21476 17.4239 9.39786 17.1751 9.62062 16.9492C9.996 17.5169 10.3072 17.967 10.4202 18.0799C10.6354 18.295 10.7422 18.0875 10.759 17.6847C10.8917 18.5804 11.3175 20.059 12.6923 20.7898C14.6713 21.8412 17.6254 21.4474 18.6279 19.1068C19.0811 18.0509 19.0871 17.0195 19.7707 17.0195C20.4527 17.0195 20.4605 18.051 20.9136 19.1068C21.9176 21.4475 24.8716 21.8412 26.8507 20.7898C28.8282 19.7385 28.842 17.1354 28.842 16.9523C28.842 16.8576 28.932 16.786 29.0602 16.7722C29.228 17.4786 29.315 17.9578 29.315 17.9578C29.315 17.9578 29.5042 17.5962 29.788 17.114C29.9573 17.3123 30.0978 17.526 30.2015 17.7488C30.3403 18.0479 30.4151 18.3607 30.4151 18.6857C30.4151 18.8428 30.3983 19.003 30.3602 19.1679C30.2289 19.7508 30.0626 20.2329 29.8765 20.6327C29.5957 21.2308 29.2722 21.6429 28.9335 21.945C28.5963 22.2471 28.2362 22.4439 27.8623 22.5828L27.5007 22.714L27.3725 23.0772C26.9803 24.185 26.5973 25.0746 26.2144 25.7871C25.8298 26.5013 25.4484 27.0384 25.0517 27.4565L24.8946 27.6228L24.8458 27.8441C24.6687 28.6604 24.4918 29.5622 24.4918 30.6303C24.4918 30.9599 24.5086 31.3032 24.5452 31.6648C24.5894 32.089 24.6871 32.4873 24.8321 32.8535C24.8382 32.8703 24.8473 32.8885 24.8535 32.9039L19.8837 35.5177L14.3754 32.9619C14.5447 32.5651 14.6591 32.1318 14.708 31.6649C14.7462 31.3033 14.7614 30.96 14.7614 30.6304C14.7629 29.5622 14.5859 28.6589 14.4074 27.8426L14.3586 27.6213L14.2014 27.4565C13.8061 27.0353 13.4231 26.5012 13.0401 25.7871ZM12.9959 34.7256C13.2828 34.4953 13.5468 34.2374 13.7801 33.9474L17.9809 35.8975L17.0836 37.3929L18.4722 38.8639L17.9595 42.3993L12.6007 35.0157C12.7365 34.9224 12.8692 34.8263 12.9959 34.7256ZM37.6172 44.775C37.6157 44.7841 37.605 44.8146 37.576 44.8634C37.521 44.9581 37.3929 45.1106 37.1762 45.2846C36.9885 45.4357 36.7352 45.605 36.4164 45.779C35.8564 46.0858 35.098 46.4046 34.1367 46.7068C32.6932 47.1615 30.7874 47.5765 28.3826 47.8786C25.9779 48.1778 23.0742 48.3639 19.6257 48.3639C16.2962 48.3639 13.4734 48.19 11.1175 47.9076C9.3505 47.6955 7.84602 47.4209 6.59174 47.1157C5.64878 46.8854 4.84615 46.6367 4.17936 46.3833C3.67731 46.1941 3.25164 46.0019 2.90223 45.8142C2.63973 45.6738 2.41854 45.535 2.23846 45.4068C1.96991 45.2145 1.79901 45.039 1.71356 44.9185C1.67079 44.8605 1.6495 44.8147 1.64189 44.7934C1.6373 44.7842 1.63573 44.7782 1.63573 44.7751C1.63573 43.8595 1.73954 43.0753 1.91952 42.3947C2.07665 41.7996 2.29334 41.2823 2.55731 40.8246C3.01814 40.0235 3.6239 39.3948 4.34411 38.8653C4.88121 38.4671 5.48394 38.1268 6.12173 37.8232C6.83734 37.4829 7.5972 37.19 8.36018 36.9076V38.5556H8.93234H9.5045V36.485C10.2339 36.2119 10.9449 35.9311 11.6071 35.5955L20.0741 47.2607L27.4715 35.7114C27.4944 35.7464 27.5173 35.7816 27.5387 35.8152C27.8469 36.3111 28.062 36.8512 28.2055 37.4631C28.3474 38.0735 28.413 38.757 28.413 39.5185C28.413 41.2824 28.413 42.8189 28.413 43.8535H25.7551V44.9994H32.298V43.8535H29.64C29.64 42.8189 29.64 41.2824 29.64 39.5185C29.64 38.4092 29.5133 37.3991 29.1989 36.4774C29.1715 36.398 29.1425 36.3187 29.1119 36.2409C30.0061 36.5933 30.9414 36.9107 31.8478 37.2708C32.6245 37.5776 33.3783 37.9132 34.0634 38.3114C34.5792 38.6106 35.0568 38.9462 35.481 39.3276C36.1173 39.906 36.6391 40.588 37.0145 41.4623C37.3883 42.3351 37.6172 43.4093 37.6172 44.775Z" fill="#969696"/>
</svg>
