<svg width="31" height="50" viewBox="0 0 31 50" fill="none" xmlns="http://www.w3.org/2000/svg">
<path d="M25.8453 35.8164C21.6793 42.6068 15.5853 49.9998 8.80447 50C7.61633 50 6.40733 49.773 5.18332 49.276C1.35717 47.7183 -0.340937 44.1281 0.135468 38.6051C0.167215 38.233 0.509275 37.9552 0.889028 37.9875C1.27331 38.0185 1.55863 38.3455 1.52638 38.7177C1.10037 43.6596 2.47315 46.7056 5.72361 48.0287C13.009 50.988 20.0326 42.6443 24.6453 35.126C32.6061 22.119 28.7537 10.3795 21.4039 4.5153C16.8337 0.868715 10.9339 0.333949 6.37377 3.15123C2.1715 5.7483 0.480249 10.3544 1.849 15.4732C1.94564 15.8348 1.7215 16.2038 1.34861 16.2974C0.976608 16.3924 0.594134 16.174 0.497986 15.8125C-1.00732 10.1835 0.956653 4.89508 5.62294 2.0109C10.703 -1.12816 17.2453 -0.555209 22.2913 3.47115C30.1007 9.7023 34.2286 22.12 25.8453 35.8164ZM22.7355 31.2333C22.824 31.2694 22.9155 31.2865 23.0059 31.2865C23.2785 31.2865 23.5371 31.131 23.6496 30.8721C26.8852 23.4217 26.2936 15.694 22.0677 10.2012C19.2704 6.56588 15.3295 4.54009 11.7778 4.91588C7.81548 5.33375 6.10972 7.48238 5.37662 9.21128C3.53661 13.5506 5.76545 19.7307 8.79631 23.3425C9.0395 23.6321 9.47912 23.6764 9.77845 23.4406C10.0774 23.2049 10.1228 22.7789 9.87963 22.4893C8.66237 21.0389 7.70795 19.3668 7.06263 17.6646C10.3459 17.88 12.9802 18.5055 14.8826 19.5373C18.3818 21.4415 18.7061 24.6026 18.5877 26.3174C18.3526 29.729 16.0676 33.2102 13.3873 34.2427C12.0327 34.7612 10.8037 34.3302 10.1042 33.7554C9.49987 33.2589 9.21637 32.6156 9.34568 32.0342C9.53032 31.2037 10.5079 30.5026 12.0981 30.0607C12.4687 29.9575 12.6828 29.583 12.5767 29.2242C12.47 28.8648 12.0799 28.6577 11.7134 28.7604C8.86807 29.5514 8.15401 30.9727 7.98117 31.7495C7.74211 32.8268 8.19806 33.9621 9.20106 34.7868C10.0321 35.4698 11.0775 35.8256 12.1485 35.8256C12.7356 35.8254 13.3303 35.7186 13.9014 35.5001C17.0947 34.2705 19.7079 30.3613 19.9805 26.4075C20.2228 22.8977 18.6548 20.0389 15.5651 18.3575C13.3418 17.1517 10.4092 16.4735 6.61364 16.2805C5.94403 13.8726 5.91239 11.5074 6.66786 9.72534C7.52532 7.70396 9.29498 6.53814 11.929 6.2605C14.943 5.94117 18.484 7.80631 20.9487 11.0095C22.8346 13.4606 26.7473 20.2515 22.3632 30.3477C22.2134 30.6919 22.3803 31.0885 22.7355 31.2333Z" fill="#969696"/>
</svg>
