<svg width="50" height="50" viewBox="0 0 50 50" fill="none" xmlns="http://www.w3.org/2000/svg">
<path d="M46.6295 1.29138C42.9983 -0.719093 39.019 0.654841 36.3605 2.70744C32.8158 0.988818 28.9386 0.0648239 24.9997 0C21.0609 0.0647419 17.1836 0.988741 13.639 2.70744C10.98 0.655267 7.00118 -0.71994 3.36997 1.29138C2.1312 1.93837 1.14386 2.98038 0.564526 4.2522C-0.0148062 5.52402 -0.152975 6.95286 0.171928 8.3121C0.651132 10.1388 1.56931 11.8207 2.84661 13.2117C2.8083 14.0256 2.94603 14.8382 3.25041 15.5941C3.55478 16.3499 4.01863 17.0311 4.61029 17.5914C5.50923 18.5176 6.68277 19.1293 7.95682 19.3359C8.17428 19.3669 8.39368 19.3828 8.61336 19.3831C9.08848 19.3946 9.56102 19.3109 10.0033 19.137C10.4455 18.9631 10.8485 18.7025 11.1885 18.3705C12.7871 16.7723 12.4373 13.821 10.409 11.7927C8.97079 10.3545 7.07138 9.76515 5.51575 10.1107C4.8552 9.32065 4.37512 8.3959 4.10906 7.4011C3.98177 6.89753 4.03389 6.36533 4.25644 5.89601C4.47899 5.42668 4.85807 5.04954 5.32853 4.8294C6.89224 3.96266 9.56352 4.18648 12.0046 6.63649C12.1095 6.74145 12.2137 6.8447 12.3169 6.94626C13.0473 7.6623 13.6278 8.51671 14.0244 9.45958C14.421 10.4025 14.6258 11.4148 14.627 12.4377C14.6051 14.07 14.3617 15.6918 13.9036 17.2586C12.1139 23.5747 13.6568 26.4191 15.6102 30.0202C17.6386 33.7632 20.1695 38.428 20.1695 49.2514C20.1695 49.4489 20.2479 49.6383 20.3876 49.7779C20.5272 49.9175 20.7166 49.996 20.9141 49.996C21.1116 49.996 21.301 49.9175 21.4406 49.7779C21.5802 49.6383 21.6587 49.4489 21.6587 49.2514C21.6587 38.0502 19.03 33.2033 16.9174 29.3087C14.9861 25.7486 13.7104 23.3943 15.3345 17.6633C15.8304 15.9663 16.0933 14.2098 16.1162 12.442C16.1154 11.2202 15.8712 10.0109 15.398 8.88449C14.9247 7.75811 14.2319 6.73733 13.3598 5.88166C13.2598 5.78422 13.1602 5.68465 13.0594 5.58381C10.0711 2.58405 6.66035 2.38747 4.60689 3.52482C3.85396 3.90352 3.25151 4.52611 2.89777 5.29108C2.54402 6.05606 2.45985 6.91831 2.65897 7.73728C2.94077 8.82929 3.44246 9.85235 4.13331 10.7438C4.02715 10.8263 3.92612 10.9151 3.83078 11.0098C3.67074 11.1717 3.52813 11.35 3.40528 11.5416C2.56587 10.4932 1.95838 9.27858 1.62288 7.97807C1.3761 6.93438 1.48488 5.83815 1.93195 4.8633C2.37903 3.88844 3.1388 3.09077 4.09076 2.59681C7.24287 0.852275 10.7932 2.25897 13.0649 4.15797C13.1762 4.25107 13.3123 4.30958 13.4564 4.32629C13.6005 4.343 13.7463 4.31717 13.8759 4.252C17.3284 2.50492 21.131 1.56049 24.9997 1.48924C28.8681 1.55989 32.6705 2.50359 36.1231 4.24987C36.2527 4.31505 36.3985 4.34087 36.5427 4.32416C36.6868 4.30745 36.8228 4.24894 36.9341 4.15584C39.2067 2.25727 42.7562 0.849297 45.9083 2.59469C46.8608 3.08862 47.6209 3.88663 48.068 4.86197C48.5152 5.8373 48.6236 6.93407 48.3762 7.97807C48.0409 9.28017 47.4328 10.4962 46.592 11.5455C46.4699 11.3539 46.328 11.1756 46.1687 11.0136C46.0732 10.9189 45.9722 10.8301 45.8661 10.7477C46.5574 9.85534 47.0591 8.83123 47.3405 7.73812C47.5395 6.91916 47.4553 6.05694 47.1016 5.29199C46.7479 4.52703 46.1454 3.90443 45.3926 3.52568C43.3395 2.38875 39.9292 2.5849 36.9392 5.58466C36.8392 5.6855 36.7397 5.78507 36.6413 5.88251C35.7693 6.73809 35.0765 7.75888 34.6033 8.88518C34.1301 10.0115 33.8861 11.2208 33.8854 12.4424C33.9083 14.2104 34.1712 15.967 34.667 17.6641C36.2911 23.3964 35.0156 25.7486 33.0842 29.3091C30.9695 33.2033 28.3408 38.0502 28.3408 49.2514C28.3408 49.4489 28.4192 49.6383 28.5588 49.7779C28.6985 49.9175 28.8879 49.996 29.0853 49.996C29.2829 49.996 29.4722 49.9175 29.6119 49.7779C29.7515 49.6383 29.83 49.4489 29.83 49.2514C29.83 38.428 32.3591 33.7632 34.3909 30.0189C36.3443 26.4179 37.8872 23.5735 36.0976 17.2578C35.6394 15.6908 35.3961 14.0689 35.3742 12.4364C35.3756 11.4141 35.5805 10.4021 35.977 9.45972C36.3736 8.51734 36.9538 7.66334 37.6838 6.94751C37.7876 6.84598 37.8917 6.74258 37.9961 6.63734C40.4376 4.1869 43.1085 3.96309 44.6726 4.83025C45.1429 5.05053 45.5218 5.42774 45.7442 5.89705C45.9666 6.36636 46.0186 6.89848 45.8912 7.40193C45.625 8.3966 45.1449 9.32114 44.4846 10.1111C42.9293 9.76563 41.0295 10.3549 39.5913 11.7931C37.563 13.8214 37.2132 16.7714 38.8118 18.3709C39.1518 18.7029 39.5548 18.9635 39.9971 19.1375C40.4393 19.3114 40.9118 19.395 41.3869 19.3836C41.6066 19.3832 41.826 19.3674 42.0435 19.3363C43.3175 19.1297 44.491 18.518 45.39 17.5918C45.9816 17.0314 46.4453 16.3501 46.7495 15.5942C47.0537 14.8382 47.1913 14.0256 47.1529 13.2117C48.4298 11.8215 49.3479 10.1404 49.8275 8.31467C50.153 6.95501 50.0152 5.52563 49.4358 4.25327C48.8565 2.98091 47.8688 1.93848 46.6295 1.29138ZM9.35585 12.8436C10.7792 14.2674 11.1361 16.3153 10.1354 17.3157C9.11757 18.3334 7.11137 17.9845 5.6634 16.5361C4.24011 15.1128 3.88312 13.0649 4.88389 12.0641C5.08827 11.8697 5.3294 11.718 5.59315 11.6178C5.85691 11.5178 6.138 11.4713 6.41994 11.4812C7.53774 11.5394 8.58975 12.0275 9.35585 12.8436ZM44.3361 16.5361C42.8893 17.9828 40.881 18.333 39.864 17.3157C38.8633 16.3153 39.2203 14.2674 40.6436 12.8436C42.0903 11.397 44.0978 11.0464 45.1156 12.0641C46.1163 13.0649 45.7593 15.1128 44.3361 16.5361Z" fill="#969696"/>
<path d="M31.8155 18.2689C30.8517 13.8863 31.4036 10.8435 32.0354 9.06536C32.1436 8.75951 32.1759 8.43201 32.1296 8.11096C32.0832 7.78991 31.9597 7.48491 31.7695 7.22211C31.5791 6.96126 31.3292 6.74952 31.0406 6.60442C30.7521 6.45932 30.4331 6.38503 30.1101 6.38771C29.8632 6.39376 29.6163 6.37953 29.3719 6.34517C28.8496 6.25786 28.3399 6.1077 27.8537 5.89796C26.9551 5.49765 25.9823 5.29077 24.9986 5.29077C24.0148 5.29077 23.0421 5.49765 22.1435 5.89796C21.6573 6.1077 21.1475 6.25786 20.6253 6.34517C20.3807 6.37924 20.1336 6.39347 19.8867 6.38771C19.5635 6.38437 19.2444 6.45837 18.9557 6.60353C18.667 6.74868 18.4172 6.96077 18.2272 7.22211C18.037 7.48491 17.9135 7.78991 17.8672 8.11096C17.8209 8.43201 17.8532 8.75951 17.9613 9.06536C18.5931 10.8435 19.145 13.8841 18.1812 18.2689C17.1473 22.9753 17.9991 24.9637 19.1782 27.7149C20.656 31.1615 22.6792 35.8845 22.6792 49.2511C22.6792 49.4486 22.7576 49.638 22.8973 49.7776C23.037 49.9173 23.2264 49.9957 23.4238 49.9957C23.6213 49.9957 23.8107 49.9173 23.9503 49.7776C24.09 49.638 24.1685 49.4486 24.1685 49.2511C24.1685 35.579 22.0754 30.6947 20.547 27.1286C19.4003 24.445 18.7064 22.8281 19.6382 18.5885C20.6776 13.8591 20.0637 10.5283 19.3667 8.5667C19.3391 8.48783 19.3313 8.4034 19.3437 8.32085C19.3562 8.23823 19.3886 8.15991 19.4382 8.0927C19.4845 8.02653 19.546 7.97238 19.6175 7.93475C19.689 7.89718 19.7684 7.87719 19.8492 7.87656H19.8595C20.1867 7.88372 20.5139 7.86448 20.8381 7.81908C21.4727 7.71729 22.0925 7.53851 22.6839 7.28682C23.4107 6.95265 24.2012 6.77961 25.0011 6.77961C25.8011 6.77961 26.5916 6.95265 27.3184 7.28682C27.9098 7.53851 28.5296 7.71729 29.1642 7.81908C29.4884 7.86448 29.8156 7.88365 30.1428 7.87656H30.148C30.2288 7.87726 30.3083 7.89718 30.3799 7.93482C30.4514 7.97238 30.513 8.02653 30.5594 8.0927C30.609 8.15991 30.6414 8.23823 30.6538 8.32085C30.6663 8.4034 30.6584 8.48783 30.6309 8.5667C29.9335 10.5283 29.3199 13.8591 30.3595 18.5885C31.2909 22.8277 30.5968 24.4467 29.448 27.1291C27.9197 30.6952 25.8266 35.5794 25.8266 49.2515C25.8266 49.449 25.9051 49.6384 26.0447 49.778C26.1843 49.9177 26.3737 49.9961 26.5712 49.9961C26.7687 49.9961 26.9581 49.9177 27.0977 49.778C27.2374 49.6384 27.3158 49.449 27.3158 49.2515C27.3158 35.8849 29.3391 31.1632 30.8169 27.7153C31.9976 24.9637 32.8494 22.9753 31.8155 18.2689Z" fill="#969696"/>
</svg>
