<svg width="47" height="50" viewBox="0 0 47 50" fill="none" xmlns="http://www.w3.org/2000/svg">
<g clip-path="url(#clip0_64_3624)">
<path d="M18.0135 35.2865C19.0592 35.1603 19.8893 34.8836 20.5526 34.4889C21.1914 34.1064 21.6797 33.61 22.054 33.0282C22.7417 31.9621 22.9045 31.5308 22.998 31.2744C23.0916 31.0303 23.1445 30.8797 23.3317 30.6681L23.348 30.6519C23.5514 30.4199 23.8607 30.2043 24.6053 29.6712C24.8983 29.4637 25.2563 29.2074 25.5656 28.9836C26.3021 28.4546 26.9043 27.8524 27.36 27.1688C27.8076 26.4974 28.1169 25.7365 28.2715 24.8779C28.3244 24.5931 28.3325 24.3368 28.3407 24.1414C28.3569 23.7793 28.3651 23.5229 28.5522 23.2585C29.0039 22.6156 29.484 22.7091 30.5705 23.4741C31.2459 23.9502 31.7952 24.5199 32.2184 25.179C32.6375 25.8382 32.9305 26.591 33.0933 27.4292C33.3008 28.5034 33.3049 29.3579 33.3089 30.2083C33.313 31.3558 33.3171 32.491 33.9152 34.139C34.1553 34.8063 34.4564 35.4736 34.8185 36.145C35.1725 36.8042 35.5794 37.4593 36.0433 38.1104L42.6839 44.751C42.9891 45.0562 42.985 45.5526 42.6799 45.8577L38.7695 49.7681C38.4603 50.0773 37.9639 50.0773 37.6628 49.7721L31.1971 43.3065C28.5238 41.3045 25.7975 41.0075 23.4131 40.7471C20.6299 40.4419 18.2577 40.1855 16.6423 37.6668C15.8691 36.4624 15.7471 35.9741 16.451 35.5184C16.7196 35.3434 16.9841 35.3353 17.3584 35.3271C17.5415 35.3231 17.7775 35.3149 18.0135 35.2865ZM37.2437 6.54297L37.5407 9.85514L43.3024 7.05159L36.6699 14.0625L36.1938 11.0433L30.481 14.0788L37.2437 6.54297ZM23.9583 2.93783L25.9766 5.78206L29.6021 0L27.5594 10.0749L25.4272 7.61312L21.9605 13.5091L23.9583 2.93783ZM40.922 16.6423L39.3595 19.8568L46.346 20.2759L36.2752 23.3968L37.439 20.2677L30.4484 20.1945L40.922 16.6423ZM4.61019 8.20719L1.9043 10.9131L8.64258 17.6595C8.65072 17.6676 8.65885 17.6758 8.66699 17.688C9.63949 18.6076 10.2702 19.8161 10.6486 21.2402C11.0148 22.6074 11.145 24.174 11.1287 25.8708C11.377 27.6855 12.0524 29.4718 12.9883 30.7414C13.501 31.4372 14.0788 31.9621 14.6851 32.2266C15.2262 32.4626 15.8162 32.4788 16.4225 32.2103C17.0369 31.9336 17.6839 31.3721 18.3431 30.4484C18.5832 30.1107 18.7785 29.6834 18.9819 29.2358C19.104 28.9714 19.2261 28.6987 19.3644 28.4302C20.5973 26.0213 21.3135 25.765 22.3267 25.3988C22.7783 25.236 23.3154 25.0407 24.0763 24.4263C25.057 23.6328 25.6104 22.819 25.6999 21.9767C25.7894 21.1304 25.4232 20.1864 24.5646 19.1284C24.3734 18.8883 24.1252 18.693 23.8363 18.5262C23.523 18.3431 23.1649 18.2007 22.7743 18.0827C21.403 17.6676 20.2189 17.6229 19.0755 17.5781C17.0451 17.5008 15.1245 17.4235 12.4512 15.6169C10.376 14.209 8.02002 11.7554 5.94076 9.58659C5.49723 9.12272 5.06999 8.67513 4.61019 8.20719ZM0.231934 10.3597L4.0568 6.53483C4.36605 6.22559 4.86247 6.22559 5.17171 6.53483C5.66813 7.03125 6.35579 7.7474 7.07194 8.49609C9.09424 10.6038 11.3851 12.9923 13.3341 14.3148C15.6413 15.8773 17.3381 15.9424 19.1366 16.0116C20.3817 16.0604 21.6716 16.1092 23.23 16.5812C23.7386 16.7358 24.2065 16.923 24.6257 17.1631C25.0692 17.4194 25.4598 17.7368 25.7853 18.1356C26.9246 19.5394 27.4007 20.87 27.2664 22.1476C27.1322 23.4253 26.3835 24.585 25.0732 25.647C24.1089 26.4282 23.4375 26.6724 22.8678 26.8758C22.1965 27.12 21.7204 27.2909 20.7682 29.1504C20.638 29.4027 20.5241 29.6509 20.4142 29.8909C20.1782 30.4118 19.9504 30.9082 19.6208 31.368C18.7907 32.5277 17.9281 33.2601 17.0695 33.6466C16.0278 34.1146 15.0106 34.078 14.0666 33.6711C13.1877 33.2926 12.3942 32.5887 11.7269 31.6813C10.6323 30.1961 9.84294 28.1169 9.57031 26.0335C9.56624 25.9969 9.56217 25.9562 9.56217 25.9196C9.58252 24.3368 9.46452 22.8882 9.13493 21.6512C8.82975 20.5037 8.3374 19.5435 7.59684 18.8395C7.57243 18.8232 7.55208 18.8029 7.53174 18.7785L0.231934 11.4705C-0.0773112 11.1654 -0.0773112 10.6649 0.231934 10.3597ZM21.346 35.8317C20.5037 36.3322 19.4702 36.6821 18.1885 36.8368C18.1152 36.8449 18.0501 36.853 17.985 36.8571C19.2098 38.7126 21.228 38.9323 23.5921 39.1927C26.1759 39.4735 29.13 39.799 32.1411 42.0614C32.1899 42.0898 32.2347 42.1265 32.2754 42.1672L38.2161 48.1079L41.0116 45.3125L34.8918 39.1846C34.8633 39.1561 34.8348 39.1235 34.8104 39.091C34.2855 38.3545 33.8257 37.6261 33.4351 36.8978C33.0404 36.1654 32.7108 35.4289 32.4422 34.6883C31.7546 32.7881 31.7505 31.5145 31.7464 30.2327C31.7423 29.4556 31.7383 28.6702 31.5592 27.7425C31.4331 27.1037 31.2134 26.534 30.896 26.0376C30.6193 25.6063 30.2734 25.2238 29.8462 24.8983C29.834 24.9756 29.8218 25.061 29.8096 25.1465C29.6183 26.2207 29.2277 27.1769 28.654 28.0355C28.0884 28.8818 27.356 29.6183 26.473 30.2531C26.0091 30.5868 25.7324 30.7821 25.5086 30.9448C24.8698 31.4006 24.6094 31.5837 24.5158 31.6854L24.5117 31.6895C24.5036 31.6976 24.4873 31.7423 24.4588 31.8197C24.3408 32.137 24.1374 32.6823 23.3643 33.8786C22.8638 34.6476 22.2087 35.319 21.346 35.8317ZM29.8055 24.1862H29.8218C29.8299 24.1821 29.8381 24.1781 29.8462 24.174C29.9072 24.0479 29.9357 23.995 29.8258 24.1496C29.8136 24.1659 29.8096 24.1781 29.8055 24.1862ZM29.8055 24.1862C29.8014 24.1943 29.8096 24.1943 29.8218 24.1862H29.8055ZM17.2892 36.8327C17.1183 36.9425 17.1875 36.9181 17.334 36.8652C17.3218 36.8327 17.3584 36.7879 17.2892 36.8327Z" fill="#969696"/>
</g>
<defs>
<clipPath id="clip0_64_3624">
<rect width="46.346" height="50" fill="white"/>
</clipPath>
</defs>
</svg>
