<svg width="49" height="50" viewBox="0 0 49 50" fill="none" xmlns="http://www.w3.org/2000/svg">
<path d="M44.3425 28.3903C45.4527 28.205 46.5803 28.1283 47.7174 28.1619C48.1914 28.1576 48.5959 27.8007 48.6098 27.324C48.6237 26.8481 48.246 26.4516 47.7669 26.4378C45.747 26.3826 43.7566 26.6533 41.8278 27.2162C41.7714 27.2283 41.7184 27.2447 41.6655 27.268C41.3426 27.3653 41.0196 27.461 40.7002 27.5757C38.4771 27.4576 36.5909 26.2206 35.6395 24.2379C34.6638 22.2017 34.9269 19.5415 36.2776 17.7665C36.3322 17.695 36.3774 17.614 36.4086 17.5243C36.544 17.1356 36.6976 16.7545 36.8531 16.3752H36.8626C38.4042 16.3752 39.9294 16.1597 41.4016 15.7606C43.0213 16.8907 44.9319 17.4976 46.9032 17.4976C47.2088 17.4976 47.5152 17.4829 47.8224 17.4536C48.2999 17.4088 48.6497 16.9881 48.6046 16.514C48.5585 16.039 48.1297 15.6769 47.6584 15.7381C46.2348 15.8726 44.8277 15.6166 43.5604 15.0218C44.9527 14.4399 46.2739 13.6831 47.4796 12.7494C47.8581 12.4564 47.9249 11.915 47.6298 11.54C47.3347 11.1642 46.7886 11.0986 46.411 11.3909C43.892 13.3434 40.8278 14.4744 37.6508 14.6322C39.037 11.9322 40.9571 9.52194 43.3087 7.55826C43.6758 7.25222 43.7227 6.70826 43.4146 6.34362C43.1064 5.97898 42.5595 5.93243 42.1915 6.23845C39.3001 8.65306 37.0206 11.6978 35.5067 15.1158C35.4981 15.1322 35.4911 15.1476 35.4842 15.1649C35.2567 15.6804 35.0467 16.2045 34.8557 16.7364C33.5536 17.9476 31.7481 18.2631 30.4061 17.4812C28.9044 16.608 28.1501 14.7933 28.6128 13.1658C28.6162 13.1537 28.6136 13.1426 28.6162 13.1305C28.6188 13.1192 28.6267 13.1106 28.6284 13.0986C28.7751 12.3581 28.8749 11.6107 28.953 10.8616C31.676 9.24264 33.7064 6.72723 34.6794 3.71267C34.8253 3.25924 34.5744 2.77305 34.1178 2.62822C33.6604 2.48513 33.1726 2.73339 33.0267 3.1851C32.3106 5.404 30.9304 7.30826 29.0876 8.69438C29.0936 8.34785 29.0876 8.00222 29.078 7.65562C29.0762 7.61771 29.0815 7.58062 29.0745 7.54361C29.0042 5.19021 28.6119 2.84718 27.8784 0.597253C27.7308 0.143819 27.243 -0.104449 26.7856 0.0420979C26.3298 0.188645 26.0798 0.673974 26.2274 1.12741C26.7873 2.84632 27.131 4.62385 27.2768 6.41603C25.3246 5.50571 23.8845 3.75836 23.4167 1.61274C23.3151 1.1481 22.8524 0.851556 22.3846 0.952417C21.9158 1.05327 21.619 1.51188 21.7197 1.97738C22.3681 4.94798 24.5069 7.30653 27.361 8.30132C27.3601 9.72625 27.2239 11.1512 26.9591 12.5564C24.8333 15.0916 22.9479 16.3803 18.856 16.3803C15.205 16.3803 12.2806 15.3062 10.1651 13.1874L10.1634 13.1865L10.1626 13.1848C9.85618 12.8797 9.57667 12.5529 9.2841 12.2365C10.2806 9.40729 10.6756 6.35742 10.4134 3.37475C10.3717 2.90062 9.96375 2.54288 9.47333 2.59115C8.9959 2.63253 8.64174 3.05063 8.68431 3.52474C8.89521 5.93243 8.64 8.38583 7.95604 10.709C6.51506 8.92889 5.26335 7.00736 4.25295 4.94108C4.04376 4.51178 3.52293 4.3342 3.09325 4.54282C2.66183 4.75057 2.48215 5.26521 2.69222 5.69451C3.43005 7.20396 4.29201 8.64007 5.24946 10.009C3.83803 9.96854 2.43354 9.80299 1.05335 9.50472C0.585484 9.39611 0.122819 9.69785 0.0203905 10.1633C-0.0820381 10.628 0.215699 11.0874 0.683573 11.1892C2.40056 11.5607 4.15486 11.7478 5.91178 11.7478C6.12792 11.7478 6.34406 11.7392 6.5602 11.7331C6.897 12.1512 7.2416 12.5615 7.59924 12.9624C7.64354 13.0219 7.68951 13.0762 7.74854 13.1236C8.12528 13.5399 8.49507 13.9624 8.89437 14.3597L8.89521 14.3606L9.00375 14.4847C11.4317 17.2399 14.7571 21.0112 14.7571 24.1387C14.7571 26.7766 12.5844 28.1265 10.0688 29.6894C9.81708 29.8455 9.56361 30.0049 9.31104 30.1644C6.48468 30.1222 3.94046 29.3472 1.33026 27.7188C0.924889 27.4662 0.389307 27.5886 0.134104 27.9895C-0.121968 28.3938 0.000425676 28.9257 0.406668 29.1791C2.60367 30.5497 4.76423 31.3756 7.05847 31.7152C4.66353 33.441 2.38319 35.3349 0.263442 37.378C-0.080302 37.7099 -0.0889825 38.2556 0.245213 38.5969C0.416217 38.771 0.641907 38.8581 0.868465 38.8581C1.08634 38.8581 1.30422 38.7771 1.47262 38.615C2.70003 37.4315 3.98647 36.3039 5.31369 35.2255C4.64965 37.7978 4.3224 40.4391 4.34062 43.1097C4.3441 43.5838 4.73211 43.9657 5.20866 43.9657H5.21474C5.6939 43.9623 6.08017 43.5735 6.0767 43.0976C6.05326 39.7857 6.59666 36.5219 7.68174 33.3928C8.43604 32.8402 9.20076 32.304 9.97854 31.7885C12.2085 30.6731 14.8656 31.0204 16.9281 32.6988C18.8482 34.2617 19.7084 36.7099 19.2101 39.0314C16.4585 40.0701 13.8795 41.4899 11.5497 43.2856C11.1703 43.5778 11.1018 44.1192 11.396 44.495C11.5662 44.7131 11.8222 44.8278 12.0809 44.8278C12.2667 44.8278 12.4542 44.7692 12.6122 44.6467C14.6147 43.1037 16.8178 41.8624 19.1555 40.9106C19.1737 41.1201 19.2049 41.3278 19.2327 41.5365C17.6537 43.4244 17.2553 47.9673 17.3638 49.2112C17.4037 49.6612 17.7822 50 18.2284 50C18.2535 50 18.2787 49.9992 18.3039 49.9965C18.7813 49.9551 19.1355 49.5379 19.0938 49.0638C18.9983 47.9665 19.3108 45.5941 19.882 43.9743C20.336 45.0131 20.9957 45.9622 21.8229 46.7449C22.5599 47.4415 23.3047 47.8983 24.2396 48.2268C24.3359 48.2595 24.4331 48.2759 24.5295 48.2759C24.8871 48.2759 25.2213 48.0552 25.3481 47.7018C25.5078 47.2526 25.2717 46.7596 24.8194 46.6018C24.1172 46.3544 23.579 46.0242 23.0208 45.4958C21.9575 44.4907 21.2405 43.1424 21.0018 41.6985C20.8985 41.0778 20.8481 40.4442 20.8403 39.8141C21.6927 37.5917 23.4626 35.9832 25.7274 35.3962C27.9695 34.8108 30.387 35.2996 32.1344 36.6469C32.216 39.734 33.15 42.7192 34.8661 45.3036C35.0319 45.5536 35.3088 45.6898 35.5909 45.6898C35.755 45.6898 35.9208 45.6433 36.0675 45.5476C36.4676 45.2855 36.5778 44.7501 36.3149 44.3528C34.9668 42.3226 34.1587 40.0158 33.9295 37.6142C36.7983 39.121 39.2002 41.3408 40.9302 44.0976C41.0943 44.3606 41.3781 44.5045 41.6681 44.5045C41.8252 44.5045 41.9831 44.4622 42.1264 44.3743C42.5335 44.1226 42.6576 43.5916 42.4042 43.1873C41.359 41.521 40.0848 40.0391 38.629 38.7633C40.1976 38.5745 41.7818 38.5753 43.3608 38.7857C43.833 38.8469 44.2722 38.5167 44.3364 38.046C44.3998 37.5737 44.0665 37.1401 43.5908 37.0772C41.3087 36.7746 39.0153 36.8659 36.7653 37.3245C35.8487 36.6953 34.8765 36.141 33.8549 35.666C33.8531 33.3583 33.8748 31.6799 34.8765 30.6842C35.8175 29.7472 37.6994 29.311 40.7983 29.311C40.8999 29.311 41.0023 29.2929 41.103 29.2567C41.3781 29.1541 41.6585 29.0791 41.9371 28.9903C43.905 30.0101 45.6776 31.4351 47.0656 33.154C47.2374 33.3669 47.4892 33.4772 47.7435 33.4772C47.9344 33.4772 48.1254 33.4152 48.286 33.2876C48.6601 32.9893 48.72 32.4471 48.4206 32.0765C47.2687 30.6497 45.8806 29.4033 44.3425 28.3903ZM33.6465 29.4662C32.3697 30.7351 32.1569 32.5014 32.1231 34.5565C30.1006 33.4281 27.6492 33.1117 25.2881 33.7264C23.6102 34.1617 22.1215 35.0781 20.9758 36.334C20.6372 34.4333 19.6155 32.6566 18.0278 31.3644C16.6902 30.2756 15.1087 29.6369 13.5028 29.474C15.1903 28.1792 16.4932 26.5904 16.4932 24.1387C16.4932 21.8474 15.1772 19.4535 13.5592 17.264C15.1556 17.8191 16.935 18.1044 18.856 18.1044C22.6328 18.1044 24.8906 17.0665 26.8524 15.2123C27.1614 16.745 28.1162 18.1476 29.5285 18.9699C30.7524 19.6811 32.2151 19.8113 33.5927 19.4078C33.1031 21.2406 33.2472 23.2551 34.0736 24.9784C34.669 26.2189 35.5449 27.236 36.616 27.9731C35.3114 28.2765 34.3487 28.7671 33.6465 29.4662Z" fill="#969696"/>
</svg>
