<svg width="44" height="50" viewBox="0 0 44 50" fill="none" xmlns="http://www.w3.org/2000/svg">
<g clip-path="url(#clip0_64_3660)">
<path d="M8.77276 37.0607C8.86281 37.0127 8.96163 36.9834 9.06328 36.9746C9.16494 36.9658 9.26732 36.9776 9.36427 37.0094C9.46123 37.0412 9.55077 37.0922 9.62749 37.1595C9.70422 37.2267 9.76656 37.3088 9.81075 37.4008C9.85495 37.4928 9.8801 37.5927 9.88468 37.6946C9.88926 37.7966 9.87319 37.8984 9.83742 37.9939C9.80166 38.0895 9.74694 38.1768 9.67656 38.2507C9.60618 38.3246 9.52159 38.3834 9.42787 38.4238C8.72462 38.7461 7.9446 38.8632 7.17771 38.7615C6.69164 38.7057 6.21202 38.6035 5.74542 38.4563C5.76576 38.6516 5.78611 38.8429 5.81052 39.0382C5.88376 39.5835 5.98142 40.145 6.10756 40.7187C6.14976 40.9109 6.11624 41.1121 6.01397 41.2802C5.65113 41.9532 5.42047 42.6893 5.33445 43.449C5.30202 43.7037 5.32564 43.9624 5.40365 44.207C5.48167 44.4516 5.6122 44.6762 5.78611 44.865C6.25065 45.2724 6.82555 45.533 7.43813 45.6137C8.84058 45.8143 10.2673 45.7675 11.6536 45.4754C13.2987 45.1845 14.913 44.7404 16.4754 44.1489C17.6855 43.7089 18.8236 43.0918 19.8527 42.3178C20.7397 41.6098 21.1466 40.4501 21.4803 39.4695C21.5535 39.262 21.6227 39.0626 21.6553 38.9812L21.757 38.7086C22.1924 37.5123 22.9492 35.4534 23.9298 34.6803C24.0917 34.5578 24.2956 34.5046 24.4967 34.5325C24.6978 34.5603 24.8795 34.6669 25.002 34.8288C25.1245 34.9907 25.1777 35.1946 25.1498 35.3957C25.122 35.5967 25.0154 35.7785 24.8535 35.901C24.2187 36.3893 23.5595 38.2 23.1771 39.2498C23.0997 39.4655 23.116 39.4248 23.0753 39.5306C22.994 39.7503 22.9492 39.8723 22.9085 39.9944C22.5016 41.1785 22.0093 42.562 20.7804 43.5426C19.6309 44.404 18.3597 45.0897 17.0084 45.5771C16.687 45.7032 16.3574 45.8212 16.0278 45.9311C16.0407 46.4268 16.023 46.9228 15.9749 47.4163C15.9093 48.1037 15.7854 48.7843 15.6046 49.4508C15.5779 49.547 15.5325 49.637 15.471 49.7156C15.4095 49.7942 15.3332 49.86 15.2462 49.9091C15.1593 49.9582 15.0636 49.9898 14.9645 50.0019C14.8654 50.014 14.7649 50.0065 14.6688 49.9798C14.5726 49.9531 14.4826 49.9077 14.404 49.8462C14.3253 49.7847 14.2596 49.7083 14.2104 49.6214C14.1613 49.5345 14.1298 49.4388 14.1177 49.3397C14.1056 49.2406 14.1131 49.1401 14.1398 49.0439C14.2983 48.4585 14.4085 47.861 14.4694 47.2576C14.4979 46.9646 14.5141 46.6717 14.5182 46.3746C13.6271 46.6188 12.74 46.8141 11.91 46.9646C10.3435 47.29 8.73195 47.3369 7.14923 47.103C6.23578 46.9678 5.38466 46.5592 4.70782 45.9311C4.38145 45.5932 4.13322 45.1877 3.98065 44.7434C3.82808 44.299 3.7749 43.8266 3.82484 43.3595C3.91128 42.4656 4.16527 41.5959 4.57354 40.796C4.47182 40.2955 4.3823 39.7788 4.31313 39.2417C4.23582 38.6435 4.18292 38.021 4.1585 37.4309C4.15662 37.4106 4.15662 37.3902 4.1585 37.3699V37.2926C4.04864 36.1492 4.03643 35.0343 4.02016 33.9072V33.6508L2.27048 33.5491C1.83678 33.5397 1.4142 33.4101 1.04978 33.1748C0.717091 32.9591 0.449736 32.6566 0.276668 32.2999C0.101394 31.9174 0.0164664 31.4998 0.0284581 31.0792C0.0616047 30.3731 0.289774 29.69 0.687638 29.1057L2.55938 25.2768C3.47898 23.401 3.46677 23.1528 3.43015 22.1681C3.43015 21.7246 3.38946 21.159 3.43015 20.3085C3.45315 19.3369 3.57586 18.3702 3.79636 17.4236C3.94512 16.7938 4.1564 16.1804 4.42706 15.5926L0.980607 14.1237C0.888042 14.0854 0.803991 14.0292 0.733323 13.9582C0.662656 13.8872 0.606778 13.8029 0.56893 13.7102C0.531081 13.6175 0.512014 13.5181 0.512834 13.418C0.513654 13.3178 0.534344 13.2188 0.573705 13.1267C0.597523 13.0761 0.624711 13.0272 0.655086 12.9803C8.79311 1.88814 17.9809 -1.15955 25.7568 0.366326C30.2677 1.29671 34.3611 3.65003 37.4349 7.08019C40.5149 10.4148 42.5209 14.5985 43.1925 19.0878C44.1894 26.3714 41.2638 34.1798 32.2591 39.4695C32.1842 39.5147 32.1013 39.5451 32.015 39.559C32.0185 40.6349 32.0851 41.7096 32.2143 42.7776C32.4529 44.7627 32.9283 46.7121 33.6303 48.5841C33.6653 48.6773 33.6816 48.7766 33.6783 48.8761C33.6749 48.9757 33.652 49.0736 33.6108 49.1642C33.5697 49.2549 33.511 49.3366 33.4383 49.4046C33.3655 49.4726 33.2801 49.5257 33.1868 49.5607C33.0936 49.5957 32.9944 49.612 32.8948 49.6086C32.7953 49.6053 32.6974 49.5823 32.6067 49.5412C32.516 49.5 32.4343 49.4413 32.3663 49.3686C32.2983 49.2958 32.2453 49.2104 32.2103 49.1171C31.4632 47.1329 30.9577 45.0659 30.7047 42.9607C30.4352 40.6634 30.4243 38.3431 30.6722 36.0434C30.6807 35.9433 30.7092 35.8459 30.7558 35.7569C30.8024 35.6679 30.8662 35.589 30.9436 35.525C31.021 35.4609 31.1104 35.4129 31.2065 35.3837C31.3026 35.3545 31.4036 35.3448 31.5036 35.355C31.6035 35.3653 31.7004 35.3954 31.7886 35.4435C31.8768 35.4916 31.9546 35.5568 32.0173 35.6352C32.0801 35.7137 32.1266 35.8039 32.1541 35.9005C32.1817 35.9971 32.1897 36.0983 32.1777 36.198C32.1207 36.7514 32.0801 37.2967 32.0516 37.8256C39.9983 32.9428 42.5862 25.879 41.6748 19.3076C41.0479 15.1232 39.1764 11.2242 36.3037 8.11779C33.4566 4.9308 29.6658 2.73673 25.4842 1.85558C18.4163 0.468051 10.0219 3.21057 2.46173 13.1186L5.71693 14.5306C5.82227 14.5684 5.91783 14.6293 5.99667 14.7088C6.0755 14.7882 6.13562 14.8843 6.17265 14.9899C6.20968 15.0955 6.22269 15.2081 6.21072 15.3194C6.19876 15.4307 6.16213 15.5379 6.10349 15.6333C5.70643 16.3048 5.41545 17.0336 5.24086 17.7939C5.0459 18.6407 4.93684 19.505 4.91534 20.3737C4.89093 21.1875 4.91534 21.7083 4.91534 22.1274C4.96824 23.4132 4.98044 23.7347 3.89402 25.9604L2.006 29.8015C1.98885 29.8412 1.96844 29.8793 1.94496 29.9155C1.68828 30.2738 1.53614 30.6964 1.50551 31.1362C1.49735 31.3014 1.52947 31.4662 1.5991 31.6163C1.65174 31.7291 1.7349 31.825 1.83917 31.893C1.9687 31.9742 2.11765 32.0192 2.27048 32.0232H2.33152L4.5003 32.1494C4.57092 32.1247 4.64523 32.1123 4.72003 32.1127H4.79734L6.79522 32.2836C6.90444 32.2755 7.01413 32.2912 7.1167 32.3295C7.21928 32.3679 7.31231 32.4281 7.38937 32.5059C7.46642 32.5837 7.52566 32.6774 7.563 32.7803C7.60035 32.8833 7.6149 32.9931 7.60566 33.1023C7.59641 33.2114 7.56359 33.3172 7.50947 33.4124C7.45534 33.5076 7.38119 33.59 7.29215 33.6537C7.2031 33.7175 7.10127 33.7612 6.9937 33.7817C6.88613 33.8023 6.77538 33.7993 6.66908 33.7729H6.62839L5.50128 33.7078V33.8624C5.50128 34.8471 5.52569 35.8196 5.60707 36.8002C6.15842 37.0208 6.73532 37.1712 7.32419 37.2478C7.815 37.3263 8.31802 37.2613 8.77276 37.0607ZM28.0395 13.9934C28.2831 13.9929 28.5251 14.0328 28.7557 14.1114C29.2321 14.2852 29.6535 14.583 29.9764 14.9741C30.3341 15.3911 30.5594 15.9054 30.6234 16.4511C30.6536 16.7226 30.6412 16.9972 30.5867 17.2649C30.8292 17.4822 31.0377 17.7345 31.2052 18.0136C31.4474 18.4219 31.57 18.89 31.5592 19.3645C31.5513 19.8644 31.3877 20.3494 31.0913 20.7521V20.7724C30.8614 21.0624 30.5867 21.3138 30.2775 21.517C30.3121 22.1829 30.1278 22.8417 29.7526 23.3929C29.4005 23.9329 28.849 24.3118 28.2186 24.4467C28.0456 25.0292 27.6589 25.5247 27.136 25.8341C26.613 26.1435 25.9925 26.2438 25.3987 26.115C25.1376 26.043 24.8943 25.9176 24.6842 25.7467C24.4741 25.5758 24.3017 25.3631 24.178 25.1222C24.0319 25.3819 23.8323 25.6076 23.5924 25.7844C23.3525 25.9612 23.0778 26.085 22.7864 26.1476C22.4753 26.2065 22.1551 26.197 21.848 26.1197C21.541 26.0424 21.2544 25.8992 21.0083 25.7C20.6024 25.4009 20.3144 24.9689 20.1945 24.4793C19.9894 24.4697 19.7867 24.4314 19.5923 24.3654C19.1186 24.1985 18.6974 23.9093 18.3716 23.5271C18.0176 23.1248 17.7873 22.6289 17.7083 22.0989C17.6672 21.8038 17.6769 21.5038 17.7368 21.2119C17.5192 21.0154 17.3302 20.7894 17.1753 20.5405C16.9106 20.132 16.7693 19.6559 16.7684 19.1692C16.776 18.6484 16.9499 18.1437 17.2648 17.7288C17.4828 17.4361 17.7466 17.1805 18.046 16.972V16.6831C18.0664 16.0237 18.3023 15.3891 18.7174 14.8764C19.0786 14.4152 19.5973 14.1037 20.1741 14.0016C20.1942 13.9176 20.2187 13.8348 20.2474 13.7534C20.4498 13.2642 20.8169 12.8613 21.285 12.614C21.737 12.3471 22.2709 12.2544 22.7864 12.3536C23.0612 12.4138 23.321 12.5288 23.5504 12.6917C23.7797 12.8546 23.9738 13.0621 24.1211 13.3017C24.2674 13.0613 24.4613 12.8532 24.6907 12.6902C24.9202 12.5272 25.1805 12.4127 25.4557 12.3536C25.9287 12.2589 26.4199 12.3293 26.8473 12.553C27.266 12.7625 27.6109 13.0947 27.8361 13.5052C27.92 13.6593 27.9842 13.8233 28.0273 13.9934H28.0395ZM24.6948 14.3271V23.6858C24.7403 23.7452 24.7697 23.8152 24.7803 23.8893C24.9145 24.7031 25.2604 25.0815 25.651 25.1873C25.843 25.2278 26.0416 25.2258 26.2328 25.1815C26.4239 25.1372 26.6031 25.0517 26.7578 24.9309C26.9153 24.83 27.0474 24.6942 27.1441 24.534C27.2407 24.3739 27.2993 24.1937 27.3152 24.0073C27.3152 23.6004 27.0182 23.1365 26.2125 22.7255C26.1564 22.6967 26.1066 22.6571 26.0658 22.6089C26.025 22.5608 25.9941 22.5051 25.9748 22.445C25.9555 22.385 25.9483 22.3217 25.9535 22.2588C25.9586 22.1959 25.9762 22.1347 26.005 22.0786C26.0339 22.0225 26.0735 21.9726 26.1216 21.9318C26.1698 21.891 26.2255 21.8601 26.2855 21.8408C26.3456 21.8215 26.4089 21.8143 26.4718 21.8195C26.5346 21.8247 26.5959 21.8422 26.652 21.871C27.5472 22.3308 28.0233 22.8924 28.1942 23.462C28.5094 23.3465 28.7791 23.1325 28.9632 22.8517C29.2546 22.412 29.3734 21.8802 29.2969 21.3584V21.3258C29.2846 21.2324 29.3 21.1375 29.3413 21.0529C29.3825 20.9682 29.4477 20.8976 29.5288 20.8497C29.8289 20.6819 30.093 20.4565 30.306 20.1865C30.4913 19.9434 30.5978 19.6495 30.6111 19.3442C30.6149 19.0484 30.5345 18.7577 30.3792 18.506C30.2251 18.2491 30.0218 18.0251 29.7811 17.8468C29.6939 17.7875 29.6284 17.7014 29.5946 17.6015C29.5608 17.5016 29.5606 17.3934 29.5939 17.2934C29.6846 17.0591 29.7221 16.8075 29.7038 16.5569C29.6642 16.2029 29.5228 15.8679 29.2969 15.5926C29.0817 15.333 28.8006 15.1362 28.483 15.0229C28.3431 14.9745 28.1957 14.9511 28.0477 14.9537C27.9619 15.2536 27.8119 15.5313 27.6082 15.7675C27.5665 15.817 27.5155 15.8577 27.4581 15.8874C27.4007 15.9171 27.338 15.9352 27.2735 15.9407C27.2091 15.9462 27.1443 15.9389 27.0826 15.9193C27.021 15.8997 26.9639 15.8682 26.9144 15.8265C26.865 15.7849 26.8243 15.7338 26.7946 15.6764C26.7649 15.619 26.7467 15.5563 26.7413 15.4919C26.7358 15.4274 26.743 15.3626 26.7626 15.301C26.7822 15.2393 26.8138 15.1822 26.8554 15.1328C27.0026 14.9796 27.0979 14.784 27.1278 14.5737C27.1577 14.3634 27.1208 14.1491 27.0223 13.9609C26.8806 13.7275 26.6723 13.5418 26.4241 13.4278C26.1903 13.3062 25.9225 13.2661 25.6632 13.3139C25.4253 13.386 25.2105 13.5195 25.0405 13.7009C24.8705 13.8823 24.7513 14.1053 24.6948 14.3474V14.3271ZM26.9612 17.4195C26.8701 17.3401 26.812 17.2295 26.7983 17.1094C26.7845 16.9893 26.8162 16.8684 26.8871 16.7705C26.958 16.6726 27.0629 16.6048 27.1813 16.5803C27.2997 16.5558 27.4229 16.5765 27.5268 16.6383C27.6123 16.7034 27.7018 16.7726 27.7913 16.854C28.3749 17.3776 28.7335 18.1066 28.7923 18.8885C28.8484 19.656 28.6307 20.4187 28.1779 21.041L28.1535 21.0695C28.0843 21.159 28.0192 21.2404 27.9541 21.3136C27.9129 21.3665 27.861 21.4102 27.8019 21.4419C27.7427 21.4736 27.6776 21.4925 27.6107 21.4974C27.5438 21.5024 27.4766 21.4933 27.4135 21.4707C27.3503 21.4481 27.2926 21.4125 27.244 21.3662C27.1954 21.3199 27.1571 21.264 27.1315 21.202C27.1059 21.14 27.0935 21.0733 27.0953 21.0062C27.097 20.9392 27.1127 20.8732 27.1415 20.8126C27.1703 20.752 27.2115 20.6981 27.2623 20.6544L27.421 20.4591C27.7404 20.0235 27.8934 19.4881 27.8524 18.9495C27.81 18.4178 27.5653 17.9227 27.1688 17.566C27.1093 17.5136 27.0468 17.4647 26.9816 17.4195H26.9612ZM23.7345 14.8032V14.7788C23.5189 13.9121 23.1038 13.5133 22.6725 13.4238C22.3836 13.3729 22.086 13.4278 21.8343 13.5784C21.5769 13.7244 21.3772 13.9541 21.2687 14.2294C21.1983 14.4498 21.1998 14.6868 21.2729 14.9062C21.3461 15.1256 21.4871 15.3161 21.6756 15.4501C21.761 15.5383 21.8095 15.6559 21.8109 15.7787C21.8123 15.9015 21.7666 16.0201 21.6833 16.1103C21.5999 16.2004 21.4852 16.2552 21.3626 16.2633C21.2401 16.2715 21.1191 16.2324 21.0246 16.1541C20.7109 15.878 20.4752 15.5244 20.341 15.1287C20.042 15.2176 19.7786 15.3984 19.5882 15.6455C19.3094 15.993 19.1497 16.4209 19.1325 16.8662C19.1226 16.9921 19.1226 17.1186 19.1325 17.2446C19.1508 17.341 19.1397 17.4408 19.1005 17.5308C19.0613 17.6208 18.9958 17.6969 18.9127 17.7491C18.6183 17.9236 18.3589 18.1512 18.1478 18.4205C17.9528 18.676 17.8431 18.9863 17.8344 19.3076C17.8379 19.6121 17.9267 19.9096 18.0908 20.1661C18.2377 20.3997 18.4267 20.6039 18.6483 20.7683C18.7339 20.828 18.798 20.9136 18.831 21.0126C18.864 21.1116 18.8641 21.2186 18.8314 21.3177C18.7403 21.5241 18.6932 21.7472 18.693 21.9728C18.7464 22.3129 18.8961 22.6306 19.1243 22.8883C19.3412 23.1422 19.6223 23.3333 19.9381 23.4417C20.0491 23.4776 20.1637 23.5008 20.2799 23.5109C20.4218 23.142 20.637 22.8058 20.9126 22.5226C21.1882 22.2393 21.5183 22.0149 21.8831 21.8629C21.9396 21.8304 22.002 21.8097 22.0667 21.8021C22.1314 21.7945 22.1969 21.8001 22.2594 21.8187C22.3218 21.8372 22.3798 21.8682 22.4299 21.9099C22.48 21.9515 22.521 22.0029 22.5506 22.061C22.5802 22.119 22.5976 22.1824 22.6019 22.2474C22.6062 22.3124 22.5972 22.3776 22.5755 22.439C22.5538 22.5004 22.5198 22.5568 22.4756 22.6046C22.4314 22.6525 22.378 22.6909 22.3185 22.7174C21.4559 23.1528 21.1588 23.6492 21.1588 24.0765C21.1666 24.2478 21.2131 24.4152 21.2949 24.566C21.3766 24.7168 21.4915 24.8472 21.6308 24.9472C21.7675 25.0601 21.9271 25.1419 22.0986 25.1869C22.27 25.2318 22.4492 25.2389 22.6237 25.2076C23.055 25.1181 23.4741 24.7194 23.6857 23.8445C23.7004 23.7922 23.7237 23.7426 23.7549 23.698V14.8032H23.7345ZM20.3776 16.9475C20.4213 16.8985 20.4747 16.8589 20.5343 16.8312C20.594 16.8036 20.6587 16.7885 20.7244 16.7869C20.7901 16.7853 20.8555 16.7973 20.9164 16.8219C20.9774 16.8466 21.0326 16.8836 21.0786 16.9305C21.1247 16.9774 21.1607 17.0333 21.1843 17.0946C21.2078 17.156 21.2186 17.2216 21.2158 17.2873C21.213 17.3529 21.1968 17.4174 21.1681 17.4765C21.1394 17.5357 21.0988 17.5883 21.049 17.6311C20.6699 18.0025 20.4472 18.5047 20.4264 19.0349C20.4076 19.5863 20.5898 20.1257 20.9391 20.5527C21.0195 20.652 21.0572 20.7791 21.0438 20.9062C21.0305 21.0332 20.9672 21.1498 20.8679 21.2302C20.7686 21.3106 20.6415 21.3482 20.5144 21.3349C20.3874 21.3215 20.2708 21.2583 20.1904 21.159C19.6963 20.5515 19.4403 19.7849 19.4702 19.0024C19.501 18.2331 19.8258 17.5049 20.3776 16.9679V16.9475ZM13.4277 11.5602L13.3504 11.6741C13.2568 11.8084 13.1632 11.9467 13.0818 12.081C13.0005 12.2153 12.9069 12.3699 12.8214 12.5245C12.1884 13.6561 11.7263 14.8751 11.4502 16.1419C11.1739 17.4038 11.0916 18.7004 11.206 19.9871C11.2621 20.6259 11.3655 21.2597 11.5153 21.8833C11.6679 22.5039 11.8678 23.112 12.1134 23.7021C12.3568 24.2904 12.6452 24.8591 12.976 25.4029C13.3097 25.9496 13.6838 26.4705 14.095 26.9614C14.2497 27.1445 14.4083 27.3235 14.563 27.4904C14.7176 27.6572 14.8722 27.8199 15.0431 27.9827C15.214 28.1455 15.3808 28.3123 15.5477 28.4588C15.7145 28.6053 15.8854 28.7517 16.0644 28.8942C16.8933 29.5612 17.799 30.1268 18.7622 30.5787C19.2395 30.8001 19.7301 30.9917 20.2311 31.1525C20.7257 31.3119 21.2299 31.4396 21.7407 31.5349H21.7936V29.8585H21.757C21.3439 29.7645 20.9364 29.6477 20.5363 29.5086C20.1326 29.37 19.7373 29.2083 19.3522 29.0244C18.96 28.8359 18.5795 28.6239 18.2129 28.3896C17.8408 28.1534 17.4821 27.8967 17.1386 27.6206C16.9759 27.4903 16.8172 27.3561 16.6707 27.2137C16.5242 27.0712 16.3696 26.941 16.2272 26.8068C16.0848 26.6725 15.9383 26.5179 15.8203 26.3714C15.7023 26.2249 15.5477 26.0703 15.4134 25.9197C14.6984 25.0766 14.1204 24.1265 13.7003 23.104C13.4892 22.5912 13.3164 22.0635 13.1836 21.5252C12.9164 20.4372 12.8189 19.3145 12.8947 18.1967C12.9271 17.634 13.0047 17.0747 13.1266 16.5244C13.2453 15.9705 13.4058 15.4264 13.6067 14.8968C13.8071 14.3697 14.0464 13.8583 14.3229 13.3668C14.4083 13.2122 14.4897 13.0738 14.567 12.9599L14.8193 12.5815C14.8452 12.5445 14.8792 12.514 14.9187 12.4921C14.9582 12.4703 15.0021 12.4577 15.0472 12.4554C15.1242 12.4532 15.199 12.4814 15.2554 12.5339C15.3117 12.5865 15.3451 12.6591 15.3483 12.7361C15.3768 13.4645 15.3768 14.2498 15.4297 14.97C15.4337 15.0799 15.46 15.1879 15.507 15.2874C15.5484 15.3786 15.6064 15.4614 15.6779 15.5315C15.7568 15.6046 15.8495 15.6613 15.9505 15.6984C16.0453 15.7344 16.1461 15.7523 16.2475 15.7513H16.276C16.4827 15.7362 16.6774 15.6482 16.8253 15.503C16.9721 15.3422 17.0508 15.1307 17.0451 14.913L16.9596 12.3862L16.862 9.8634C16.8569 9.75405 16.8321 9.64652 16.7887 9.54601C16.7437 9.45466 16.6847 9.37091 16.6137 9.2978C16.4565 9.15041 16.2473 9.07139 16.0319 9.07808C14.6443 9.13097 12.5 9.57043 11.0473 9.77388C10.9396 9.7884 10.8358 9.82437 10.7422 9.87967C10.6465 9.93351 10.5633 10.007 10.498 10.0953C10.429 10.181 10.3804 10.2811 10.3556 10.3883C10.3263 10.4928 10.3194 10.6024 10.3353 10.7098C10.3507 10.8186 10.3866 10.9235 10.4411 11.019C10.5509 11.2159 10.7335 11.3619 10.9497 11.4259C11.0559 11.4463 11.165 11.4463 11.2711 11.4259L13.1673 11.1573C13.2388 11.1472 13.3116 11.1647 13.3707 11.2062C13.403 11.2275 13.4306 11.255 13.452 11.2871C13.4734 11.3193 13.4881 11.3554 13.4953 11.3933C13.5025 11.4312 13.5021 11.4702 13.4939 11.508C13.4858 11.5457 13.4702 11.5815 13.4481 11.6131L13.4277 11.5602ZM27.5228 31.2542C27.9748 31.1205 28.4191 30.9615 28.8533 30.7781C29.2905 30.5931 29.7171 30.3839 30.131 30.1515C30.5506 29.9159 30.958 29.6592 31.3517 29.3824L31.3965 29.354L30.192 28.1617L30.1635 28.1821C29.8502 28.3937 29.5369 28.589 29.2155 28.764C28.894 28.9389 28.5644 29.0976 28.2267 29.2441C27.889 29.3906 27.539 29.5126 27.1932 29.6184C26.8473 29.7242 26.5055 29.8138 26.1556 29.887H26.1067V31.5756H26.1596C26.6208 31.4931 27.0772 31.3858 27.5268 31.2542H27.5228ZM35.2539 25.0693C35.482 24.6599 35.6884 24.2389 35.8724 23.8079C36.0552 23.372 36.2141 22.9265 36.3484 22.4733C36.4824 22.0187 36.5897 21.5568 36.6699 21.0898V21.0369H34.9935V21.0735C34.9202 21.4316 34.8307 21.7856 34.7208 22.1437C34.6149 22.4934 34.49 22.8371 34.3465 23.1731C34.201 23.5136 34.038 23.8464 33.8582 24.17C33.6823 24.4907 33.4894 24.8017 33.2804 25.1018V25.1344L34.4686 26.3266L34.5011 26.2819C34.781 25.8979 35.0391 25.4985 35.2742 25.0856L35.2539 25.0693ZM36.5275 16.1175C36.4868 15.9344 36.438 15.7513 36.3891 15.5763C36.3403 15.4013 36.2874 15.2264 36.2264 15.0392C36.1653 14.852 36.1043 14.6689 36.0433 14.5061C35.9456 14.2457 35.8358 13.9772 35.7137 13.6923C35.5916 13.4075 35.4777 13.1756 35.3434 12.9111C35.2091 12.6466 35.0708 12.3984 34.9365 12.1665C34.8022 11.9345 34.6476 11.6945 34.4889 11.4544L34.4564 11.4096L33.2519 12.614V12.6425C33.3659 12.8256 33.4798 13.0128 33.5897 13.2041C33.6955 13.3953 33.8053 13.611 33.907 13.8063C34.0088 14.0016 34.1024 14.2132 34.1919 14.4288C34.2814 14.6445 34.375 14.8642 34.4523 15.0717C34.5296 15.2793 34.6313 15.5885 34.7168 15.8611C34.8022 16.1337 34.8633 16.4104 34.9243 16.6993H36.6129V16.6464C36.5804 16.4715 36.5438 16.2924 36.499 16.1012L36.5275 16.1175ZM30.485 7.67427C30.1758 7.49523 29.8462 7.3284 29.5084 7.17378C29.1707 7.01916 28.8411 6.88488 28.4953 6.76688C28.1494 6.64888 27.7913 6.53901 27.4292 6.45357L26.9409 6.3437C26.4594 6.25283 25.973 6.19033 25.4842 6.15653C25.3174 6.15653 25.1505 6.15653 24.9959 6.15653H24.471L23.9664 6.18094L23.4497 6.2257C23.3414 6.23841 23.2364 6.27155 23.1404 6.32336C23.0446 6.37522 22.9602 6.44579 22.8922 6.53088C22.8249 6.6142 22.7738 6.70944 22.7417 6.81164C22.6838 7.00988 22.6997 7.22236 22.7864 7.40978C22.8397 7.50698 22.9116 7.59271 22.998 7.66206C23.0805 7.72744 23.1743 7.77709 23.2747 7.80855C23.3737 7.83728 23.4773 7.84695 23.5799 7.83703L24.0438 7.79634C24.1821 7.79634 24.3286 7.79634 24.4791 7.77599H24.9105C25.2075 7.77599 25.4638 7.80448 25.7568 7.82889C26.0498 7.85331 26.3061 7.9062 26.5706 7.95503L26.9775 8.04455C27.2705 8.11779 27.5553 8.19917 27.832 8.29276C28.1087 8.38635 28.3895 8.49621 28.6458 8.61014C28.9022 8.72407 29.1748 8.85835 29.4352 9.01704C29.6956 9.17573 29.9316 9.30594 30.1676 9.46463L30.2164 9.49719L31.4087 8.3009L31.3639 8.27241C31.0628 8.05676 30.7536 7.86551 30.4362 7.6702L30.485 7.67427Z" fill="#969696"/>
</g>
<defs>
<clipPath id="clip0_64_3660">
<rect width="43.3675" height="50" fill="white"/>
</clipPath>
</defs>
</svg>
