<svg width="48" height="50" viewBox="0 0 48 50" fill="none" xmlns="http://www.w3.org/2000/svg">
<path d="M25.6549 0.748695C25.6386 2.21761 25.7526 3.67838 26.0089 5.13916C26.2164 6.31103 26.5176 7.4707 26.9163 8.61816C28.2998 7.65381 29.7606 6.89697 31.2702 6.44124C32.9059 5.94889 34.5945 5.81461 36.3157 6.15641C36.8244 6.25813 37.3208 6.40055 37.8091 6.57552C41.8821 8.0485 44.6043 11.9466 46.0285 16.7928C47.4241 21.5413 47.5828 27.2217 46.5493 32.3893C46.2523 33.8826 45.8494 35.3394 45.3449 36.731C44.5066 39.0462 43.5057 40.9871 42.3094 42.6107C41.1009 44.2505 39.7011 45.5648 38.0858 46.6105C37.8375 46.7692 37.569 46.932 37.2719 47.0947C34.5091 48.6328 30.3384 49.8901 26.367 49.9919C22.2899 50.0977 18.3917 48.999 16.3165 45.7804C16.227 45.6421 16.1334 45.4875 16.0439 45.3206C15.7957 44.8771 15.5923 44.4499 15.3888 44.0145C14.8273 42.8345 14.2536 41.6178 12.9677 40.5518C12.4795 40.1449 11.9505 39.86 11.3849 39.6891C10.803 39.5142 10.1805 39.4572 9.52536 39.5182C7.57631 39.6973 6.52244 40.4785 5.53367 41.2109C4.78497 41.7643 4.07289 42.2933 3.05971 42.6025C3.0475 42.6066 3.03529 42.6107 3.02309 42.6147C2.89695 42.6514 2.77895 42.6798 2.66501 42.6961C2.5348 42.7165 2.4046 42.7287 2.27439 42.7287C1.54604 42.7287 0.976374 42.395 0.577611 41.6992C0.264297 41.1458 0.0771225 40.3442 0.0282943 39.2741V39.2456H0.0201563C0.0201563 38.8713 0.0160873 38.6678 0.00794929 38.4888C-0.0327408 37.0117 -0.0449479 36.5194 1.46059 35.1562C1.68845 34.9487 1.92038 34.7616 2.15639 34.5866C2.4046 34.4035 2.66094 34.2366 2.92136 34.078C3.36081 33.8135 3.83282 33.5693 4.33738 33.3415C4.81752 33.1217 5.34649 32.9142 5.92022 32.7067C9.84682 31.2907 12.1662 32.076 14.3593 32.8206C15.7103 33.2804 17.0083 33.7199 18.6074 33.5002C20.1943 33.2845 21.5696 32.1045 22.5828 30.5705C23.8076 28.7191 24.4871 26.3794 24.3935 24.5402C24.2389 21.4274 23.0589 18.8761 21.7446 16.0278C20.1333 12.5407 18.3226 8.63037 17.8261 2.68961L17.6919 1.11084C17.6593 0.720212 17.9482 0.378415 18.3388 0.345863C18.3592 0.345863 18.3836 0.341794 18.4039 0.341794L24.9144 -3.33716e-06C25.305 -0.0203484 25.6346 0.280758 25.6549 0.671383C25.6549 0.695798 25.6549 0.724281 25.6549 0.748695ZM38.4886 32.7393C38.9158 32.7393 39.3024 32.9142 39.5831 33.1909C39.8639 33.4717 40.0389 33.8582 40.0389 34.2855C40.0389 34.7127 39.8639 35.0993 39.5831 35.38C39.3024 35.6608 38.9158 35.8358 38.4886 35.8358C38.0613 35.8358 37.6748 35.6608 37.394 35.38C37.1133 35.0993 36.9383 34.7127 36.9383 34.2855C36.9383 33.8582 37.1133 33.4717 37.394 33.1909C37.6707 32.9102 38.0573 32.7393 38.4886 32.7393ZM19.6735 37.4552C20.1007 37.4552 20.4873 37.6302 20.768 37.911C21.0488 38.1917 21.2197 38.5783 21.2197 39.0055C21.2197 39.4328 21.0447 39.8193 20.768 40.1001C20.4873 40.3809 20.1007 40.5518 19.6735 40.5518C19.2462 40.5518 18.8597 40.3768 18.5789 40.1001C18.2982 39.8193 18.1232 39.4328 18.1232 39.0055C18.1232 38.5783 18.2982 38.1917 18.5789 37.911C18.8597 37.6302 19.2462 37.4552 19.6735 37.4552ZM22.713 42.9525C23.1403 42.9525 23.5268 43.1274 23.8076 43.4082C24.0884 43.689 24.2633 44.0755 24.2633 44.5028C24.2633 44.93 24.0884 45.3166 23.8076 45.5973C23.5268 45.8781 23.1403 46.049 22.713 46.049C22.2858 46.049 21.8992 45.874 21.6185 45.5973C21.3377 45.3166 21.1627 44.93 21.1627 44.5028C21.1627 44.0755 21.3377 43.689 21.6185 43.4082C21.8992 43.1234 22.2858 42.9525 22.713 42.9525ZM36.8691 39.8478C37.2964 39.8478 37.6829 40.0228 37.9637 40.3035C38.2444 40.5843 38.4153 40.9709 38.4153 41.3981C38.4153 41.8254 38.2404 42.2119 37.9637 42.4927C37.6829 42.7734 37.2964 42.9443 36.8691 42.9443C36.4419 42.9443 36.0553 42.7694 35.7746 42.4927C35.4938 42.2119 35.3229 41.8254 35.3229 41.3981C35.3229 40.9709 35.4979 40.5843 35.7746 40.3035C36.0553 40.0228 36.4419 39.8478 36.8691 39.8478ZM30.729 42.7572C31.1562 42.7572 31.5428 42.9321 31.8235 43.2129C32.1043 43.4936 32.2793 43.8802 32.2793 44.3075C32.2793 44.7347 32.1043 45.1213 31.8235 45.402C31.5428 45.6828 31.1562 45.8577 30.729 45.8577C30.3017 45.8577 29.9152 45.6828 29.6344 45.402C29.3537 45.1213 29.1787 44.7347 29.1787 44.3075C29.1787 43.8802 29.3537 43.4936 29.6344 43.2129C29.9152 42.9321 30.3017 42.7572 30.729 42.7572ZM25.8828 38.2975C26.31 38.2975 26.6966 38.4725 26.9774 38.7533C27.2581 39.034 27.4331 39.4206 27.4331 39.8478C27.4331 40.2751 27.2581 40.6616 26.9774 40.9424C26.6966 41.2231 26.31 41.394 25.8828 41.394C25.4555 41.394 25.069 41.2191 24.7882 40.9424C24.5075 40.6616 24.3325 40.2751 24.3325 39.8478C24.3325 39.4206 24.5075 39.034 24.7882 38.7533C25.0649 38.4725 25.4515 38.2975 25.8828 38.2975ZM25.1056 32.8044C25.5329 32.8044 25.9194 32.9793 26.2002 33.2601C26.4809 33.5408 26.6518 33.9274 26.6518 34.3547C26.6518 34.7819 26.4769 35.1685 26.2002 35.4492C25.9194 35.73 25.5329 35.9009 25.1056 35.9009C24.6784 35.9009 24.2918 35.7259 24.011 35.4492C23.7303 35.1725 23.5594 34.7819 23.5594 34.3547C23.5594 33.9274 23.7343 33.5408 24.011 33.2601C24.2877 32.9793 24.6784 32.8044 25.1056 32.8044ZM32.2182 35.1318C32.6455 35.1318 33.032 35.3068 33.3128 35.5835C33.5936 35.8643 33.7645 36.2508 33.7645 36.6781C33.7645 37.1053 33.5895 37.4919 33.3128 37.7726C33.0361 38.0534 32.6455 38.2283 32.2182 38.2283C31.791 38.2283 31.4044 38.0534 31.1237 37.7726C30.8429 37.4919 30.672 37.1053 30.672 36.6781C30.672 36.2508 30.847 35.8643 31.1237 35.5835C31.4004 35.3027 31.7869 35.1318 32.2182 35.1318ZM25.5654 27.0833C26.6762 27.9256 28.0231 28.7028 29.3374 28.894C30.3343 29.0365 31.3231 28.8289 32.1775 28.007C35.0543 25.236 37.276 26.4201 39.5221 27.6164C41.1497 28.4831 42.7977 29.362 44.6938 28.0762C44.881 27.95 45.06 27.7832 45.235 27.596C45.414 27.4048 45.5931 27.1851 45.7721 26.9613C45.9145 23.5799 45.5524 20.1904 44.6694 17.1997C43.3633 12.7645 40.9259 9.21631 37.3248 7.91422C36.9179 7.76774 36.4907 7.64567 36.035 7.55615C34.5579 7.25911 33.0931 7.37711 31.673 7.80436C30.0576 8.28857 28.487 9.17562 27.0099 10.3068C26.9611 10.3434 26.9041 10.376 26.8431 10.4004C26.4809 10.5428 26.07 10.3678 25.9275 10.0057C25.3213 8.47575 24.8899 6.93359 24.6173 5.38737C24.3895 4.08935 24.2674 2.77913 24.247 1.4567L19.1689 1.71712L19.2422 2.57161C19.7182 8.26823 21.472 12.0565 23.0345 15.4338C24.4098 18.4082 25.6427 21.0775 25.8136 24.471C25.8543 25.2848 25.7648 26.1719 25.5654 27.0833ZM45.6093 29.1504C45.5687 29.1789 45.528 29.2114 45.4832 29.2399C42.8831 31.0018 40.8567 29.9235 38.8548 28.8574C37.0644 27.9053 35.2944 26.9613 33.1541 29.0242C31.9375 30.1961 30.5377 30.4972 29.1339 30.2938C27.726 30.0903 26.3344 29.366 25.1504 28.5319C24.8086 29.5166 24.3406 30.485 23.7669 31.3517C22.5462 33.1991 20.8413 34.6232 18.8027 34.8999C16.874 35.1644 15.4214 34.672 13.9118 34.1593C11.9424 33.492 9.86309 32.7881 6.40036 34.0332C5.89174 34.2163 5.39939 34.4116 4.92331 34.6273C4.47165 34.8307 4.04848 35.0505 3.65785 35.2865C3.42185 35.4289 3.20212 35.5754 2.99867 35.7218C2.78301 35.8765 2.5877 36.0352 2.41273 36.1979C1.38734 37.1256 1.39548 37.4552 1.42396 38.4481C1.4321 38.7207 1.44024 39.0299 1.44024 39.2415C1.47686 40.0635 1.603 40.6453 1.80238 40.9993C1.92445 41.215 2.08314 41.3167 2.27032 41.3167C2.31915 41.3167 2.37204 41.3127 2.43308 41.3005C2.49411 41.2923 2.55108 41.276 2.61212 41.2598C2.62025 41.2557 2.62839 41.2557 2.63653 41.2516C3.41778 41.0116 4.03627 40.5558 4.68324 40.0757C5.82663 39.2293 7.04734 38.326 9.39109 38.1104C10.2334 38.033 11.035 38.1063 11.7837 38.3301C12.5283 38.5539 13.2241 38.9323 13.867 39.4613C15.3969 40.7308 16.0399 42.0858 16.6624 43.4041C16.8618 43.8273 17.0612 44.2423 17.2728 44.6248C17.3419 44.7469 17.4152 44.873 17.5006 45.0033C19.2625 47.7336 22.6968 48.6613 26.3263 48.5677C30.0657 48.4701 33.9842 47.29 36.5761 45.8455C36.8284 45.7072 37.0726 45.5607 37.3126 45.4061C38.7856 44.458 40.0592 43.2576 41.1619 41.7603C42.2768 40.2466 43.2168 38.4196 44.0102 36.2345C44.4822 34.9284 44.8647 33.5368 45.1536 32.0964C45.353 31.1401 45.5036 30.1473 45.6093 29.1504Z" fill="#969696"/>
</svg>
