<svg width="50" height="41" viewBox="0 0 50 41" fill="none" xmlns="http://www.w3.org/2000/svg">
<path d="M18.3101 18.3882V19.6402C18.3101 20.0724 18.6253 20.4226 19.0143 20.4226C19.4032 20.4226 19.7185 20.0724 19.7185 19.6402V18.3882C19.7185 17.956 19.4032 17.6057 19.0143 17.6057C18.6253 17.6057 18.3101 17.956 18.3101 18.3882Z" fill="#969696"/>
<path d="M30.2817 18.3882V19.6402C30.2817 20.0724 30.5971 20.4226 30.986 20.4226C31.3749 20.4226 31.6902 20.0724 31.6902 19.6402V18.3882C31.6902 17.956 31.3749 17.6057 30.986 17.6057C30.5971 17.6057 30.2817 17.956 30.2817 18.3882Z" fill="#969696"/>
<path d="M26.1118 19.2558C25.5231 19.8728 24.4765 19.8723 23.8881 19.2558C23.6082 18.9626 23.121 18.9321 22.7997 19.1875C22.4786 19.4431 22.4451 19.8881 22.725 20.1814C23.9287 21.4426 26.0723 21.4414 27.2749 20.1814C27.5548 19.8881 27.5213 19.4431 27.2002 19.1875C26.879 18.932 26.3917 18.9625 26.1118 19.2558Z" fill="#969696"/>
<path d="M47.8275 2.15153C43.8108 1.1998 39.6512 1.99419 36.3143 4.32774C35.8045 3.86855 35.3046 3.54645 34.3854 3.51232C34.1605 2.90669 33.7195 2.39091 33.1332 2.07035C30.6559 0.715921 27.8441 0 25.0015 0C22.7268 0 20.4679 0.453212 18.369 1.34296C17.9974 1.50058 17.8255 1.92575 17.9851 2.29267C18.1448 2.6596 18.5754 2.82927 18.9471 2.67174C20.8906 1.84775 22.9563 1.44612 25.0015 1.44612C27.5965 1.44612 30.163 2.09937 32.4235 3.33542C32.7915 3.53662 33.0372 3.90075 33.0806 4.30952C33.1197 4.6776 33.434 4.95719 33.809 4.95719L34.1391 4.95497C34.597 4.95497 34.884 5.00279 35.1817 5.26395C37.15 6.99158 38.6399 9.20587 39.4904 11.667C39.5528 11.8478 39.5377 12.0393 39.4589 12.2061H39.2702C38.2134 12.2061 37.2198 11.7998 36.4726 11.0621L31.682 6.33266C31.3959 6.05018 30.9321 6.05023 30.6462 6.33266C26.8097 10.1202 21.7087 12.2061 16.2829 12.2061H10.5412C10.4623 12.0394 10.4469 11.8477 10.5091 11.6676C11.5875 8.54634 13.7128 5.81831 16.4934 3.98617C16.8298 3.76443 16.9205 3.31546 16.696 2.98333C16.4714 2.65121 16.0167 2.56155 15.6802 2.78329C14.9752 3.24778 14.3093 3.76539 13.6866 4.32822C10.3497 1.99419 6.18949 1.19951 2.17278 2.15153C0.62268 2.51885 -0.315993 4.07554 0.097777 5.59995L1.38772 10.3528C1.88313 12.1782 4.02893 13.0284 5.64951 12.0154C6.81597 11.2863 8.0759 10.758 9.40901 10.4377C9.30742 10.6897 9.21134 10.9439 9.12259 11.2009C9.00687 11.5358 8.97473 11.8952 9.03771 12.2582C6.86718 12.5876 5.19973 14.4439 5.19973 16.6774C5.19973 19.1293 7.20949 21.1258 9.68811 21.1476C11.1387 25.8476 14.753 29.6248 19.3808 31.3436C17.3356 33.0096 16.1127 35.5177 16.1127 38.19V39.4178C16.1127 39.8172 16.4406 40.1408 16.8451 40.1408H33.1551C33.5597 40.1408 33.8875 39.8172 33.8875 39.4178V38.19C33.8875 35.523 32.6638 33.0107 30.6195 31.344C31.5817 30.9879 32.5108 30.5415 33.3922 30.0045C33.7363 29.7948 33.8432 29.3493 33.6307 29.0094C33.4182 28.6697 32.9669 28.5642 32.6228 28.774C30.3363 30.1672 27.7004 30.9037 24.9999 30.9037C16.9833 30.9037 10.4614 24.465 10.4614 16.5508C10.4614 15.5757 10.5627 14.6035 10.7603 13.6522H16.2829C21.7023 13.6522 27.0493 11.6517 31.1555 7.85797L35.4369 12.0847C36.4537 13.0884 37.8032 13.6437 39.24 13.6514C39.4375 14.6023 39.5388 15.5749 39.5388 16.5508C39.5387 20.5511 37.8269 24.401 34.8423 27.1131C34.5447 27.3836 34.5255 27.841 34.7995 28.1348C35.0739 28.4291 35.5372 28.4472 35.8343 28.1772C37.9482 26.2563 39.4808 23.8163 40.3057 21.1478C42.7871 21.1293 44.8002 19.1314 44.8002 16.6774C44.8002 14.4438 43.1326 12.5876 40.9621 12.258C41.0244 11.8982 40.9938 11.5395 40.8769 11.2005C40.7881 10.9433 40.6908 10.6893 40.5893 10.4372C41.9229 10.7575 43.1835 11.2857 44.3504 12.0153C45.9726 13.029 48.1176 12.1755 48.6122 10.3527L49.9023 5.59984C50.3156 4.07718 49.3789 2.51923 47.8275 2.15153ZM6.66457 16.6774C6.66457 15.1666 7.79201 13.9111 9.25986 13.6877C9.08488 14.6301 8.99651 15.5895 8.99651 16.5509C8.99651 17.6197 9.1052 18.6638 9.31108 19.6737C7.81847 19.4718 6.66457 18.2055 6.66457 16.6774ZM19.353 38.19V38.6949H17.5774V38.19C17.5774 37.9061 17.5949 37.6245 17.6272 37.346C18.1968 37.5428 18.775 37.7191 19.3589 37.8694C19.355 37.9763 19.353 38.0834 19.353 38.19ZM32.4226 38.19V38.6949H30.6471V38.19C30.6471 38.0834 30.6451 37.9763 30.6412 37.8694C31.2251 37.7191 31.8033 37.5428 32.3727 37.3461C32.4051 37.6245 32.4226 37.9062 32.4226 38.19ZM21.1281 31.8813C22.3685 32.1866 23.6652 32.3499 24.9999 32.3499C26.3135 32.3499 27.6131 32.1909 28.8721 31.8817C30.4009 32.8179 31.5211 34.2637 32.0611 35.9224C31.2904 36.1962 30.4999 36.4266 29.7027 36.608C29.3416 36.6903 29.0995 37.0258 29.1391 37.3897C29.1677 37.6536 29.1822 37.9229 29.1822 38.19V38.6949H20.8179V38.19C20.8179 37.9229 20.8324 37.6537 20.8611 37.3897C20.9006 37.0258 20.6585 36.6902 20.2974 36.608C19.5 36.4265 18.7092 36.1959 17.938 35.9221C18.4775 34.2623 19.5979 32.8181 21.1281 31.8813ZM10.1712 8.81154C8.2707 9.11391 6.48773 9.77966 4.86594 10.7935C4.08538 11.2814 3.04358 10.8664 2.80266 9.97847L1.51272 5.22568C1.31409 4.49424 1.76037 3.73647 2.51457 3.55773C6.03516 2.72323 9.67793 3.38401 12.6342 5.36702C11.6702 6.40667 10.8407 7.56588 10.1712 8.81154ZM40.7405 13.6877C42.2081 13.9113 43.3355 15.1668 43.3355 16.6774C43.3355 18.2072 42.1791 19.4745 40.6841 19.6743C40.894 18.6525 41.0035 17.6066 41.0035 16.5509C41.0035 15.589 40.9152 14.6296 40.7405 13.6877ZM48.4874 5.22568L47.1974 9.97847C46.9557 10.8686 45.9121 11.2802 45.1342 10.7935C43.5129 9.78 41.7304 9.1143 39.8306 8.81176C39.1625 7.56532 38.3346 6.40589 37.3686 5.36518C40.3243 3.38362 43.9657 2.72352 47.4856 3.55764C48.2363 3.7356 48.6869 4.49067 48.4874 5.22568Z" fill="#969696"/>
</svg>
