<svg width="40" height="48" viewBox="0 0 40 48" fill="none" xmlns="http://www.w3.org/2000/svg">
<path d="M39.9398 12.8483L39.9389 12.8449C39.7903 11.8284 34.9046 7.71411 30.46 7.71411C25.622 7.71411 21.141 13.5906 19.8857 13.7141C18.739 13.7183 18.7433 15.4283 19.89 15.4283C23.418 15.4283 27.5489 4.79641 36.7889 12.0324C35.6951 12.3015 34.9263 12.9906 34.5266 14.0569C31.764 11.7075 27.3187 13.0352 26.1068 15.9649C25.6828 17.0046 27.2726 17.6518 27.7157 16.6112C28.7052 14.3809 32.6606 13.4192 34.4346 16.6481C35.894 19.3009 40.5827 17.1906 39.9398 12.8483ZM35.9653 15.8355C35.9931 14.2258 36.6325 13.4663 38.2423 13.6395C38.1875 15.7926 36.3823 16.5761 35.9653 15.8355Z" fill="#2F618A"/>
<path d="M29.5138 16.9902C29.5399 17.0202 32.1253 20.009 32.1253 23.9999C32.1253 32.5387 25.1588 46.2854 20.8316 46.2854C17.7554 46.2854 3.28733 34.6584 1.86172 25.4236C18.658 32.4727 12.3787 4.4494 28.017 4.29255C28.6355 4.29083 30.386 4.28569 31.3286 4.28569C32.0045 4.28569 33.1391 4.61997 33.1391 6.85709C33.1391 7.99108 34.8766 7.99108 34.8766 6.85709C34.8766 3.69426 32.9653 2.57141 31.3286 2.57141C30.2887 2.57141 28.7606 2.57656 27.7859 2.57912V2.59112C23.8679 2.69056 21.1348 4.36197 19.0941 6.72856V4.30111C19.1167 3.07369 18.0238 1.71428 15.6192 1.71428C14.614 1.71428 13.8148 1.95341 13.2179 2.41027C12.6697 1.4357 11.2215 0 9.92801 0C7.07762 0 4.30115 3.31369 5.98477 5.54311C7.29222 7.27622 7.65709 9.01621 7.75962 9.82281C5.96479 10.9422 0 15.3145 0 23.9999C0 34.2752 16.4974 47.9997 20.8316 47.9997C26.9597 47.9997 33.8627 32.3432 33.8627 23.9999C33.8627 19.3765 30.9507 16.0088 30.8273 15.8673C30.0724 15.0093 28.7624 16.1339 29.5138 16.9902ZM14.3377 15.4593C13.5107 13.1819 11.9539 10.0859 9.47454 9.52108C9.36594 8.71455 9.06361 7.35769 8.24875 5.87054C9.90974 5.51139 10.9635 4.45711 11.4848 2.90912C12.2875 3.95398 12.172 5.22254 12.1442 8.57135C12.1442 9.70534 13.8816 9.70534 13.8816 8.57135V6.01282C15.1188 6.33767 16.2828 6.24254 17.3566 5.79425V9.11654C16.1239 11.1282 15.1865 13.3619 14.3377 15.4593ZM17.2124 3.93769C15.8711 4.74168 14.6036 4.48369 13.9329 4.23597C14.3273 3.11912 16.692 3.26312 17.2124 3.93769ZM10.0045 1.72628C9.73947 3.27341 8.87161 4.20597 7.25056 4.27711C6.95949 3.43712 8.45028 1.57285 10.0045 1.72628ZM8.87768 11.1548C11.1633 11.4231 12.8035 16.0225 13.3031 17.9905C10.7047 24.1833 8.48068 26.7624 1.76094 23.4916C2.00332 15.6265 7.69969 11.8491 8.87768 11.1548Z" fill="#2F618A"/>
<path d="M21.7 17.9999V22.9155L18.4526 28.523L14.7752 30.7001L12.6259 29.2867C12.4026 29.1401 12.1229 29.1032 11.8692 29.1864L9.26305 30.0435C8.16925 30.4035 8.72698 32.0304 9.81291 31.6695L12.016 30.9452L13.7596 32.0921L13.0394 34.9343C12.7614 36.0323 14.4451 36.4532 14.7257 35.3509L15.5075 32.267L18.2267 30.6572V39.4283C18.2267 40.5623 19.9642 40.5623 19.9642 39.4283V34.6403L22.825 37.4629C23.6294 38.2652 24.8674 37.0558 24.0516 36.2509L19.9624 32.2164V29.3707L22.9153 24.2724L25.062 25.331L24.3236 28.9747C24.0986 30.0907 25.8013 30.4327 26.0263 29.3115L26.5771 26.5961L28.0357 28.0352C28.8506 28.8358 30.0764 27.6238 29.2641 26.8224L26.6579 24.251C26.2869 23.9793 24.8378 23.3244 23.4374 22.613V17.9999C23.4374 16.8659 21.7 16.8659 21.7 17.9999Z" fill="#2F618A"/>
</svg>
