<svg width="50" height="50" viewBox="0 0 50 50" fill="none" xmlns="http://www.w3.org/2000/svg">
<mask id="path-1-inside-1_64_3662" fill="white">
<path d="M18.9112 23.6851L11.2275 24.7078V25.2102H11.2504C17.5967 25.2102 12.634 25.202 19.2793 25.202L18.9112 23.6851Z"/>
</mask>
<path d="M18.9112 23.6851L20.3689 23.3314L20.0508 22.0201L18.7133 22.1982L18.9112 23.6851ZM11.2275 24.7078L11.0296 23.2209L9.72754 23.3942V24.7078H11.2275ZM11.2275 25.2102H9.72754V26.7102H11.2275V25.2102ZM11.2504 25.2102L11.2504 23.7102H11.2504V25.2102ZM19.2793 25.202V26.702H21.1867L20.737 24.8484L19.2793 25.202ZM18.7133 22.1982L11.0296 23.2209L11.4255 26.1947L19.1091 25.1719L18.7133 22.1982ZM9.72754 24.7078V25.2102H12.7275V24.7078H9.72754ZM11.2275 26.7102H11.2504V23.7102H11.2275V26.7102ZM11.2504 26.7102C14.4231 26.7102 14.7728 26.7082 15.1607 26.7061C15.5393 26.7041 15.956 26.702 19.2793 26.702V23.702C15.9572 23.702 15.5326 23.7041 15.1447 23.7062C14.766 23.7082 14.4239 23.7102 11.2504 23.7102L11.2504 26.7102ZM20.737 24.8484L20.3689 23.3314L17.4535 24.0387L17.8216 25.5557L20.737 24.8484Z" fill="#969696" mask="url(#path-1-inside-1_64_3662)"/>
<path d="M18.2377 3.41473C18.2377 4.88642 17.0446 6.07946 15.5729 6.07946C14.1012 6.07946 12.9082 4.88642 12.9082 3.41473C12.9082 1.94304 14.1012 0.75 15.5729 0.75C17.0446 0.75 18.2377 1.94304 18.2377 3.41473Z" stroke="#969696" stroke-width="1.5"/>
<path d="M13.5852 21.9185C13.5292 21.9127 13.473 21.9058 13.4167 21.8977C13.4166 21.8977 13.4165 21.8977 13.4165 21.8977C13.4164 21.8977 13.4163 21.8977 13.4162 21.8976L9.15309 21.2853C9.15373 21.2907 9.15441 21.2961 9.15513 21.3015L13.5852 21.9185ZM13.5852 21.9185L10.4987 22.3294L10.498 22.3295C9.84479 22.4171 9.24246 21.9573 9.15514 21.3015L13.5852 21.9185ZM23.154 22.2926C22.5198 22.7193 21.9525 23.2261 21.4639 23.799L20.9346 21.617L20.7756 20.9613L20.1068 21.0504L15.4601 21.6689C16.6579 21.2078 17.6041 20.1957 17.9541 18.9234C18.7098 18.8226 19.3096 18.7425 19.787 18.6787C20.4957 18.5841 20.9344 18.5254 21.2125 18.4891C21.4706 18.4554 21.5757 18.4429 21.6267 18.4382C21.6357 18.4373 21.6377 18.437 21.6397 18.4368C21.6431 18.4366 21.6466 18.4371 21.6865 18.4371C22.2302 18.4371 22.7158 18.8097 22.8472 19.3515L23.5061 22.0687C23.3873 22.14 23.2699 22.2146 23.154 22.2926L23.154 22.2926Z" stroke="#969696" stroke-width="1.5"/>
<path d="M37.3935 30.9123L37.3824 31.6084C37.3813 31.6618 37.3812 31.6618 37.3811 31.6618L37.3807 31.6618L37.3797 31.6618L37.3775 31.6617L37.3696 31.6615C37.3678 31.6614 37.3581 31.6611 37.3456 31.6602L37.3454 31.6602C37.3408 31.6599 37.3233 31.6587 37.3011 31.6557C37.2919 31.6545 37.2638 31.6508 37.2285 31.6426C37.2096 31.6379 37.1604 31.6233 37.1304 31.6126C37.08 31.5912 36.9334 31.5005 36.8469 31.4203C36.7751 31.3107 36.7323 31.1134 36.7271 30.9155C36.7225 30.7417 36.747 30.5675 36.8064 30.4517C36.8973 30.3542 37.0599 30.2429 37.1183 30.2164C37.1961 30.1851 37.2632 30.1743 37.2725 30.1728L37.2734 30.1726C37.3086 30.1667 37.3369 30.1647 37.3399 30.1644C37.355 30.1633 37.3667 30.1628 37.3685 30.1628L37.3687 30.1628C37.3745 30.1626 37.3777 30.1625 37.3741 30.1626C37.3612 30.1628 37.3198 30.1633 37.2077 30.1638C36.9867 30.1649 36.5049 30.1664 35.4632 30.1678C33.3804 30.1708 29.0623 30.1737 20.1218 30.1737C19.6404 30.1737 19.25 29.7834 19.25 29.3019C19.25 28.8205 19.6404 28.4302 20.1218 28.4302H36.2401L36.3109 26.9335L24.1113 25.7767C25.0397 24.7836 26.3615 24.1877 27.7987 24.1878H27.7988L32.1046 24.1878L35.056 24.1877L36.0326 24.1878L36.3088 24.1878L36.383 24.1878L36.4078 24.1878C37.686 24.1949 38.7296 25.2592 38.723 26.5495L38.7111 28.8663C38.7073 29.5965 38.1027 30.1709 37.4056 30.162L37.3935 30.9123ZM22.082 26.037L21.5882 26.9302L36.4128 22.6878C36.3814 22.6877 28.7182 22.6878 27.874 22.6878L27.7989 22.6878C27.7989 22.6878 27.7989 22.6878 27.7989 22.6878C27.7988 22.6878 27.7988 22.6878 27.7988 22.6878C25.3896 22.6876 23.2158 23.9862 22.082 26.037Z" stroke="#969696" stroke-width="1.5"/>
<path d="M15.9662 29.6438L15.9662 29.6438C15.9809 29.811 16.0061 29.9748 16.041 30.1348H16.0283H16.0056H15.9828H15.9597H15.9365H15.913H15.8894H15.8656H15.8416H15.8174H15.7931H15.7685H15.7438H15.7189H15.6938H15.6685H15.6431H15.6175H15.5917H15.5658H15.5396H15.5133H15.4869H15.4602H15.4334H15.4064H15.3793H15.352H15.3245H15.2969H15.2691H15.2412H15.2131H15.1848H15.1564H15.1278H15.0991H15.0702H15.0412H15.012H14.9826H14.9532H14.9235H14.8937H14.8638H14.8338H14.8035H14.7732H14.7427H14.7121H14.6813H14.6504H14.6193H14.5882H14.5568H14.5254H14.4938H14.4621H14.4303H14.3983H14.3662H14.334H14.3016H14.2692H14.2366H14.2039H14.171H14.1381H14.105H14.0718H14.0385H14.0051H13.9715H13.9379H13.9041H13.8702H13.8362H13.8022H13.768H13.7337H13.6992H13.6647H13.6301H13.5954H13.5606H13.5256H13.4906H13.4555H13.4203H13.385H13.3496H13.3141H13.2785H13.2428H13.2071H13.1712H13.1353H13.0992H13.0631H13.0269H12.9906H12.9543H12.9178H12.8813H12.8447H12.808H12.7712H12.7344H12.6975H12.6605H12.6235H12.5864H12.5492H12.5119H12.4746H12.4372H12.3997H12.3622H12.3246H12.287H12.2493H12.2115H12.1737H12.1358H12.0978H12.0598H12.0218H11.9837H11.9455H11.9073H11.8691H11.8308H11.7924H11.754H11.7156H11.6771H11.6386H11.6H11.5614H11.5227H11.484H11.4453H11.4066H11.3678H11.3289H11.2901H11.2512H11.2122H11.1733H11.1343H11.0953H11.0562H11.0172H10.9781H10.939H10.8998H10.8607H10.8215H10.7823H10.7431H10.7039H10.6646H10.6254H10.5861H10.5468H10.5075H10.4682H10.4289H10.3896H10.3503H10.311H10.2716H10.2323H10.193H10.1536H10.1143H10.075H10.0356H9.99629H9.95697H9.91765H9.87834H9.83904H9.79974H9.76046H9.72119H9.68193H9.64268H9.60345H9.56424H9.52504H9.48586H9.4467H9.40757H9.36845H9.32935H9.29028H9.25124H9.21222H9.17322H9.13426H9.09532H9.05642H9.01754H8.9787H8.9399H8.90112H8.86239H8.82369H8.78503H8.74641H8.70783H8.66929H8.63079H8.59234H8.55393H8.51557H8.47725H8.43898H8.40077H8.3626H8.32448H8.28642H8.24841H8.21046H8.17256H8.13472H8.09694H8.05921H8.02155H7.98395H7.94641H7.90894H7.87153H7.83418H7.79691H7.7597H7.72256H7.68549H7.64849H7.61157H7.57472H7.53794H7.50125H7.46462H7.42808H7.39161H7.35523H7.31893H7.28271H7.24657H7.21052H7.17456H7.13868H7.10289H7.06719H7.03158H6.99606H6.96064H6.9253H6.89007H6.85493H6.81988H6.78494H6.75009H6.71535H6.6807H6.64616H6.61173H6.57739H6.54317H6.50905H6.47504H6.44114H6.40735H6.37367H6.3401H6.30665H6.27331H6.24009H6.20698H6.174H6.14113H6.10839H6.07576H6.04326H6.01088H5.97863H5.9465H5.9145H5.88263H5.85089H5.81928H5.7878H5.75645H5.72524H5.69416H5.66322H5.63242H5.60175H5.57122H5.54084H5.51059H5.48049H5.45053H5.42072H5.39105H5.36153H5.33216H5.30294H5.27386H5.24494H5.21618H5.18756H5.15911H5.1308H5.10266H5.07467H5.04684H5.01918H4.99167H4.96433H4.93715H4.91014H4.88329H4.85661H4.8301H4.80376H4.77759H4.75159H4.72576H4.70011H4.67463H4.64932H4.6242H4.59925H4.57449H4.5499H4.52549H4.50127H4.47723H4.45338H4.42971H4.40623H4.38294H4.35984H4.33693H4.31421H4.29168H4.26935H4.24721H4.22527H4.20352H4.18198H4.16063H4.13949H4.11854H4.0978H4.07726H4.05693H4.0368H4.01688H3.99717H3.97767H3.95838H3.9393H3.92043H3.90178H3.88334H3.86512H3.84712H3.82933H3.81177H3.79442H3.7773H3.7604H3.74372H3.72727H3.71104H3.69504H3.67927H3.66373H3.64842H3.63334H3.6185H3.60389H3.58951H3.57537H3.56147H3.5478H3.53438H3.52119H3.50825H3.49555H3.4831H3.47088H3.45892H3.4472H3.43573H3.42451H3.41354H3.40283H3.39236H3.38215H3.3722H3.3625H3.35306H3.34387H3.33495H3.32629H3.31788H3.30975H3.30187H3.29426H3.28692H3.27984H3.27304H3.2665H3.26023H3.25423H3.24851H3.24306H3.23789H3.23299H3.22837H3.22403H3.21997H3.21618H3.21268H3.20947H3.20653C2.54588 30.1348 2.01025 29.5991 2.01025 28.9385C2.01025 28.2778 2.54592 27.7422 3.20653 27.7422H3.21088H3.21552H3.22044H3.22566H3.23117H3.23696H3.24304H3.2494H3.25605H3.26297H3.27018H3.27767H3.28544H3.29349H3.30181H3.31041H3.31929H3.32843H3.33785H3.34754H3.3575H3.36772H3.37822H3.38898H3.4H3.41129H3.42285H3.43466H3.44673H3.45907H3.47166H3.4845H3.49761H3.51097H3.52458H3.53844H3.55255H3.56692H3.58153H3.59639H3.6115H3.62685H3.64244H3.65828H3.67436H3.69068H3.70725H3.72404H3.74108H3.75835H3.77586H3.7936H3.81157H3.82977H3.8482H3.86687H3.88576H3.90487H3.92421H3.94378H3.96357H3.98358H4.00381H4.02426H4.04493H4.06582H4.08692H4.10824H4.12977H4.15152H4.17347H4.19564H4.21801H4.2406H4.26339H4.28638H4.30958H4.33299H4.35659H4.3804H4.4044H4.42861H4.45301H4.47761H4.5024H4.52739H4.55257H4.57794H4.6035H4.62926H4.6552H4.68132H4.70764H4.73413H4.76081H4.78768H4.81472H4.84195H4.86935H4.89693H4.92469H4.95262H4.98073H5.00901H5.03746H5.06608H5.09487H5.12384H5.15296H5.18226H5.21172H5.24134H5.27112H5.30107H5.33118H5.36144H5.39186H5.42244H5.45318H5.48407H5.51511H5.54631H5.57766H5.60915H5.6408H5.67259H5.70453H5.73661H5.76884H5.80121H5.83372H5.86637H5.89916H5.93209H5.96516H5.99836H6.0317H6.06517H6.09877H6.13251H6.16637H6.20036H6.23448H6.26873H6.3031H6.3376H6.37222H6.40696H6.44182H6.4768H6.5119H6.54712H6.58245H6.6179H6.65346H6.68913H6.72492H6.76081H6.79682H6.83293H6.86915H6.90547H6.9419H6.97843H7.01506H7.0518H7.08863H7.12557H7.1626H7.19972H7.23695H7.27426H7.31167H7.34917H7.38676H7.42444H7.46221H7.50006H7.538H7.57602H7.61413H7.65232H7.69059H7.72895H7.76738H7.80588H7.84447H7.88313H7.92186H7.96067H7.99954H8.03849H8.07751H8.1166H8.15575H8.19497H8.23426H8.2736H8.31301H8.35249H8.39202H8.43161H8.47126H8.51096H8.55072H8.59054H8.63041H8.67033H8.7103H8.75032H8.79039H8.8305H8.87067H8.91087H8.95113H8.99142H9.03176H9.07213H9.11255H9.153H9.19349H9.23402H9.27458H9.31517H9.3558H9.39645H9.43714H9.47786H9.5186H9.55937H9.60016H9.64098H9.68183H9.72269H9.76357H9.80448H9.8454H9.88634H9.92729H9.96826H10.0092H10.0502H10.0912H10.1323H10.1733H10.2143H10.2554H10.2964H10.3375H10.3785H10.4196H10.4606H10.5017H10.5427H10.5838H10.6248H10.6659H10.7069H10.7479H10.789H10.83H10.871H10.912H10.9529H10.9939H11.0348H11.0758H11.1167H11.1576H11.1984H11.2393H11.2801H11.3209H11.3617H11.4024H11.4432H11.4839H11.5245H11.5652H11.6058H11.6463H11.6869H11.7274H11.7678H11.8083H11.8487H11.889H11.9293H11.9696H12.0098H12.05H12.0901H12.1302H12.1702H12.2102H12.2502H12.2901H12.3299H12.3697H12.4094H12.4491H12.4887H12.5282H12.5677H12.6072H12.6465H12.6858H12.7251H12.7642H12.8034H12.8424H12.8814H12.9203H12.9591H12.9979H13.0366H13.0752H13.1137H13.1522H13.1905H13.2288H13.267H13.3052H13.3432H13.3812H13.4191H13.4569H13.4946H13.5322H13.5698H13.6072H13.6445H13.6818H13.719H13.756H13.793H13.8298H13.8666H13.9033H13.9399H13.9763H14.0127H14.0489H14.0851H14.1211H14.1571H14.1929H14.2286H14.2642H14.2997H14.3351H14.3703H14.4054H14.4405H14.4754H14.5102H14.5448H14.5794H14.6138H14.6481H14.6822H14.7163H14.7502H14.7839H14.8176H14.8511H14.8845H14.9177H14.9509H14.9838H15.0167H15.0494H15.0819H15.1144H15.1466H15.1788H15.2107H15.2426H15.2743H15.3058H15.3372H15.3685H15.3996H15.4305H15.4613H15.4919H15.5224H15.5527H15.5829H15.6129H15.6427H15.6724H15.7019H15.7313H15.7605H15.7895H15.8183H15.847H15.8755H15.9039H15.932H15.96H15.9878H16.0155H16.043H16.0702H16.0973H16.1243H16.151H16.1776H16.204H16.2301H16.2562H16.2771C16.0234 28.3207 15.9069 28.9696 15.9662 29.6438Z" stroke="#969696" stroke-width="1.5"/>
<path d="M2.02855 35.9676L2.03562 35.3737L1.45926 35.2307C1.0504 35.1292 0.75 34.761 0.75 34.325C0.75 33.8086 1.16874 33.3899 1.68515 33.3899H1.69324H1.70229H1.71231H1.72328H1.73521H1.74809H1.76191H1.77668H1.79238H1.80902H1.82659H1.84509H1.86451H1.88485H1.90611H1.92828H1.95136H1.97534H2.00022H2.026H2.05267H2.08023H2.10868H2.13801H2.16822H2.1993H2.23125H2.26407H2.29775H2.33229H2.36768H2.40393H2.44103H2.47896H2.51774H2.55736H2.5978H2.63908H2.68118H2.7241H2.76784H2.81239H2.85776H2.90392H2.95089H2.99866H3.04723H3.09658H3.14672H3.19765H3.24935H3.30183H3.35508H3.4091H3.46388H3.51943H3.57573H3.63278H3.69058H3.74913H3.80842H3.86845H3.92921H3.9907H4.05292H4.11586H4.17952H4.24389H4.30898H4.37477H4.44126H4.50846H4.57635H4.64494H4.71421H4.78416H4.8548H4.92612H4.99811H5.07076H5.14409H5.21807H5.29272H5.36801H5.44396H5.52056H5.59779H5.67567H5.75418H5.83333H5.9131H5.9935H6.07451H6.15614H6.23839H6.32124H6.4047H6.48876H6.57342H6.65867H6.74451H6.83094H6.91795H7.00554H7.0937H7.18243H7.27173H7.3616H7.45202H7.543H7.63453H7.72661H7.81923H7.9124H8.0061H8.10034H8.1951H8.29039H8.3862H8.48253H8.57937H8.67672H8.77458H8.87294H8.9718H9.07116H9.17101H9.27134H9.37216H9.47346H9.57523H9.67748H9.7802H9.88338H9.98702H10.0911H10.1957H10.3007H10.4061H10.512H10.6183H10.7251H10.8323H10.9399H11.048H11.1564H11.2653H11.3746H11.4843H11.5944H11.7049H11.8158H11.9271H12.0387H12.1508H12.2633H12.3761H12.4893H12.6028H12.7168H12.8311H12.9457H13.0607H13.1761H13.2918H13.4079H13.5243H13.641H13.758H13.8754H13.9931H14.1112H14.2295H14.3482H14.4672H14.5864H14.706H14.8259H14.9461H15.0665H15.1873H15.3083H15.4296H15.5512H15.6731H15.7952H15.9176H16.0402H16.1631H16.2863H16.4097H16.5333H16.6572H16.7814H16.9057H17.0303H17.1551H17.2802H17.4054H17.5309H17.6566H17.7825H17.9086H18.0349H18.1614H18.2881H18.4149H18.542H18.6692H18.7966H18.9242H19.052H19.1799H19.308H19.4362H19.5646H19.6931H19.8218H19.9507H20.0796H20.2087H20.338H20.4673H20.5968H20.7264H20.8562H20.986H21.1159H21.246H21.3761H21.5064H21.6367H21.7671H21.8977H22.0283H22.1589H22.2897H22.4205H22.5514H22.6823H22.8134H22.9444H23.0755H23.2067H23.3379H23.4691H23.6004H23.7317H23.8631H23.9945H24.1259H24.2573H24.3887H24.5201H24.6516H24.783H24.9144H25.0459H25.1773H25.3087H25.4401H25.5715H25.7028H25.8342H25.9655H26.0967H26.2279H26.3591H26.4902H26.6213H26.7523H26.8833H27.0142H27.145H27.2758H27.4065H27.5371H27.6676H27.7981H27.9284H28.0587H28.1889H28.3189H28.4489H28.5788H28.7085H28.8381H28.9677H29.097H29.2263H29.3554H29.4844H29.6133H29.742H29.8706H29.999H30.1273H30.2554H30.3834H30.5112H30.6388H30.7662H30.8935H31.0206H31.1475H31.2742H31.4008H31.5271H31.6532H31.7792H31.9049H32.0304H32.1557H32.2808H32.4057H32.5303H32.6547H32.7789H32.9029H33.0266H33.15H33.2732H33.3962H33.5189H33.6414H33.7635H33.8855H34.0071H34.1285H34.2496H34.3704H34.4909H34.6111H34.7311H34.8507H34.9701H35.0891H35.2078H35.3263H35.4444H35.5621H35.6796H35.7967H35.9135H36.03H36.1461H36.2619H36.3773H36.4924H36.6072H36.7215H36.8355H36.9492H37.0625H37.1754H37.2879H37.4001H37.5118H37.6232H37.7342H37.8448H37.9549H38.0647H38.1741H38.2831H38.3916H38.4998H38.6075H38.7148H38.8216H38.928H39.034H39.1396H39.2447H39.3493H39.4535H39.5573H39.6605H39.7634H39.8657H39.9676H40.069H40.1699H40.2703H40.3703H40.4698H40.5687H40.6672H40.7652H40.8626H40.9596H41.056H41.152H41.2474H41.3422H41.4366H41.5304H41.6237H41.7164H41.8086H41.9003H41.9914H42.0819H42.1719H42.2613H42.3502H42.4385H42.5262H42.6133H42.6999H42.7858H42.8712H42.956H43.0402H43.1238H43.2068H43.2891H43.3709H43.4521H43.5326H43.6125H43.6918H43.7704H43.8484H43.9258H44.0026H44.0786H44.1541H44.2289H44.303H44.3765H44.4493H44.5214H44.5929H44.6636H44.7338H44.8032H44.8719H44.9399H45.0073H45.0739H45.1399H45.2051H45.2697H45.3335H45.3966H45.4589H45.5206H45.5815H45.6417H45.7011H45.7599H45.8178H45.875H45.9315H45.9872H46.0422H46.0963H46.1498H46.2024H46.2543H46.3054H46.3557H46.4052H46.4539H46.5019H46.549H46.5954H46.6409H46.6856H46.7296H46.7727H46.8149H46.8564H46.897H46.9368H46.9758H47.0139H47.0512H47.0876H47.1232H47.1579H47.1918H47.2248H47.2569H47.2882H47.3186H47.3481H47.3768H47.4045H47.4314H47.4573H47.4824H47.5066H47.5299H47.5522H47.5737H47.5942H47.6139H47.6326H47.6503H47.6672H47.6831H47.698H47.7121H47.7252H47.7373H47.7485H47.7587H47.768H47.7763H47.7836C48.3 33.3899 48.7187 33.8086 48.7187 34.325C48.7187 34.7609 48.4183 35.1292 48.0094 35.2307L47.4329 35.3738L47.4401 35.9677C47.4402 35.977 47.4404 35.9849 47.4406 35.9902L47.4407 35.993V46.8771C47.4407 48.1848 46.3756 49.25 45.0679 49.25C44.5515 49.25 44.1327 48.8312 44.1327 48.3148C44.1327 47.8457 44.4789 47.4561 44.9296 47.3899L45.5704 47.2956V46.6478V36.2304V35.4804H44.8204H4.64822H3.89822V36.2304V46.6477V47.2955L4.53909 47.3898C4.98976 47.456 5.33591 47.8455 5.33591 48.3147C5.33591 48.8312 4.91717 49.2499 4.40076 49.2499C3.09311 49.2499 2.02792 48.1847 2.02792 46.877V35.993L2.02803 35.9902C2.02821 35.9848 2.02844 35.9769 2.02855 35.9676Z" stroke="#969696" stroke-width="1.5"/>
<path d="M26.5014 15.486L25.5208 17.4749C25.1988 16.901 24.7549 16.4125 24.2273 16.0394L24.3612 15.7678L24.6026 15.2781L24.2108 14.8979L20.4768 11.2741L19.2045 10.0393V11.8123V15.4758L17.5229 15.7368C16.9075 14.7057 15.8531 13.9604 14.583 13.7781C14.5829 13.7781 14.5829 13.7781 14.5829 13.7781L11.9779 13.404V12.3948V9.93004L10.605 11.9771L8.53708 15.0604L7.87274 16.051L9.05334 16.2206L14.1276 16.9494C14.1276 16.9494 14.1276 16.9494 14.1276 16.9494C14.6183 17.0199 14.9589 17.4747 14.8884 17.9655L14.8884 17.9657C14.8185 18.4537 14.3636 18.7968 13.8726 18.7262L13.8725 18.7262L6.20469 17.625L6.09806 18.3673L6.20468 17.625C5.9348 17.5862 5.70063 17.425 5.56557 17.2032L5.56554 17.2031C5.38442 16.9056 5.39355 16.5249 5.58681 16.2367L5.58686 16.2366L5.58708 16.2363L5.58796 16.235L5.59144 16.2298L5.60503 16.2095L5.65661 16.1326L5.84069 15.8581L6.3993 15.0252L6.95794 14.1922L7.14206 13.9177L7.17127 13.8742L7.17131 13.8741L7.20717 13.8207L7.21004 13.8164L7.21054 13.8156L7.21093 13.8151L7.21119 13.8147L7.21196 13.8135L10.3966 9.06511L10.3967 9.06505C10.5632 8.81662 10.8428 8.66748 11.142 8.66748H11.1547H11.1675H11.1803H11.1931H11.206H11.219H11.232H11.2451H11.2582H11.2714H11.2846H11.2978H11.3111H11.3245H11.3379H11.3514H11.3649H11.3784H11.392H11.4057H11.4194H11.4331H11.4469H11.4607H11.4746H11.4886H11.5025H11.5166H11.5306H11.5447H11.5589H11.5731H11.5874H11.6017H11.616H11.6304H11.6448H11.6593H11.6738H11.6884H11.703H11.7176H11.7323H11.7471H11.7619H11.7767H11.7915H11.8065H11.8214H11.8364H11.8514H11.8665H11.8816H11.8968H11.912H11.9272H11.9425H11.9578H11.9732H11.9886H12.004H12.0195H12.035H12.0506H12.0662H12.0818H12.0975H12.1132H12.1289H12.1447H12.1605H12.1764H12.1923H12.2082H12.2242H12.2402H12.2563H12.2724H12.2885H12.3046H12.3208H12.3371H12.3533H12.3696H12.386H12.4023H12.4187H12.4352H12.4517H12.4682H12.4847H12.5013H12.5179H12.5345H12.5512H12.5679H12.5846H12.6014H12.6182H12.6351H12.6519H12.6688H12.6858H12.7027H12.7197H12.7367H12.7538H12.7709H12.788H12.8051H12.8223H12.8395H12.8568H12.874H12.8913H12.9087H12.926H12.9434H12.9608H12.9782H12.9957H13.0132H13.0307H13.0483H13.0658H13.0834H13.1011H13.1187H13.1364H13.1541H13.1719H13.1896H13.2074H13.2252H13.243H13.2609H13.2788H13.2967H13.3146H13.3326H13.3506H13.3686H13.3866H13.4047H13.4228H13.4409H13.459H13.4771H13.4953H13.5135H13.5317H13.55H13.5682H13.5865H13.6048H13.6231H13.6415H13.6598H13.6782H13.6966H13.715H13.7335H13.7519H13.7704H13.7889H13.8075H13.826H13.8446H13.8631H13.8817H13.9004H13.919H13.9376H13.9563H13.975H13.9937H14.0124H14.0312H14.0499H14.0687H14.0875H14.1063H14.1251H14.1439H14.1628H14.1816H14.2005H14.2194H14.2383H14.2573H14.2762H14.2951H14.3141H14.3331H14.3521H14.3711H14.3901H14.4091H14.4282H14.4473H14.4663H14.4854H14.5045H14.5236H14.5427H14.5619H14.581H14.6001H14.6193H14.6385H14.6577H14.6769H14.6961H14.7153H14.7345H14.7537H14.773H14.7922H14.8115H14.8308H14.85H14.8693H14.8886H14.9079H14.9272H14.9465H14.9659H14.9852H15.0045H15.0239H15.0432H15.0626H15.0819H15.1013H15.1207H15.1401H15.1594H15.1788H15.1982H15.2176H15.237H15.2564H15.2758H15.2953H15.3147H15.3341H15.3535H15.373H15.3924H15.4118H15.4313H15.4507H15.4701H15.4896H15.509H15.5285H15.5479H15.5674H15.5868H15.6063H15.6257H15.6452H15.6646H15.6841H15.7035H15.723H15.7424H15.7619H15.7814H15.8008H15.8202H15.8397H15.8591H15.8786H15.898H15.9175H15.9369H15.9563H15.9758H15.9952H16.0146H16.034H16.0534H16.0728H16.0923H16.1117H16.1311H16.1504H16.1698H16.1892H16.2086H16.228H16.2473H16.2667H16.2861H16.3054H16.3248H16.3441H16.3634H16.3827H16.4021H16.4214H16.4407H16.46H16.4792H16.4985H16.5178H16.537H16.5563H16.5755H16.5948H16.614H16.6332H16.6524H16.6716H16.6908H16.7099H16.7291H16.7483H16.7674H16.7865H16.8056H16.8247H16.8438H16.8629H16.882H16.9011H16.9201H16.9391H16.9581H16.9772H16.9961H17.0151H17.0341H17.053H17.072H17.0909H17.1098H17.1287H17.1476H17.1665H17.1853H17.2041H17.223H17.2418H17.2605H17.2793H17.2981H17.3168H17.3355H17.3542H17.3729H17.3916H17.4102H17.4289H17.4475H17.4661H17.4846H17.5032H17.5217H17.5403H17.5588H17.5772H17.5957H17.6142H17.6326H17.651H17.6694H17.6877H17.7061H17.7244H17.7427H17.761H17.7792H17.7975H17.8157H17.8339H17.852H17.8702H17.8883H17.9064H17.9245H17.9425H17.9606H17.9786H17.9965H18.0145H18.0324H18.0503H18.0682H18.0861H18.1039H18.1217H18.1395H18.1573H18.175H18.1927H18.2104H18.2281H18.2457H18.2633H18.2809H18.2984H18.3159H18.3334H18.3509H18.3683H18.3857H18.4031H18.4204H18.4378H18.4551H18.4723H18.4896H18.5068H18.5239H18.5411H18.5582H18.5753H18.5923H18.6094H18.6263H18.6433H18.6602H18.6771H18.694H18.7108H18.7276H18.7444H18.7611H18.7778H18.7945H18.8112H18.8278H18.8443H18.8609H18.8774H18.8938H18.9103H18.9267H18.943H18.9594H18.9757H18.9919H19.0082H19.0243H19.0405H19.0566H19.0727H19.0887H19.1048H19.1207H19.1367H19.1526H19.1684H19.1842H19.2H19.2158H19.2315H19.2472H19.2628H19.2784H19.2939H19.3095H19.3249H19.3404H19.3558H19.3711H19.3864H19.4017H19.4169H19.4321H19.4473H19.4624H19.4775H19.4925H19.5075H19.5224H19.5373H19.5522H19.567H19.5818H19.5965H19.6112H19.6259H19.6405H19.655H19.6695H19.684H19.6984H19.7128H19.7272H19.7415H19.7557H19.7699H19.7841H19.7982H19.8122H19.8263H19.8402H19.8542H19.8681H19.8819H19.8957H19.9094H19.9231H19.9368H19.9503H19.9639H19.9774H19.9909H20.0043C20.2375 8.66748 20.4617 8.75837 20.6292 8.92093L26.3214 14.445C26.3214 14.445 26.3214 14.445 26.3215 14.445C26.6009 14.7163 26.6735 15.1368 26.5014 15.486L26.5014 15.486Z" stroke="#969696" stroke-width="1.5"/>
<path d="M44.5109 28.404L46.1173 27.199C46.7662 26.7122 47.1858 25.9411 47.1911 25.0704V25.0704C47.2003 23.5903 46.0078 22.383 44.5277 22.3739V22.3739L44.5163 22.3738L44.5107 22.3738L44.5109 28.404ZM44.5109 28.404L42.9049 27.199C42.2469 26.7053 41.8257 25.9198 41.8311 25.0372L41.8311 25.0372C41.8403 23.5629 43.0385 22.3739 44.5106 22.3738L44.5109 28.404ZM44.3177 28.549H44.704H46.5674H47.5116C47.5116 28.5567 47.5117 28.5649 47.5117 28.5735C47.5118 28.6688 47.5117 28.8048 47.5114 29.0044C47.5112 29.2423 47.5108 29.5705 47.5107 30.0276H41.8208V30.0269V30.024V30.0211V30.0182V30.0152V30.0123V30.0093V30.0064V30.0034V30.0004V29.9974V29.9944V29.9914V29.9883V29.9853V29.9823V29.9792V29.9761V29.973V29.9699V29.9668V29.9637V29.9606V29.9574V29.9543V29.9511V29.948V29.9448V29.9416V29.9384V29.9352V29.932V29.9287V29.9255V29.9223V29.919V29.9157V29.9125V29.9092V29.9059V29.9026V29.8993V29.8959V29.8926V29.8893V29.8859V29.8825V29.8792V29.8758V29.8724V29.869V29.8656V29.8622V29.8588V29.8553V29.8519V29.8485V29.845V29.8415V29.8381V29.8346V29.8311V29.8276V29.8241V29.8206V29.8171V29.8135V29.81V29.8065V29.8029V29.7993V29.7958V29.7922V29.7886V29.785V29.7814V29.7778V29.7742V29.7706V29.767V29.7633V29.7597V29.756V29.7524V29.7487V29.7451V29.7414V29.7377V29.734V29.7303V29.7266V29.7229V29.7192V29.7155V29.7118V29.708V29.7043V29.7005V29.6968V29.693V29.6893V29.6855V29.6817V29.6779V29.6742V29.6704V29.6666V29.6628V29.659V29.6551V29.6513V29.6475V29.6437V29.6398V29.636V29.6321V29.6283V29.6244V29.6206V29.6167V29.6128V29.609V29.6051V29.6012V29.5973V29.5934V29.5895V29.5856V29.5817V29.5778V29.5739V29.57V29.5661V29.5621V29.5582V29.5543V29.5503V29.5464V29.5424V29.5385V29.5345V29.5306V29.5266V29.5226V29.5187V29.5147V29.5107V29.5068V29.5028V29.4988V29.4948V29.4908V29.4868V29.4828V29.4788V29.4748V29.4708V29.4668V29.4628V29.4588V29.4548V29.4508V29.4467V29.4427V29.4387V29.4347V29.4306V29.4266V29.4226V29.4185V29.4145V29.4105V29.4064V29.4024V29.3983V29.3943V29.3903V29.3862V29.3822V29.3781V29.3741V29.37V29.3659V29.3619V29.3578V29.3538V29.3497V29.3457V29.3416V29.3375V29.3335V29.3294V29.3253V29.3213V29.3172V29.3131V29.3091V29.305V29.301V29.2969V29.2928V29.2887V29.2847V29.2806V29.2765V29.2725V29.2684V29.2643V29.2603V29.2562V29.2521V29.2481V29.244V29.24V29.2359V29.2318V29.2278V29.2237V29.2196V29.2156V29.2115V29.2075V29.2034V29.1993V29.1953V29.1912V29.1872V29.1831V29.1791V29.175V29.171V29.1669V29.1629V29.1589V29.1548V29.1508V29.1468V29.1427V29.1387V29.1347V29.1306V29.1266V29.1226V29.1186V29.1145V29.1105V29.1065V29.1025V29.0985V29.0945V29.0905V29.0865V29.0825V29.0785V29.0745V29.0705V29.0665V29.0625V29.0585V29.0546V29.0506V29.0466V29.0427V29.0387V29.0347V29.0308V29.0268V29.0229V29.0189V29.015V29.011V29.0071V29.0032V28.9993V28.9953V28.9914V28.9875V28.9836V28.9797V28.9758V28.9719V28.968V28.9641V28.9602V28.9563V28.9525V28.9486V28.9447V28.9409V28.937V28.9332V28.9293V28.9255V28.9217V28.9178V28.914V28.9102V28.9064V28.9026V28.8988V28.895V28.8912V28.8874V28.8836V28.8798V28.8761V28.8723V28.8685V28.8648V28.861V28.8573V28.8536V28.8498V28.8461V28.8424V28.8387V28.835V28.8313V28.8276V28.8239V28.8203V28.8166V28.8129V28.8093V28.8056V28.802V28.7984V28.7947V28.7911V28.7875V28.7839V28.7803V28.7767V28.7731V28.7696V28.766V28.7624V28.7589V28.7553V28.7518V28.7483V28.7448V28.7413V28.7377V28.7343V28.7308V28.7273V28.7238V28.7203V28.7169V28.7134V28.71V28.7066V28.7032V28.6997V28.6963V28.6929V28.6896V28.6862V28.6828V28.6795V28.6761V28.6728V28.6694V28.6661V28.6628V28.6595V28.6562V28.6529V28.6496V28.6464V28.6431V28.6399V28.6366V28.6334V28.6302V28.627V28.6238V28.6206V28.6174V28.6142V28.6111V28.6079V28.6048V28.6017V28.5986V28.5955V28.5924V28.5893V28.5862V28.5831V28.5801V28.577V28.574V28.571V28.568V28.565V28.562V28.559V28.5561V28.5531V28.5502V28.549H42.4548H44.3177Z" stroke="#969696" stroke-width="1.5"/>
</svg>
