<svg width="50" height="50" viewBox="0 0 50 50" fill="none" xmlns="http://www.w3.org/2000/svg">
<g clip-path="url(#clip0_64_3657)">
<path d="M34.6068 29.4027C35.7055 29.887 37.0157 30.1067 38.4602 30.1311C40.1692 30.1596 42.0735 29.9236 44.0469 29.5411C44.5271 29.4475 44.991 29.7649 45.0805 30.245C45.1741 30.7252 44.8567 31.189 44.3765 31.2786C42.3054 31.6814 40.2872 31.9296 38.4317 31.8971C36.7309 31.8686 35.1684 31.6 33.8297 30.9937C32.9385 31.9337 32.4503 33.1869 32.377 34.4646C32.3404 35.14 32.4177 35.8196 32.6171 36.4625C32.8124 37.0972 33.1257 37.6995 33.557 38.2162C34.4319 39.2701 35.8194 40.0188 37.7441 40.1287H37.7685C38.9729 40.2304 40.0471 40.088 40.9993 39.7258C41.9514 39.3637 42.8018 38.7777 43.5627 37.9965C45.9553 35.5266 47.3388 31.5634 47.8433 27.3723C48.4171 22.6238 47.8637 17.627 46.3785 14.1562C45.5728 12.2722 44.4661 10.5754 43.0378 9.25301C41.7602 8.06892 40.2261 7.18188 38.4154 6.72615C37.1052 6.39656 35.8967 6.43318 34.851 6.85229C33.8337 7.25919 32.9385 8.0323 32.2183 9.19197C31.7626 9.92032 31.4289 10.7911 31.2255 11.7188C30.9122 13.143 30.9163 14.6811 31.2743 16.032C31.6161 17.3096 32.2753 18.4123 33.2966 19.0471C33.6588 19.275 34.0697 19.4418 34.5336 19.5435C35.5671 19.7714 36.678 19.4703 37.626 18.7582C38.5863 18.038 39.3798 16.8987 39.7786 15.4501C39.9088 14.9822 40.393 14.7055 40.865 14.8357C41.3329 14.9659 41.6096 15.4501 41.4794 15.9221C40.9708 17.7613 39.9413 19.2262 38.684 20.1702C37.5609 21.0165 36.2548 21.4519 34.9608 21.3827C34.5499 22.0541 34.3017 22.7458 34.2244 23.3806C34.147 24.0398 34.2569 24.6135 34.5702 24.996C34.908 25.4029 35.5061 25.4843 36.1653 25.3988C37.3656 25.2401 38.6962 24.5484 39.449 24.0276C39.8518 23.7509 40.4011 23.8526 40.6778 24.2514C40.9545 24.6542 40.8528 25.2035 40.454 25.4802C39.5426 26.1068 37.9109 26.9451 36.3972 27.1485C35.9781 27.2055 35.5671 27.2136 35.1724 27.1648C35.026 27.5229 34.9079 27.885 34.8144 28.239C34.7086 28.6215 34.6394 29.0121 34.6068 29.4027ZM16.2882 30.9246C16.4346 31.2867 16.5608 31.6529 16.6666 32.0191C18.0826 29.712 19.1527 28.0722 20.5932 27.5595C20.5972 27.295 20.5972 27.0346 20.6013 26.7701C20.1619 26.7375 19.1527 27.3845 18.3145 27.9216C17.989 28.1291 17.6798 28.3285 17.3949 28.4872C17.3502 29.2847 17.0938 30.005 16.6177 30.5787C16.516 30.7089 16.4062 30.8228 16.2882 30.9246ZM17.342 34.3018C18.4936 35.551 19.1283 37.1786 19.2219 38.8306C19.2707 39.7096 19.169 40.6007 18.9086 41.4429C18.6441 42.2934 18.2209 43.099 17.635 43.807C16.4672 45.2109 14.6687 46.2078 12.2151 46.3542C10.7462 46.4804 9.41967 46.2973 8.21524 45.8416C7.01081 45.3858 5.94473 44.6575 5.00886 43.689C2.31925 40.918 0.781159 36.5845 0.231843 32.0435C-0.378509 27.0102 0.227774 21.6716 1.82689 17.9281C2.72615 15.8285 3.97533 13.9202 5.59073 12.4228C7.07999 11.0434 8.87442 10.0058 10.9862 9.47273C12.6545 9.05363 14.2252 9.11466 15.629 9.67618C17.0043 10.2255 18.1884 11.2346 19.1121 12.7198C19.5678 13.4482 19.9218 14.2782 20.17 15.1612C19.9014 11.8409 19.4945 8.49617 18.9452 5.1311C18.9127 4.92358 18.8638 4.70385 18.8191 4.48413C18.5139 3.00707 18.225 1.62361 19.9584 0.512771C20.406 0.227941 20.9146 0.0570422 21.4273 0.0163521C21.9278 -0.028407 22.4364 0.0529732 22.9003 0.252355C23.3804 0.463943 23.7996 0.801671 24.1047 1.27775C24.3529 1.6643 24.5198 2.13631 24.5727 2.68969C24.9063 4.68758 25.1871 6.70174 25.4231 8.74031C25.4923 7.78816 25.5655 6.84008 25.6387 5.892C25.6672 5.55834 25.6754 5.26538 25.6876 4.96427C25.7608 2.77921 25.8463 0.236079 28.7963 0.0529732C29.012 0.0407661 29.2317 0.0489042 29.4514 0.0855253C30.2042 0.207596 30.9325 0.622635 31.49 1.44864C31.9742 2.17293 32.3282 3.22273 32.4177 4.69165C32.4462 5.16772 32.4503 5.69669 32.4218 6.27856C32.9711 5.82283 33.5652 5.4729 34.204 5.21655C35.6078 4.65502 37.1785 4.59399 38.8468 5.0131C40.9586 5.54614 42.753 6.57967 44.2423 7.96313C45.8577 9.46459 47.1068 11.3689 48.0061 13.4685C49.6052 17.212 50.2115 22.5465 49.6011 27.5839C49.0518 32.1249 47.5137 36.4584 44.8282 39.2335C43.8883 40.2019 42.8262 40.9303 41.6218 41.386C40.4174 41.8417 39.0909 42.0207 37.622 41.8987C35.1684 41.7522 33.3699 40.7594 32.2021 39.3515C31.6161 38.6435 31.1929 37.8378 30.9285 36.9874C30.668 36.141 30.5622 35.254 30.6151 34.3751C30.7169 32.5684 31.4656 30.7903 32.8328 29.5085C32.8368 29.4109 32.845 29.3132 32.8531 29.2156C32.0474 29.0203 31.5714 28.9511 30.5419 29.179C30.489 29.1912 30.432 29.1993 30.3791 29.1993L28.8573 46.3258C28.8573 46.338 28.8573 46.3502 28.8533 46.3624C28.8329 46.5862 28.78 46.8995 28.7149 47.2454C28.6539 47.5749 28.5806 47.9371 28.5115 48.2707C28.4057 48.7875 28.0802 49.2514 27.661 49.5606C27.3721 49.7722 27.0263 49.9228 26.6641 49.9716C26.2694 50.0245 25.8625 49.9635 25.4841 49.7478C25.1423 49.5566 24.8412 49.2473 24.6174 48.7916C24.2431 49.2799 23.7792 49.6135 23.2828 49.8048C22.8189 49.9879 22.3306 50.0408 21.8627 49.9838C21.3907 49.9268 20.939 49.76 20.5403 49.4915C19.6166 48.8689 19.0022 47.7255 19.2219 46.22V46.2078C19.9421 40.7553 20.4141 35.2296 20.5606 29.6306C19.8038 30.2979 18.9778 31.6448 17.9117 33.3863C17.7204 33.6874 17.5251 34.0048 17.342 34.3018ZM20.4752 19.9586C20.4223 20.2922 20.3531 20.6218 20.2677 20.9433C20.0439 21.7815 19.7061 22.5668 19.2504 23.2585C19.3155 23.2626 19.3847 23.2667 19.4538 23.2667C19.8079 23.2707 20.1822 23.226 20.5769 23.1609C20.5565 22.0948 20.524 21.0287 20.4752 19.9586ZM17.8507 24.7559C17.7286 24.8455 17.6024 24.9309 17.4763 25.0123C17.224 25.171 16.9555 25.3093 16.6706 25.4273C16.866 25.8098 17.0246 26.1964 17.1467 26.5829C17.22 26.5382 17.2932 26.4893 17.3664 26.4405C18.3837 25.7895 19.5556 25.0367 20.6054 25.0164V24.9431C20.2148 25.0001 19.8282 25.0326 19.4538 25.0326C18.8883 25.0245 18.3511 24.9431 17.8507 24.7559ZM14.8762 25.8424C13.5823 25.9115 12.2761 25.4762 11.1531 24.6298C9.89574 23.6858 8.86628 22.2209 8.35766 20.3818C8.22745 19.9138 8.50414 19.4255 8.97208 19.2953C9.44001 19.1651 9.92829 19.4418 10.0585 19.9097C10.4573 21.3583 11.2507 22.4936 12.211 23.2179C13.1591 23.9299 14.2659 24.231 15.3035 24.0032C15.7673 23.9014 16.1783 23.7305 16.5404 23.5068C17.5618 22.872 18.2209 21.7693 18.5627 20.4916C18.9208 19.1407 18.9208 17.6067 18.6116 16.1785C18.4081 15.2507 18.0745 14.38 17.6187 13.6516C16.8985 12.496 16.0033 11.7188 14.9861 11.3119C13.9403 10.8928 12.7318 10.8562 11.4216 11.1858C9.61498 11.6415 8.07689 12.5286 6.79922 13.7126C5.371 15.0391 4.26423 16.7359 3.45857 18.6158C1.97338 22.0867 1.41999 27.0834 1.99372 31.8319C2.50235 36.023 3.88175 39.9862 6.27432 42.4561C7.03523 43.2415 7.88565 43.8274 8.8378 44.1855C9.79402 44.5476 10.8642 44.69 12.0686 44.5883H12.093C14.0176 44.4784 15.4011 43.7297 16.28 42.6759C16.7113 42.155 17.0246 41.5569 17.22 40.9221C17.4193 40.2833 17.4967 39.6038 17.456 38.9283C17.3827 37.6506 16.8944 36.3974 16.0033 35.4574C14.6646 36.0637 13.1021 36.3323 11.4013 36.3608C9.54581 36.3933 7.52758 36.1451 5.45645 35.7423C4.97631 35.6487 4.663 35.1889 4.75251 34.7087C4.8461 34.2286 5.3059 33.9153 5.78604 34.0048C7.75951 34.3873 9.66381 34.6274 11.3728 34.5948C12.8173 34.5704 14.1275 34.3507 15.2261 33.8665C15.1936 33.4758 15.1244 33.0893 15.0227 32.6986C14.9291 32.3406 14.807 31.9825 14.6646 31.6244C14.2699 31.6733 13.859 31.6651 13.4398 31.6082C11.9221 31.4047 10.2904 30.5706 9.38305 29.9399C8.98021 29.6632 8.88256 29.1138 9.15925 28.711C9.43594 28.3082 9.98526 28.2105 10.3881 28.4872C11.1409 29.0081 12.4714 29.6998 13.6718 29.8585C14.331 29.948 14.9291 29.8666 15.2668 29.4556C15.5801 29.0772 15.6941 28.4994 15.6127 27.8402C15.5354 27.2095 15.2872 26.5178 14.8762 25.8424ZM22.8108 2.85245C22.7904 2.59204 22.7213 2.38452 22.6195 2.22989C22.5137 2.06306 22.3632 1.94099 22.1964 1.86775C22.0133 1.78637 21.7976 1.75789 21.5738 1.77416C21.3419 1.79451 21.114 1.86775 20.9146 1.99389C20.2025 2.44962 20.3694 3.25935 20.5484 4.11791C20.5972 4.35392 20.6461 4.58992 20.6868 4.8422C21.8546 11.9752 22.3673 19.0227 22.3632 25.9644C22.3591 32.9021 21.8464 39.7258 20.9594 46.4275C20.9594 46.4438 20.9553 46.456 20.9512 46.4722C20.8454 47.2087 21.1099 47.7458 21.5128 48.0185C21.6755 48.1283 21.8627 48.1975 22.0539 48.2219C22.2452 48.2463 22.4405 48.2219 22.6236 48.1527C23.1404 47.9534 23.588 47.3552 23.7019 46.2485C23.9989 42.6555 24.2349 39.0911 24.3896 35.5632C24.4058 31.7872 24.475 28.1088 24.5889 24.4996C24.5889 24.349 24.5849 24.1985 24.5849 24.0479C24.4913 16.8214 23.9542 9.76163 22.8148 2.92976C22.8189 2.90128 22.8148 2.87687 22.8108 2.85245ZM26.363 24.5362C26.3997 28.2187 26.3264 31.9377 26.1636 35.6853C26.1555 37.4268 26.1596 39.1928 26.1759 40.975C26.1799 41.7196 26.1189 42.5497 26.0538 43.4123C25.9276 45.1132 25.7893 46.9605 26.1433 47.8842C26.2125 48.0632 26.2816 48.1609 26.3508 48.1975C26.3712 48.2097 26.3956 48.2097 26.4281 48.2056C26.4892 48.1975 26.5543 48.165 26.6153 48.1202C26.7048 48.0551 26.7659 47.9778 26.7821 47.9005C26.8472 47.579 26.9205 47.2291 26.9774 46.9076C27.0344 46.6025 27.0792 46.338 27.0954 46.1752L27.0995 46.1467L29.6508 17.4765C29.663 17.3422 29.7037 17.2161 29.7688 17.1062C29.6955 16.8946 29.6304 16.683 29.5735 16.4633C29.1422 14.8398 29.1381 13.0087 29.5043 11.3282C29.7037 10.4249 30.0089 9.55818 30.4158 8.78507C30.3995 8.69148 30.3954 8.58976 30.4117 8.48803C30.6558 6.97843 30.7209 5.75773 30.6599 4.78116C30.5907 3.64998 30.3507 2.89314 30.0292 2.413C29.7769 2.03865 29.4758 1.85554 29.1788 1.81079C29.0933 1.79858 29.0038 1.79451 28.9102 1.79858C27.5593 1.88403 27.5024 3.56046 27.4535 5.00089C27.4413 5.37524 27.4291 5.74145 27.4047 6.01407C26.9571 11.6171 26.6234 17.2445 26.4159 22.9981C26.3956 23.519 26.3793 24.0276 26.363 24.5362ZM31.2296 19.6127L30.8837 23.4986C31.4696 23.4376 31.9172 23.4823 32.434 23.5881C32.4381 23.4498 32.4503 23.3114 32.4665 23.169C32.552 22.4529 32.788 21.7001 33.1705 20.9595C32.8857 20.8415 32.6171 20.7032 32.3648 20.5445C31.9416 20.28 31.5632 19.9667 31.2296 19.6127ZM33.5489 26.4609C33.4309 26.3591 33.321 26.2452 33.2152 26.1191C33.0565 25.9278 32.9223 25.7203 32.8124 25.4965C31.9905 25.289 31.5347 25.1791 30.725 25.3053L30.5419 27.3682C31.6812 27.1526 32.2712 27.2421 33.1949 27.47C33.2926 27.1282 33.4146 26.7904 33.5489 26.4609Z" fill="#969696"/>
</g>
<defs>
<clipPath id="clip0_64_3657">
<rect width="49.8372" height="50" fill="white"/>
</clipPath>
</defs>
</svg>
