<svg width="50" height="38" viewBox="0 0 50 38" fill="none" xmlns="http://www.w3.org/2000/svg">
<path d="M24.5423 2.16219C25.084 5.32997 25.9596 8.28997 25.4179 11.5411C24.209 18.7944 24.334 23.7128 24.459 29.5905C24.5007 31.6333 24.5423 33.8005 24.5423 36.0516C24.834 36.135 25.1673 36.135 25.4596 36.01C25.4596 27.2144 25.5429 18.2939 26.3351 9.54053C26.5851 6.95608 25.8768 4.32997 25.3346 1.82886C25.0423 1.95386 24.7923 2.07886 24.5423 2.16219ZM13.7046 14.5844C12.4123 14.1261 12.1207 12.8755 12.4123 11.6666C12.454 11.5 12.5373 11.375 12.6623 11.25C12.454 10.5411 12.329 9.91609 12.1623 8.99886C12.4957 8.49886 14.7885 8.4572 14.6218 9.41553C14.5385 9.87386 14.0801 10.8744 13.7462 11.5C13.9962 11.9583 13.5379 12.5005 13.8712 13.0005C14.0379 12.5422 14.3296 11.9166 14.9551 12.0833C15.1635 11.4583 15.4551 10.9578 15.8307 10.2911C16.289 10.1244 17.8318 11.2916 17.2479 11.8333C16.9146 12.125 16.039 12.5422 15.4973 12.7922C15.4973 12.9172 15.4557 13.0422 15.3723 13.1255C14.5385 14.4178 15.8307 17.2522 17.6651 14.2511C19.5823 11.1666 16.4562 6.20608 11.8296 7.24831C7.36957 8.24886 5.11846 13.1678 4.57624 17.2944C3.82568 23.13 6.16013 29.5911 12.3296 31.3839C13.9551 31.8422 15.4973 31.8422 16.7479 31.3005C20.6662 29.55 21.4168 23.6722 16.7479 21.3794C15.8307 21.5461 15.0807 22.0466 14.5385 22.755C14.5801 23.5472 15.1218 24.5889 16.7896 25.1311C17.3312 25.2978 18.0818 25.3811 18.5401 25.6311C19.374 26.0478 18.0818 27.7572 17.4979 27.7155C17.0396 27.2572 16.664 26.8816 16.3307 26.465C15.2468 26.1316 14.2462 25.5061 13.6629 24.5478C13.4546 25.3816 13.4546 26.3816 13.7879 27.2155C14.3296 27.7989 15.2051 28.8828 15.4135 29.3833C15.8301 30.3839 13.329 30.9255 12.829 30.4672C12.7873 29.5916 12.7457 28.9666 12.7873 28.2578C11.7035 27.2572 12.1201 24.3394 12.6623 23.0889C13.3296 21.6716 14.4962 20.5461 16.039 20.0878C16.9979 19.7544 17.7479 17.92 16.8312 17.0033C15.2468 17.3355 13.9546 16.085 13.7046 14.5844ZM6.53457 24.5883C7.66012 24.2133 8.36846 23.9633 9.45235 23.7961C9.70235 23.7128 10.0357 23.5044 10.4112 23.0872C10.9112 22.5455 11.3701 21.545 11.3285 20.7944C10.7035 21.0444 9.91124 21.1694 8.91068 21.0444C8.20179 21.5861 7.16012 22.2116 6.65957 22.3783C5.53401 22.7116 5.20068 19.9605 5.74235 19.5022C6.82624 19.5439 7.57624 19.5855 8.45179 19.7105C8.61846 19.7522 10.369 20.0855 11.1196 19.2105C11.3696 18.8772 11.3696 18.46 11.2029 18.085C10.5357 16.7094 8.86846 16.7511 8.49346 16.6678C7.6179 16.7094 6.45068 16.7094 5.95068 16.5844C4.78346 16.3344 5.95068 13.8333 6.65957 13.6666C7.57679 14.2916 8.24346 14.7089 8.95235 15.3339C9.7029 15.4172 10.3696 15.6255 10.9112 15.9172C10.9112 15.125 10.7446 14 10.2023 13.3328C9.49346 13.0828 8.07624 12.4155 7.6179 12.0405C6.82568 11.3316 8.82679 9.74775 9.45179 9.95609C9.82679 10.6233 10.119 11.165 10.369 11.7066C12.1196 12.5822 12.5785 15.3333 12.2029 17.0422C12.7862 17.8344 12.9535 18.8761 12.4946 19.7516C13.2035 21.0022 12.3696 23.0028 11.494 24.0033C11.119 24.42 10.2851 25.1705 9.70179 25.0039C9.28512 25.6289 8.65957 26.4628 8.28457 26.7544C7.45179 27.4233 6.2429 25.2139 6.53457 24.5883ZM31.1285 14.7094C30.0862 15.5016 28.5857 16.0016 27.2935 16.085C27.2935 16.6683 27.2518 17.2522 27.2101 17.7939C28.3773 16.71 30.1696 15.835 31.7118 15.5844C31.5035 15.2928 31.2951 15.0011 31.1285 14.7094ZM27.3768 14.6678C28.3773 14.5428 29.7112 14.1261 30.4196 13.4172C29.419 11.2078 29.419 7.91497 30.5446 5.78886C31.9618 3.07942 34.9629 2.16219 37.8812 2.49553C44.8424 3.32942 48.9273 10.0822 49.8029 16.46C50.9285 24.4216 47.2185 32.9672 39.0485 35.4261C36.1724 36.3016 32.754 36.1766 30.3362 34.2172C28.0851 32.3833 27.2101 29.5483 27.6685 26.7139C28.1685 24.0878 29.7946 21.7533 32.1285 20.3778C31.9618 20.2528 31.8368 20.0861 31.7535 19.8778C28.7523 21.6283 26.9596 25.0883 26.9179 28.5066C26.8762 31.4244 26.8762 34.1755 26.8762 36.4266C26.8762 37.6355 23.2912 38.2189 23.1246 36.0933C23.1246 33.6339 23.0829 31.5916 23.0412 29.6322C22.9996 24.9633 22.0823 22.0455 18.164 19.8366C18.0807 20.0033 17.9557 20.2116 17.8307 20.3366C20.2068 21.6705 21.874 24.0466 22.3323 26.7144C22.9157 30.1328 21.4151 33.5922 18.2057 35.1344C16.1629 36.0933 13.5368 36.2183 10.9523 35.4261C2.74124 32.9672 -0.926543 24.38 0.198457 16.46C1.07401 10.0822 5.15901 3.32942 12.1201 2.49553C18.9979 1.70331 21.8323 7.70608 19.6235 13.4583C20.499 14.2922 22.3329 14.7922 23.5418 14.6672C23.6668 13.625 23.8335 12.4994 24.0001 11.3322C24.4168 8.95609 23.9585 6.70497 23.5001 4.41275C23.3335 3.53719 23.1668 2.66219 23.0418 1.74497C23.0001 1.32831 23.2501 0.95275 23.6668 0.911083C23.6668 0.911083 24.584 0.786084 25.334 0.160528C25.7507 -0.172806 26.4179 0.0355278 26.5429 0.577195C26.6679 1.24442 26.7929 1.82775 26.9179 2.45275C27.4596 4.70386 28.0018 7.16331 27.7518 9.66442C27.6268 11.2911 27.5018 12.9583 27.3768 14.6678ZM31.4618 17.0855C29.8779 17.5022 27.6268 18.7528 27.1268 20.3789C27.0851 21.2128 27.0435 22.0044 27.0435 22.8383C28.044 21.0878 29.5029 19.5033 31.2951 18.545C31.2535 18.0439 31.2951 17.5439 31.4618 17.0855ZM23.3751 16.085C21.9162 16.1683 20.1657 15.6683 18.9985 14.7928C18.8735 15.0844 18.6651 15.3344 18.4568 15.6266C20.124 15.96 22.0001 16.8772 23.1673 18.0861C23.2501 17.4605 23.2918 16.7933 23.3751 16.085ZM23.0418 20.42C22.5001 18.7528 20.0823 17.4605 18.4568 17.0433C18.6235 17.5016 18.6651 18.0022 18.6235 18.4605C20.4573 19.4194 21.9585 21.045 22.9585 22.8372C23.0001 22.0455 23.0001 21.2122 23.0418 20.42ZM35.2968 16.0433C36.1307 15.6266 36.7974 16.8772 35.964 17.2939C35.0051 17.7939 34.0468 17.5855 33.1712 17.0022C31.7957 18.2944 33.3379 20.3789 35.7557 20.2533C36.6729 20.2116 36.7562 21.6289 35.7973 21.6705C34.8385 21.7122 34.0468 21.5872 33.4212 21.2955C31.1285 22.3794 29.5446 24.505 29.0862 26.9644C28.6696 29.2989 29.3779 31.5916 31.254 33.1339C33.2968 34.8011 36.2146 34.8011 38.6324 34.0928C46.1357 31.8416 49.4285 23.9216 48.4279 16.6689C47.594 10.9166 44.0512 4.66386 37.7151 3.91331C35.3807 3.62164 32.9629 4.28831 31.7957 6.45608C30.4201 8.99886 31.1285 12.4589 32.7962 14.7094C33.5462 15.6683 34.4635 16.4183 35.2968 16.0433ZM21.0407 28.0483C20.4157 29.8822 19.1651 31.7583 17.3307 32.5916C15.7885 33.2589 13.8707 33.3005 11.9535 32.7583C5.07568 30.7572 2.32457 23.6294 3.1579 17.1266C3.7829 12.3744 6.40901 6.99719 11.5362 5.87164C14.6207 5.16275 17.6223 6.37164 18.9146 9.28997C18.8312 5.49664 16.1635 3.45442 12.2868 3.91275C5.99235 4.66331 2.40735 10.9155 1.61568 16.6683C0.573457 23.8794 3.82512 31.8 11.3696 34.0922C13.6207 34.7594 15.8712 34.6755 17.5807 33.8422C19.8735 32.7589 21.0823 30.4661 21.0407 28.0483Z" fill="#969696"/>
</svg>
