<svg width="60" height="72" viewBox="0 0 60 72" fill="none" xmlns="http://www.w3.org/2000/svg">
<g clip-path="url(#clip0_4_2072)">
<g clip-path="url(#clip1_4_2072)">
<path d="M43.082 51.845C37.7495 60.5367 29.9492 69.9997 21.2697 70C19.7489 70 18.2014 69.7094 16.6346 69.0732C11.7372 67.0795 9.5636 62.484 10.1734 55.4146C10.214 54.9382 10.6519 54.5827 11.138 54.624C11.6298 54.6636 11.995 55.0822 11.9538 55.5587C11.4085 61.8843 13.1656 65.7832 17.3262 67.4767C26.6515 71.2646 35.6417 60.5847 41.546 50.9612C51.7358 34.3124 46.8047 19.2858 37.397 11.7796C31.5472 7.11195 23.9954 6.42746 18.1584 10.0336C12.7795 13.3578 10.6147 19.2537 12.3667 25.8057C12.4904 26.2685 12.2035 26.7409 11.7262 26.8606C11.2501 26.9822 10.7605 26.7028 10.6374 26.24C8.71063 19.0348 11.2245 12.2657 17.1974 8.57396C23.6999 4.55596 32.074 5.28933 38.5328 10.4431C48.5288 18.4189 53.8126 34.3136 43.082 51.845ZM39.1015 45.9787C39.2147 46.0248 39.3319 46.0468 39.4475 46.0468C39.7964 46.0468 40.1275 45.8476 40.2715 45.5163C44.413 35.9797 43.6558 26.0884 38.2466 19.0576C34.6661 14.4043 29.6218 11.8113 25.0756 12.2923C20.0038 12.8272 17.8204 15.5774 16.8821 17.7904C14.5269 23.3448 17.3798 31.2553 21.2593 35.8784C21.5706 36.2491 22.1333 36.3058 22.5164 36.004C22.899 35.7022 22.9572 35.157 22.6459 34.7863C21.0878 32.9298 19.8662 30.7895 19.0402 28.6107C23.2427 28.8864 26.6146 29.687 29.0497 31.0077C33.5287 33.4452 33.9437 37.4914 33.7922 39.6862C33.4913 44.0532 30.5665 48.5091 27.1357 49.8307C25.4018 50.4943 23.8288 49.9427 22.9333 49.2069C22.1598 48.5714 21.797 47.748 21.9625 47.0037C22.1988 45.9407 23.4501 45.0434 25.4855 44.4777C25.96 44.3456 26.234 43.8662 26.0981 43.4069C25.9616 42.9469 25.4623 42.6819 24.9931 42.8133C21.3511 43.8258 20.4371 45.6451 20.2159 46.6394C19.9099 48.0183 20.4935 49.4715 21.7774 50.5271C22.8411 51.4013 24.1791 51.8568 25.55 51.8568C26.3015 51.8565 27.0628 51.7198 27.7937 51.4402C31.8812 49.8662 35.2261 44.8625 35.575 39.8016C35.8852 35.3091 33.8782 31.6498 29.9233 29.4976C27.0775 27.9541 23.3237 27.086 18.4655 26.839C17.6084 23.757 17.5679 20.7294 18.5349 18.4484C19.6324 15.8611 21.8976 14.3688 25.2691 14.0134C29.1271 13.6047 33.6595 15.9921 36.8143 20.0922C39.2282 23.2296 44.2366 31.922 38.6249 44.8451C38.4331 45.2856 38.6468 45.7932 39.1015 45.9787Z" fill="#2F618A"/>
</g>
</g>
<defs>
<clipPath id="clip0_4_2072">
<rect width="60" height="72" fill="white"/>
</clipPath>
<clipPath id="clip1_4_2072">
<rect width="60" height="72" fill="white"/>
</clipPath>
</defs>
</svg>
