<svg width="68" height="71" viewBox="0 0 68 71" fill="none" xmlns="http://www.w3.org/2000/svg">
<g clip-path="url(#clip0_8_41)">
<path d="M36.4303 1.06313C36.4072 3.14899 36.5689 5.22329 36.9329 7.29759C37.2276 8.96165 37.6552 10.6084 38.2214 12.2378C40.186 10.8684 42.2603 9.79368 44.4039 9.14654C46.7267 8.44741 49.1245 8.25673 51.5686 8.74208C52.2909 8.88653 52.9958 9.08876 53.6891 9.33722C59.4729 11.4289 63.3384 16.9642 65.3607 23.8458C67.3425 30.5887 67.5679 38.6548 66.1003 45.9928C65.6785 48.1133 65.1065 50.1819 64.39 52.1579C63.1997 55.4456 61.7783 58.2017 60.0796 60.5071C58.3635 62.8357 56.3759 64.702 54.082 66.1869C53.7296 66.4123 53.3482 66.6434 52.9264 66.8745C49.0032 69.0586 43.0807 70.844 37.4414 70.9884C31.6519 71.1386 26.1165 69.5786 23.1698 65.0082C23.0427 64.8117 22.9098 64.5922 22.7826 64.3553C22.4302 63.7255 22.1413 63.1188 21.8524 62.5005C21.055 60.8249 20.2403 59.0973 18.4145 57.5835C17.7211 57.0057 16.97 56.6012 16.1668 56.3585C15.3406 56.1101 14.4566 56.0292 13.5263 56.1159C10.7586 56.3701 9.26213 57.4795 7.85808 58.5195C6.79493 59.3053 5.78378 60.0565 4.34506 60.4956C4.32773 60.5014 4.31039 60.5071 4.29306 60.5129C4.11394 60.5649 3.94638 60.6054 3.78459 60.6285C3.5997 60.6574 3.4148 60.6747 3.22991 60.6747C2.19565 60.6747 1.38673 60.2009 0.820483 59.2129C0.375578 58.4271 0.10979 57.2888 0.0404538 55.7692V55.7287H0.0288979C0.0288979 55.1972 0.0231199 54.9083 0.0115639 54.654C-0.0462161 52.5566 -0.0635501 51.8575 2.07431 49.9219C2.39788 49.6272 2.72722 49.3614 3.06235 49.1129C3.4148 48.8529 3.77882 48.616 4.14861 48.3907C4.77263 48.0151 5.44288 47.6684 6.15935 47.3449C6.84115 47.0329 7.59229 46.7382 8.40699 46.4435C13.9828 44.4328 17.2762 45.5479 20.3906 46.6053C22.3088 47.2582 24.152 47.8822 26.4228 47.5702C28.6762 47.264 30.6292 45.5884 32.0679 43.41C33.8071 40.7811 34.772 37.4587 34.6391 34.8471C34.4195 30.4269 32.7439 26.8041 30.8776 22.7595C28.5895 17.8078 26.0183 12.2551 25.3134 3.81923L25.1227 1.57737C25.0765 1.02268 25.4867 0.537332 26.0414 0.491108C26.0703 0.491108 26.105 0.48533 26.1339 0.48533L35.3787 -2.18287e-05C35.9334 -0.0289118 36.4014 0.39866 36.4303 0.953347C36.4303 0.988015 36.4303 1.02846 36.4303 1.06313ZM54.6541 46.4897C55.2607 46.4897 55.8097 46.7382 56.2083 47.1311C56.607 47.5298 56.8555 48.0787 56.8555 48.6854C56.8555 49.2921 56.607 49.841 56.2083 50.2396C55.8097 50.6383 55.2607 50.8868 54.6541 50.8868C54.0474 50.8868 53.4985 50.6383 53.0998 50.2396C52.7011 49.841 52.4526 49.2921 52.4526 48.6854C52.4526 48.0787 52.7011 47.5298 53.0998 47.1311C53.4927 46.7324 54.0416 46.4897 54.6541 46.4897ZM27.9366 53.1864C28.5433 53.1864 29.0922 53.4349 29.4909 53.8336C29.8896 54.2322 30.1323 54.7811 30.1323 55.3878C30.1323 55.9945 29.8838 56.5434 29.4909 56.9421C29.0922 57.3408 28.5433 57.5835 27.9366 57.5835C27.3299 57.5835 26.781 57.335 26.3823 56.9421C25.9837 56.5434 25.7352 55.9945 25.7352 55.3878C25.7352 54.7811 25.9837 54.2322 26.3823 53.8336C26.781 53.4349 27.3299 53.1864 27.9366 53.1864ZM32.2528 60.9925C32.8595 60.9925 33.4084 61.2409 33.8071 61.6396C34.2057 62.0383 34.4542 62.5872 34.4542 63.1939C34.4542 63.8006 34.2057 64.3495 33.8071 64.7482C33.4084 65.1469 32.8595 65.3895 32.2528 65.3895C31.6461 65.3895 31.0972 65.1411 30.6985 64.7482C30.2998 64.3495 30.0514 63.8006 30.0514 63.1939C30.0514 62.5872 30.2998 62.0383 30.6985 61.6396C31.0972 61.2352 31.6461 60.9925 32.2528 60.9925ZM52.3544 56.5839C52.9611 56.5839 53.51 56.8323 53.9087 57.231C54.3074 57.6297 54.5501 58.1786 54.5501 58.7853C54.5501 59.392 54.3016 59.9409 53.9087 60.3396C53.51 60.7383 52.9611 60.9809 52.3544 60.9809C51.7477 60.9809 51.1988 60.7325 50.8001 60.3396C50.4015 59.9409 50.1588 59.392 50.1588 58.7853C50.1588 58.1786 50.4072 57.6297 50.8001 57.231C51.1988 56.8323 51.7477 56.5839 52.3544 56.5839ZM43.6354 60.7151C44.2421 60.7151 44.791 60.9636 45.1897 61.3623C45.5884 61.761 45.8368 62.3099 45.8368 62.9166C45.8368 63.5233 45.5884 64.0722 45.1897 64.4708C44.791 64.8695 44.2421 65.118 43.6354 65.118C43.0287 65.118 42.4798 64.8695 42.0811 64.4708C41.6825 64.0722 41.434 63.5233 41.434 62.9166C41.434 62.3099 41.6825 61.761 42.0811 61.3623C42.4798 60.9636 43.0287 60.7151 43.6354 60.7151ZM36.7538 54.3825C37.3605 54.3825 37.9094 54.6309 38.3081 55.0296C38.7068 55.4283 38.9552 55.9772 38.9552 56.5839C38.9552 57.1906 38.7068 57.7395 38.3081 58.1382C37.9094 58.5368 37.3605 58.7795 36.7538 58.7795C36.1471 58.7795 35.5982 58.5311 35.1996 58.1382C34.8009 57.7395 34.5524 57.1906 34.5524 56.5839C34.5524 55.9772 34.8009 55.4283 35.1996 55.0296C35.5925 54.6309 36.1414 54.3825 36.7538 54.3825ZM35.6502 46.5822C36.2569 46.5822 36.8058 46.8306 37.2045 47.2293C37.6032 47.628 37.8459 48.1769 37.8459 48.7836C37.8459 49.3903 37.5974 49.9392 37.2045 50.3379C36.8058 50.7366 36.2569 50.9792 35.6502 50.9792C35.0435 50.9792 34.4946 50.7308 34.096 50.3379C33.6973 49.945 33.4546 49.3903 33.4546 48.7836C33.4546 48.1769 33.7031 47.628 34.096 47.2293C34.4889 46.8306 35.0435 46.5822 35.6502 46.5822ZM45.7502 49.8872C46.3569 49.8872 46.9058 50.1356 47.3045 50.5285C47.7031 50.9272 47.9458 51.4761 47.9458 52.0828C47.9458 52.6895 47.6974 53.2384 47.3045 53.6371C46.9115 54.0358 46.3569 54.2842 45.7502 54.2842C45.1435 54.2842 44.5946 54.0358 44.1959 53.6371C43.7972 53.2384 43.5545 52.6895 43.5545 52.0828C43.5545 51.4761 43.803 50.9272 44.1959 50.5285C44.5888 50.1299 45.1377 49.8872 45.7502 49.8872ZM36.3032 38.4583C37.8805 39.6544 39.7931 40.758 41.6594 41.0295C43.075 41.2318 44.479 40.9371 45.6924 39.7699C49.7774 35.8351 52.9322 37.5165 56.1217 39.2152C58.4329 40.4459 60.773 41.694 63.4655 39.8681C63.7313 39.689 63.9855 39.4521 64.234 39.1863C64.4882 38.9148 64.7424 38.6028 64.9967 38.285C65.1989 33.4835 64.6847 28.6704 63.4308 24.4236C61.5761 18.1255 58.1151 13.0871 53.0016 11.2382C52.4238 11.0302 51.8171 10.8568 51.1699 10.7297C49.0725 10.3079 46.9924 10.4755 44.9759 11.0822C42.6821 11.7698 40.4517 13.0294 38.3543 14.6356C38.285 14.6876 38.2041 14.7339 38.1174 14.7685C37.6032 14.9708 37.0196 14.7223 36.8174 14.2081C35.9565 12.0355 35.344 9.84568 34.9569 7.65004C34.6333 5.80686 34.46 3.94635 34.4311 2.0685L27.2201 2.43829L27.3241 3.65167C28.0002 11.7409 30.4905 17.1202 32.7092 21.9159C34.6622 26.1396 36.4129 29.93 36.6556 34.7488C36.7134 35.9044 36.5863 37.164 36.3032 38.4583ZM64.7655 41.3935C64.7078 41.434 64.65 41.4802 64.5864 41.5206C60.8943 44.0225 58.0169 42.4913 55.1741 40.9775C52.6318 39.6255 50.1183 38.285 47.0791 41.2144C45.3515 42.8785 43.3639 43.306 41.3704 43.0171C39.3713 42.7282 37.3952 41.6998 35.7138 40.5153C35.2284 41.9136 34.564 43.2887 33.7493 44.5194C32.0159 47.1426 29.5949 49.1649 26.7001 49.5578C23.9614 49.9334 21.8986 49.2343 19.755 48.5062C16.9584 47.5587 14.0059 46.5591 9.08879 48.3271C8.36654 48.5871 7.66741 48.8645 6.99138 49.1707C6.35002 49.4596 5.74911 49.7716 5.19443 50.1068C4.8593 50.309 4.54729 50.517 4.25839 50.725C3.95216 50.9446 3.67481 51.1699 3.42636 51.401C1.9703 52.7184 1.98186 53.1864 2.02231 54.5962C2.03386 54.9834 2.04542 55.4225 2.04542 55.723C2.09742 56.8901 2.27654 57.7164 2.55966 58.2191C2.733 58.5253 2.95834 58.6697 3.22413 58.6697C3.29346 58.6697 3.36858 58.664 3.45525 58.6466C3.54192 58.6351 3.62281 58.612 3.70948 58.5888C3.72104 58.5831 3.73259 58.5831 3.74415 58.5773C4.85352 58.2364 5.73178 57.5893 6.65048 56.9074C8.2741 55.7056 10.0075 54.4229 13.3356 54.1167C14.5317 54.0069 15.6699 54.1109 16.7331 54.4287C17.7905 54.7465 18.7785 55.2838 19.6914 56.035C21.8639 57.8377 22.7769 59.7618 23.6609 61.6338C23.944 62.2348 24.2271 62.8241 24.5276 63.3672C24.6258 63.5406 24.7298 63.7197 24.8512 63.9046C27.353 67.7816 32.2297 69.099 37.3836 68.9661C42.6936 68.8275 48.2578 67.1518 51.9384 65.1006C52.2966 64.9042 52.6433 64.6962 52.9842 64.4766C55.0759 63.1303 56.8844 61.4258 58.4502 59.2995C60.0334 57.1501 61.3681 54.5558 62.4948 51.453C63.1651 49.5983 63.7082 47.6222 64.1184 45.5768C64.4015 44.219 64.6153 42.8091 64.7655 41.3935Z" fill="#2F618A"/>
</g>
<defs>
<clipPath id="clip0_8_41">
<rect width="67.0479" height="71" fill="white"/>
</clipPath>
</defs>
</svg>
