<svg width="57" height="72" viewBox="0 0 57 72" fill="none" xmlns="http://www.w3.org/2000/svg">
<path d="M56.0298 60.4111C55.7463 59.352 55.3465 58.4028 54.8543 57.5591C53.9908 56.0759 52.8482 54.9224 51.5871 54.0083C50.6401 53.3228 49.6293 52.7626 48.6011 52.2813C47.0608 51.5606 45.4854 51.0069 44.0308 50.4686C42.5762 49.9324 41.2469 49.4073 40.212 48.7964C39.834 48.5722 39.4936 48.3394 39.1991 48.0955C38.7597 47.7286 38.4168 47.3374 38.1686 46.9002C37.9204 46.463 37.7534 45.9709 37.6897 45.3556C37.6435 44.9162 37.6237 44.503 37.6237 44.1076C37.6237 42.9431 37.7951 41.9345 38.0148 40.904C38.6652 40.1701 39.2606 39.2956 39.8231 38.2498C40.3878 37.1973 40.9239 35.969 41.4578 34.5144C41.8007 34.3584 42.1456 34.1715 42.4817 33.943C43.2508 33.4289 43.9802 32.7082 44.5888 31.748C45.1953 30.7879 45.683 29.5947 46.017 28.1226C46.1092 27.714 46.1532 27.3074 46.1532 26.9075C46.1555 26.0725 45.9576 25.2771 45.6259 24.5653C45.3951 24.0708 45.1029 23.6183 44.7623 23.2074C44.9359 22.5657 45.1468 21.7023 45.3358 20.6915C45.5951 19.2875 45.8104 17.6 45.8104 15.8268C45.8104 14.682 45.7203 13.4999 45.4874 12.3331C45.3139 11.4586 45.0567 10.5906 44.6964 9.76012C44.1537 8.50984 43.3648 7.33437 42.2684 6.36322C41.2532 5.46449 39.981 4.7483 38.4451 4.28902C37.9024 3.63864 37.3575 3.08486 36.7994 2.61476C36.3159 2.21046 35.8216 1.86987 35.3162 1.59088C34.556 1.169 33.7694 0.890007 32.963 0.720696C32.1567 0.551385 31.3349 0.489933 30.4823 0.489933C29.3068 0.489933 28.0697 0.606369 26.703 0.740383C26.1867 0.793117 25.7538 0.85682 25.3781 0.922772C24.8178 1.02388 24.3981 1.1271 24.062 1.1953C23.8928 1.22821 23.7456 1.25464 23.6006 1.27222C23.4556 1.28755 23.315 1.29866 23.1545 1.29866C22.9392 1.29866 22.6909 1.28108 22.3658 1.23496C21.3704 1.08997 20.4607 0.86582 19.7467 0.646025C19.3907 0.538307 19.0831 0.43073 18.8413 0.33834C18.7205 0.292216 18.6151 0.250451 18.5315 0.215295C18.4459 0.180139 18.382 0.147233 18.3448 0.129655L18.347 0.131905C18.2372 0.0748118 18.1317 0.0440152 18.0372 0.0264372C17.9427 0.00435933 17.8594 0 17.7868 0C17.6352 0 17.5275 0.0219373 17.4418 0.0440152C17.3562 0.0660931 17.2902 0.0923897 17.2309 0.116577C17.1166 0.162702 17.0287 0.211076 16.9408 0.26381C16.7803 0.360559 16.6266 0.468136 16.4639 0.593432C16.1804 0.813226 15.8685 1.08561 15.5367 1.40638C15.0401 1.88534 14.5083 2.46541 14.025 3.09822C13.7832 3.41237 13.557 3.74199 13.3526 4.08259C13.1483 4.42318 12.9682 4.77248 12.8253 5.13951C12.1265 6.95665 11.6652 8.63092 11.3796 10.1757C11.0917 11.7203 10.9819 13.1354 10.9819 14.4339C10.9819 16.5586 11.2784 18.3604 11.5642 19.8831C11.5642 19.9556 11.5664 20.0237 11.5708 20.0962C11.5797 20.2391 11.595 20.3863 11.6103 20.54C11.6345 20.7686 11.6608 21.0037 11.6806 21.2014C11.6916 21.3003 11.7005 21.3882 11.7071 21.4564C11.7093 21.4893 11.7114 21.5201 11.7114 21.542L11.7137 21.5639V21.5705V21.5728V21.7024L11.9927 22.9439C11.5906 23.3833 11.2434 23.8755 10.9732 24.4161C10.5952 25.1676 10.3711 26.0157 10.3711 26.9121C10.3711 27.3077 10.4173 27.7164 10.5095 28.1228C10.7293 29.1049 11.0215 29.9618 11.3708 30.709C11.8938 31.8317 12.5574 32.7041 13.2912 33.3589C13.8603 33.8686 14.4689 34.24 15.0709 34.5147C15.6026 35.9693 16.1388 37.1954 16.7034 38.2478C17.2659 39.2959 17.8592 40.1682 18.5096 40.9021C18.7294 41.9326 18.9007 42.9434 18.9029 44.1079C18.9029 44.5034 18.881 44.9165 18.8349 45.3559C18.7908 45.7778 18.6986 46.1425 18.5646 46.4722C18.3646 46.9644 18.0724 47.384 17.6747 47.7818C17.277 48.1729 16.7694 48.5399 16.1696 48.8805C15.561 49.2254 14.8556 49.5485 14.0888 49.8561C12.744 50.4011 11.2104 50.9152 9.65691 51.537C8.49241 52.0007 7.31244 52.5302 6.18745 53.1916C5.34371 53.6881 4.53287 54.2638 3.78588 54.9471C2.6675 55.971 1.70282 57.2476 1.03711 58.8253C0.369147 60.405 -0.00223981 62.2749 1.01638e-05 64.4854C1.01638e-05 64.7974 0.0659628 65.094 0.17354 65.3686C0.272398 65.6257 0.410912 65.8608 0.573473 66.0849C0.881158 66.5025 1.27659 66.876 1.76216 67.2364C2.61477 67.8648 3.74622 68.4536 5.2118 69.0074C7.40905 69.8358 10.3534 70.5807 14.1612 71.1211C17.9669 71.6617 22.6361 72 28.261 72C33.1411 72 37.2983 71.7473 40.7984 71.3277C43.4219 71.0113 45.6785 70.6026 47.5924 70.1346C49.0294 69.7853 50.2752 69.4007 51.3431 68.9964C52.143 68.6932 52.8461 68.3768 53.4568 68.0516C53.9138 67.8077 54.3181 67.5571 54.6763 67.3001C55.2125 66.9111 55.6431 66.5113 55.9705 66.0564C56.1353 65.8301 56.2693 65.5884 56.3681 65.3247C56.467 65.0654 56.5263 64.7798 56.5263 64.4854C56.5263 62.9731 56.3528 61.6217 56.0298 60.4111ZM38.2849 50.3565L31.2318 61.3712L30.4452 55.9638L32.4468 53.8456L31.1504 51.6835L36.6215 48.8074C36.7731 49.003 36.9335 49.1875 37.1027 49.3633C37.4654 49.7346 37.8631 50.062 38.2849 50.3565ZM18.0087 12.2562C24.3676 13.6668 36.8018 10.9708 36.8018 10.9708C36.8018 10.9708 36.9358 14.0535 39.0561 16.8836C39.8911 17.9953 40.5788 19.7334 41.0952 21.3858C40.9568 21.1287 40.6315 21.032 40.1459 20.9705C39.0561 20.8233 37.4367 20.7288 35.6131 20.8167C30.1947 21.0826 30.5968 21.5748 28.4698 21.5748C26.3429 21.5748 26.7449 21.0826 21.3266 20.8167C19.5028 20.7288 17.8835 20.8233 16.7915 20.9705C16.2246 21.0452 15.8685 21.1595 15.7873 21.5374C15.7587 21.678 15.7147 21.8362 15.5192 21.9131C16.1191 19.672 17.789 16.8089 18.0087 12.2562ZM40.0647 24.8157C40.0647 24.8465 40.0427 27.9534 37.9289 29.0146C37.2104 29.3771 36.3095 29.5771 35.3933 29.5793C34.4265 29.5793 33.5432 29.3595 32.8379 28.9443C32.0578 28.4873 31.5327 27.8083 31.2757 26.9315C31.2141 26.7272 31.1592 26.5229 31.1022 26.325C30.9351 25.7208 30.4847 24.0421 31.4405 23.3039C32.0557 22.8227 33.9651 22.5195 35.7955 22.5195C37.4588 22.5195 39.1551 22.7457 39.6516 23.2644C39.979 23.6072 40.1064 24.2181 40.0647 24.8157ZM25.8375 26.3252C25.7804 26.5229 25.7232 26.7272 25.664 26.9317C25.4069 27.8083 24.8817 28.4874 24.1039 28.9444C23.3964 29.3597 22.513 29.5795 21.5462 29.5795C20.6299 29.5772 19.7313 29.3773 19.0106 29.0147C16.8969 27.9534 16.8771 24.8465 16.8748 24.8159C16.8331 24.2182 16.9605 23.6073 17.2857 23.2646C17.7845 22.746 19.4807 22.5197 21.1442 22.5197C22.9723 22.5197 24.8839 22.8229 25.5013 23.3041C26.455 24.0423 26.0046 25.7209 25.8375 26.3252ZM18.7778 37.1335C18.2262 36.1051 17.677 34.8264 17.1122 33.2312L16.9255 32.7105L16.4068 32.5194C16.0464 32.3875 15.6949 32.2162 15.3588 31.9898C14.8513 31.6492 14.3701 31.1834 13.9284 30.489C13.4867 29.7946 13.0912 28.863 12.8056 27.604C12.7506 27.3645 12.7287 27.136 12.7287 26.9118C12.7287 26.4064 12.8495 25.9275 13.0803 25.4705C13.2693 25.0903 13.5329 24.7322 13.8537 24.4069C14.3942 25.2244 14.8424 25.8725 15.0051 26.0351C15.3149 26.3449 15.4687 26.046 15.4929 25.466C15.684 26.7558 16.2972 28.8849 18.2769 29.9374C21.1267 31.4513 25.3806 30.8843 26.8241 27.5139C27.4767 25.9933 27.4855 24.508 28.4698 24.508C29.4519 24.508 29.463 25.9934 30.1155 27.5139C31.5613 30.8845 35.8152 31.4513 38.665 29.9374C41.5127 28.4234 41.5325 24.6749 41.5325 24.4113C41.5325 24.275 41.6621 24.1718 41.8466 24.152C42.0884 25.1692 42.2135 25.8593 42.2135 25.8593C42.2135 25.8593 42.4861 25.3385 42.8947 24.6441C43.1386 24.9298 43.3408 25.2374 43.4901 25.5582C43.6901 25.9889 43.7978 26.4394 43.7978 26.9073C43.7978 27.1336 43.7736 27.3644 43.7186 27.6017C43.5296 28.4411 43.2901 29.1354 43.0221 29.7111C42.6178 30.5724 42.1519 31.1657 41.6643 31.6008C41.1787 32.0359 40.6601 32.3192 40.1218 32.5192L39.601 32.7082L39.4164 33.2312C38.8516 34.8264 38.3001 36.1074 37.7487 37.1335C37.195 38.1619 36.6457 38.9353 36.0745 39.5373L35.8482 39.7768L35.7779 40.0955C35.5229 41.2709 35.2681 42.5696 35.2681 44.1076C35.2681 44.5822 35.2923 45.0766 35.3451 45.5974C35.4088 46.2082 35.5494 46.7817 35.7582 47.309C35.7671 47.3332 35.7801 47.3595 35.789 47.3816L28.6325 51.1455L20.7005 47.4651C20.9444 46.8938 21.1092 46.2698 21.1795 45.5975C21.2345 45.0768 21.2564 44.5823 21.2564 44.1077C21.2586 42.5696 21.0037 41.2688 20.7466 40.0933L20.6763 39.7747L20.4501 39.5373C19.8808 38.9308 19.3293 38.1617 18.7778 37.1335ZM18.7141 50.0049C19.1272 49.6732 19.5073 49.3018 19.8434 48.8843L25.8925 51.6924L24.6004 53.8458L26.6 55.964L25.8617 61.055L18.145 50.4226C18.3406 50.2883 18.5317 50.1499 18.7141 50.0049ZM54.1688 64.4759C54.1665 64.4892 54.1512 64.533 54.1094 64.6033C54.0303 64.7396 53.8458 64.9593 53.5337 65.2098C53.2635 65.4274 52.8987 65.6712 52.4395 65.9218C51.6332 66.3635 50.5411 66.8227 49.1568 67.2578C47.0783 67.9125 44.3339 68.5101 40.871 68.9452C37.4081 69.376 33.2268 69.644 28.261 69.644C23.4666 69.644 19.4017 69.3935 16.0092 68.987C13.4647 68.6816 11.2983 68.2861 9.4921 67.8467C8.13424 67.515 6.97846 67.1568 6.01828 66.792C5.29533 66.5195 4.68235 66.2427 4.1792 65.9725C3.80121 65.7702 3.48269 65.5704 3.22338 65.3858C2.83667 65.1089 2.59058 64.8562 2.46753 64.6826C2.40594 64.5991 2.37528 64.5332 2.36432 64.5025C2.35771 64.4893 2.35546 64.4806 2.35546 64.4761C2.35546 63.1577 2.50494 62.0284 2.76411 61.0484C2.99037 60.1914 3.30242 59.4465 3.68252 58.7874C4.34612 57.6339 5.21841 56.7286 6.25551 55.9661C7.02894 55.3926 7.89687 54.9026 8.81528 54.4654C9.84577 53.9754 10.94 53.5536 12.0387 53.147V55.52H12.8626H13.6865V52.5384C14.7368 52.1451 15.7607 51.7408 16.7143 51.2575L28.9067 68.0554L39.559 51.4244C39.5919 51.4749 39.6249 51.5255 39.6557 51.5739C40.0995 52.2879 40.4093 53.0657 40.6159 53.9469C40.8202 54.8258 40.9147 55.8101 40.9147 56.9066C40.9147 59.4467 40.9147 61.6592 40.9147 63.149H37.0874V64.7991H46.5092V63.149H42.6815C42.6815 61.6592 42.6815 59.4467 42.6815 56.9066C42.6815 55.3092 42.4991 53.8546 42.0465 52.5274C42.007 52.4131 41.9652 52.2989 41.9212 52.1868C43.2087 52.6943 44.5556 53.1514 45.8609 53.67C46.9793 54.1117 48.0647 54.595 49.0514 55.1685C49.794 55.5992 50.4818 56.0825 51.0926 56.6318C52.0089 57.4646 52.7603 58.4467 53.3009 59.7057C53.8392 60.9626 54.1688 62.5095 54.1688 64.4759Z" fill="#2F618A"/>
</svg>
