<svg width="70" height="70" viewBox="0 0 70 70" fill="none" xmlns="http://www.w3.org/2000/svg">
<path d="M65.2813 1.80794C60.1976 -1.00673 54.6266 0.916777 50.9047 3.79042C45.9421 1.38434 40.514 0.0907534 34.9996 0C29.4852 0.0906387 24.057 1.38424 19.0945 3.79042C15.372 0.917373 9.80165 -1.00792 4.71796 1.80794C2.98367 2.71371 1.6014 4.17253 0.790337 5.95308C-0.0207287 7.73362 -0.214165 9.734 0.2407 11.6369C0.911585 14.1943 2.19703 16.549 3.98525 18.4964C3.93163 19.6359 4.12445 20.7735 4.55057 21.8317C4.97669 22.8898 5.62608 23.8436 6.45441 24.6279C7.71293 25.9246 9.35588 26.7811 11.1396 27.0702C11.444 27.1137 11.7512 27.1359 12.0587 27.1363C12.7239 27.1525 13.3854 27.0352 14.0046 26.7919C14.6237 26.5484 15.1879 26.1835 15.6639 25.7186C17.902 23.4812 17.4123 19.3494 14.5726 16.5097C12.5591 14.4963 9.89993 13.6712 7.72205 14.155C6.79729 13.0489 6.12517 11.7543 5.75268 10.3615C5.57448 9.65654 5.64744 8.91147 5.95902 8.25441C6.27058 7.59735 6.8013 7.06936 7.45995 6.76116C9.64914 5.54772 13.3889 5.86107 16.8064 9.29109C16.9534 9.43803 17.0992 9.58258 17.2437 9.72476C18.2663 10.7272 19.0789 11.9234 19.6342 13.2434C20.1894 14.5634 20.4762 15.9807 20.4777 17.4128C20.4471 19.698 20.1064 21.9685 19.465 24.162C16.9595 33.0046 19.1195 36.9868 21.8543 42.0282C24.694 47.2685 28.2373 53.7992 28.2373 68.952C28.2373 69.2284 28.3471 69.4936 28.5426 69.6891C28.738 69.8845 29.0032 69.9944 29.2798 69.9944C29.5562 69.9944 29.8214 69.8845 30.0169 69.6891C30.2123 69.4936 30.3222 69.2284 30.3222 68.952C30.3222 53.2702 26.642 46.4846 23.6844 41.0322C20.9805 36.048 19.1946 32.752 21.4683 24.7286C22.1626 22.3528 22.5307 19.8937 22.5626 17.4188C22.5616 15.7083 22.2197 14.0152 21.5572 12.4383C20.8946 10.8614 19.9247 9.43226 18.7037 8.23432C18.5637 8.09791 18.4243 7.95851 18.2832 7.81733C14.0996 3.61767 9.32448 3.34246 6.44965 4.93475C5.39554 5.46492 4.55211 6.33655 4.05687 7.40752C3.56163 8.47848 3.44378 9.68563 3.72255 10.8322C4.11708 12.361 4.81944 13.7933 5.78664 15.0414C5.638 15.1568 5.49656 15.2811 5.36309 15.4137C5.13903 15.6403 4.93938 15.89 4.7674 16.1582C3.59222 14.6905 2.74173 12.99 2.27203 11.1693C1.92654 9.70813 2.07883 8.17342 2.70473 6.80862C3.33064 5.44382 4.39432 4.32708 5.72707 3.63554C10.14 1.19319 15.1105 3.16256 18.2909 5.82115C18.4467 5.95149 18.6372 6.03342 18.8389 6.0568C19.0407 6.0802 19.2448 6.04404 19.4263 5.9528C24.2598 3.50689 29.5834 2.18468 34.9996 2.08493C40.4153 2.18385 45.7387 3.50503 50.5724 5.94982C50.7537 6.04107 50.958 6.07722 51.1598 6.05383C51.3615 6.03043 51.552 5.94852 51.7077 5.81817C54.8893 3.16017 59.8586 1.18902 64.2716 3.63256C65.6051 4.32407 66.6693 5.44128 67.2952 6.80675C67.9212 8.17222 68.0731 9.7077 67.7266 11.1693C67.2572 12.9922 66.4059 14.6947 65.2288 16.1637C65.0578 15.8954 64.8591 15.6459 64.6362 15.419C64.5025 15.2865 64.3611 15.1622 64.2126 15.0467C65.1803 13.7975 65.8827 12.3637 66.2767 10.8334C66.5553 9.68682 66.4374 8.47971 65.9422 7.40878C65.447 6.33784 64.6036 5.46621 63.5496 4.93595C60.6753 3.34425 55.9008 3.61886 51.7149 7.81852C51.5749 7.95971 51.4355 8.0991 51.2979 8.23551C50.077 9.43333 49.1071 10.8624 48.4446 12.4393C47.7821 14.0161 47.4405 15.7091 47.4396 17.4194C47.4716 19.8945 47.8397 22.3538 48.5338 24.7298C50.8076 32.755 49.0218 36.048 46.3179 41.0328C43.3573 46.4846 39.6771 53.2702 39.6771 68.952C39.6771 69.2284 39.7868 69.4936 39.9824 69.6891C40.1779 69.8845 40.443 69.9944 40.7195 69.9944C40.996 69.9944 41.2611 69.8845 41.4567 69.6891C41.6521 69.4936 41.762 69.2284 41.762 68.952C41.762 53.7992 45.3028 47.2685 48.1472 42.0265C50.882 36.985 53.0421 33.0028 50.5366 24.1609C49.8951 21.9671 49.5545 19.6964 49.5239 17.411C49.5258 15.9797 49.8127 14.5629 50.3678 13.2436C50.923 11.9243 51.7353 10.7287 52.7574 9.72651C52.9027 9.58437 53.0484 9.43961 53.1946 9.29228C56.6126 5.86166 60.3518 5.54832 62.5416 6.76235C63.2001 7.07075 63.7305 7.59883 64.0419 8.25587C64.3532 8.91291 64.426 9.65787 64.2477 10.3627C63.875 11.7552 63.2029 13.0496 62.2784 14.1556C60.1011 13.6719 57.4413 14.4968 55.4278 16.5103C52.5882 19.35 52.0985 23.48 54.3365 25.7192C54.8125 26.184 55.3767 26.5489 55.9959 26.7924C56.615 27.0359 57.2765 27.1531 57.9417 27.137C58.2493 27.1364 58.5564 27.1144 58.8609 27.0708C60.6445 26.7816 62.2875 25.9252 63.546 24.6285C64.3742 23.844 65.0234 22.8901 65.4494 21.8319C65.8752 20.7735 66.0679 19.6359 66.014 18.4964C67.8017 16.5501 69.0871 14.1966 69.7586 11.6405C70.2142 9.73701 70.0213 7.73588 69.2101 5.95457C68.3991 4.17327 67.0163 2.71387 65.2813 1.80794ZM13.0982 17.9811C15.0909 19.9743 15.5906 22.8414 14.1895 24.2419C12.7646 25.6668 9.95591 25.1783 7.92877 23.1505C5.93615 21.158 5.43637 18.2909 6.83745 16.8898C7.12358 16.6175 7.46116 16.4051 7.83042 16.265C8.19968 16.1249 8.5932 16.0598 8.98791 16.0737C10.5528 16.1551 12.0257 16.8386 13.0982 17.9811ZM62.0705 23.1505C60.0451 25.1759 57.2334 25.6662 55.8097 24.2419C54.4086 22.8414 54.9084 19.9743 56.901 17.9811C58.9264 15.9558 61.7369 15.4649 63.1618 16.8898C64.5629 18.2909 64.0631 21.158 62.0705 23.1505Z" fill="#2F618A"/>
<path d="M44.542 25.5763C43.1927 19.4407 43.9654 15.1809 44.8499 12.6914C45.0014 12.2632 45.0466 11.8047 44.9817 11.3552C44.9168 10.9058 44.7439 10.4788 44.4777 10.1109C44.211 9.74567 43.8612 9.44924 43.4572 9.24609C43.0532 9.04296 42.6066 8.93895 42.1544 8.9427C41.8089 8.95117 41.4632 8.93124 41.1209 8.88314C40.3898 8.7609 39.6761 8.55068 38.9955 8.25705C37.7374 7.69661 36.3756 7.40698 34.9983 7.40698C33.6211 7.40698 32.2592 7.69661 31.0012 8.25705C30.3205 8.55068 29.6069 8.7609 28.8758 8.88314C28.5333 8.93084 28.1874 8.95076 27.8417 8.9427C27.3893 8.93803 26.9424 9.04162 26.5383 9.24484C26.1341 9.44805 25.7845 9.74499 25.5184 10.1109C25.2522 10.4788 25.0793 10.9058 25.0144 11.3552C24.9496 11.8047 24.9948 12.2632 25.1461 12.6914C26.0307 15.1809 26.8033 19.4377 25.4541 25.5763C24.0065 32.1653 25.1991 34.949 26.8498 38.8008C28.9187 43.6259 31.7512 50.2382 31.7512 68.9514C31.7512 69.2279 31.861 69.4931 32.0566 69.6886C32.2521 69.8841 32.5172 69.9939 32.7937 69.9939C33.0701 69.9939 33.3353 69.8841 33.5308 69.6886C33.7263 69.4931 33.8362 69.2279 33.8362 68.9514C33.8362 49.8105 30.9059 42.9724 28.7662 37.9799C27.1608 34.2229 26.1892 31.9593 27.4938 26.0238C28.949 19.4026 28.0894 14.7395 27.1137 11.9933C27.0751 11.8829 27.0641 11.7647 27.0815 11.6491C27.099 11.5334 27.1444 11.4238 27.2137 11.3297C27.2787 11.2371 27.3647 11.1612 27.4648 11.1085C27.5649 11.056 27.6761 11.028 27.7892 11.0271H27.8036C28.2617 11.0371 28.7198 11.0102 29.1736 10.9466C30.0621 10.8041 30.9298 10.5538 31.7578 10.2015C32.7753 9.73361 33.882 9.49135 35.0019 9.49135C36.1219 9.49135 37.2286 9.73361 38.2461 10.2015C39.074 10.5538 39.9418 10.8041 40.8302 10.9466C41.2841 11.0102 41.7422 11.037 42.2003 11.0271H42.2075C42.3206 11.0281 42.4319 11.056 42.5321 11.1086C42.6323 11.1612 42.7185 11.2371 42.7835 11.3297C42.8529 11.4238 42.8983 11.5334 42.9157 11.6491C42.9332 11.7647 42.9221 11.8829 42.8836 11.9933C41.9072 14.7395 41.0482 19.4026 42.5036 26.0238C43.8075 31.9587 42.8359 34.2253 41.2276 37.9806C39.0878 42.9731 36.1576 49.8111 36.1576 68.952C36.1576 69.2285 36.2674 69.4937 36.4629 69.6892C36.6584 69.8846 36.9235 69.9945 37.2001 69.9945C37.4765 69.9945 37.7417 69.8846 37.9372 69.6892C38.1326 69.4937 38.2425 69.2285 38.2425 68.952C38.2425 50.2388 41.0751 43.6284 43.1439 38.8014C44.797 34.949 45.9895 32.1653 44.542 25.5763Z" fill="#2F618A"/>
</svg>
