<svg width="70" height="53" viewBox="0 0 70 53" fill="none" xmlns="http://www.w3.org/2000/svg">
<path d="M34.3593 3.02707C35.1176 7.46196 36.3434 11.606 35.5851 16.1575C33.8926 26.3122 34.0676 33.1979 34.2426 41.4267C34.301 44.2866 34.3593 47.3207 34.3593 50.4723C34.7676 50.589 35.2343 50.589 35.6434 50.414C35.6434 38.1002 35.7601 25.6114 36.8692 13.3567C37.2192 9.73852 36.2275 6.06196 35.4684 2.56041C35.0593 2.73541 34.7093 2.91041 34.3593 3.02707ZM19.1864 20.4182C17.3773 19.7765 16.969 18.0257 17.3773 16.3333C17.4356 16.1 17.5523 15.925 17.7273 15.75C17.4356 14.7575 17.2606 13.8825 17.0273 12.5984C17.494 11.8984 20.7038 11.8401 20.4705 13.1817C20.3538 13.8234 19.7122 15.2242 19.2447 16.1C19.5947 16.7416 18.9531 17.5007 19.4197 18.2007C19.6531 17.5591 20.0614 16.6833 20.9372 16.9166C21.2288 16.0416 21.6372 15.3409 22.163 14.4075C22.8046 14.1742 24.9645 15.8083 24.1471 16.5666C23.6804 16.975 22.4546 17.5591 21.6963 17.9091C21.6963 18.0841 21.638 18.2591 21.5213 18.3757C20.3538 20.1849 22.163 24.1531 24.7312 19.9515C27.4153 15.6333 23.0387 8.68852 16.5614 10.1476C10.3174 11.5484 7.16584 18.4349 6.40673 24.2122C5.35595 32.382 8.62418 41.4275 17.2614 43.9374C19.5372 44.5791 21.6963 44.5791 23.4471 43.8208C28.9327 41.37 29.9835 33.1411 23.4471 29.9312C22.163 30.1645 21.113 30.8653 20.3538 31.857C20.4122 32.9661 21.1705 34.4244 23.5054 35.1835C24.2637 35.4169 25.3145 35.5335 25.9562 35.8835C27.1236 36.4669 25.3145 38.8601 24.4971 38.8017C23.8554 38.1601 23.3296 37.6343 22.863 37.051C21.3455 36.5843 19.9447 35.7085 19.1281 34.3669C18.8364 35.5343 18.8364 36.9343 19.3031 38.1017C20.0614 38.9184 21.2872 40.4359 21.5788 41.1366C22.1622 42.5374 18.6606 43.2957 17.9606 42.6541C17.9023 41.4283 17.844 40.5533 17.9023 39.5609C16.3848 38.1601 16.9682 34.0752 17.7273 32.3244C18.6614 30.3403 20.2947 28.7645 22.4546 28.1229C23.7971 27.6562 24.8471 25.088 23.5637 23.8046C21.3455 24.2697 19.5364 22.519 19.1864 20.4182ZM9.1484 34.4236C10.7242 33.8986 11.7158 33.5486 13.2333 33.3145C13.5833 33.1979 14.05 32.9062 14.5757 32.3221C15.2757 31.5637 15.9182 30.163 15.8598 29.1122C14.9848 29.4622 13.8757 29.6372 12.475 29.4622C11.4825 30.2205 10.0242 31.0963 9.3234 31.3296C7.74762 31.7963 7.28095 27.9447 8.03929 27.3031C9.55673 27.3614 10.6067 27.4197 11.8325 27.5947C12.0658 27.6531 14.5166 28.1197 15.5674 26.8947C15.9174 26.4281 15.9174 25.844 15.6841 25.319C14.75 23.3932 12.4158 23.4515 11.8908 23.3349C10.6651 23.3932 9.03095 23.3932 8.33095 23.2182C6.69684 22.8682 8.33095 19.3666 9.3234 19.1333C10.6075 20.0083 11.5408 20.5924 12.5333 21.4674C13.5841 21.5841 14.5174 21.8757 15.2757 22.2841C15.2757 21.175 15.0424 19.6 14.2833 18.6659C13.2908 18.3159 11.3067 17.3817 10.6651 16.8567C9.55595 15.8643 12.3575 13.6469 13.2325 13.9385C13.7575 14.8726 14.1666 15.631 14.5166 16.3893C16.9674 17.6151 17.6098 21.4666 17.0841 23.8591C17.9007 24.9682 18.1348 26.4265 17.4924 27.6523C18.4848 29.4031 17.3174 32.2039 16.0916 33.6046C15.5666 34.188 14.3992 35.2387 13.5825 35.0054C12.9992 35.8804 12.1234 37.0479 11.5984 37.4562C10.4325 38.3926 8.74006 35.2994 9.1484 34.4236ZM43.5798 20.5932C42.1207 21.7023 40.02 22.4023 38.2108 22.519C38.2108 23.3356 38.1525 24.1531 38.0942 24.9114C39.7283 23.394 42.2374 22.169 44.3965 21.8182C44.1048 21.4099 43.8132 21.0015 43.5798 20.5932ZM38.3275 20.5349C39.7283 20.3599 41.5957 19.7765 42.5874 18.7841C41.1866 15.6909 41.1866 11.081 42.7624 8.10441C44.7465 4.31118 48.9481 3.02707 53.0337 3.49374C62.7793 4.66118 68.4983 14.1151 69.7241 23.044C71.2999 34.1903 66.1059 46.1541 54.6679 49.5965C50.6413 50.8223 45.8556 50.6473 42.4707 47.9041C39.3192 45.3366 38.0942 41.3676 38.7358 37.3994C39.4358 33.7229 41.7124 30.4546 44.9798 28.5289C44.7465 28.3539 44.5715 28.1205 44.4548 27.8289C40.2533 30.2796 37.7434 35.1236 37.6851 39.9093C37.6267 43.9942 37.6267 47.8457 37.6267 50.9973C37.6267 52.6897 32.6077 53.5064 32.3744 50.5306C32.3744 47.0874 32.3161 44.2283 32.2577 41.4851C32.1994 34.9486 30.9153 30.8637 25.4296 27.7713C25.313 28.0046 25.138 28.2963 24.963 28.4713C28.2895 30.3387 30.6236 33.6653 31.2653 37.4002C32.082 42.1859 29.9812 47.0291 25.488 49.1882C22.6281 50.5306 18.9515 50.7056 15.3333 49.5965C3.83773 46.1541 -1.29716 34.132 0.27784 23.044C1.50362 14.1151 7.22262 4.66118 16.9682 3.49374C26.5971 2.38463 30.5653 10.7885 27.4728 18.8416C28.6986 20.0091 31.2661 20.7091 32.9585 20.5341C33.1335 19.075 33.3668 17.4992 33.6002 15.8651C34.1835 12.5385 33.5418 9.38696 32.9002 6.17785C32.6668 4.95207 32.4335 3.72707 32.2585 2.44296C32.2002 1.85963 32.5502 1.33385 33.1335 1.27552C33.1335 1.27552 34.4176 1.10052 35.4676 0.224739C36.051 -0.241928 36.9851 0.0497389 37.1601 0.808072C37.3351 1.74218 37.5101 2.55885 37.6851 3.43385C38.4434 6.58541 39.2025 10.0286 38.8525 13.5302C38.6775 15.8075 38.5025 18.1416 38.3275 20.5349ZM44.0465 23.9197C41.8291 24.5031 38.6775 26.2539 37.9775 28.5304C37.9192 29.6979 37.8608 30.8062 37.8608 31.9736C39.2616 29.5229 41.3041 27.3046 43.8132 25.963C43.7548 25.2614 43.8132 24.5614 44.0465 23.9197ZM32.7252 22.519C30.6827 22.6356 28.232 21.9356 26.5978 20.7099C26.4228 21.1182 26.1312 21.4682 25.8395 21.8773C28.1736 22.344 30.8002 23.6281 32.4343 25.3205C32.5502 24.4447 32.6085 23.5106 32.7252 22.519ZM32.2585 28.588C31.5002 26.2539 28.1153 24.4447 25.8395 23.8606C26.0728 24.5023 26.1312 25.2031 26.0728 25.8447C28.6403 27.1872 30.7418 29.463 32.1418 31.9721C32.2002 30.8637 32.2002 29.6971 32.2585 28.588ZM49.4155 22.4606C50.583 21.8773 51.5163 23.6281 50.3496 24.2114C49.0072 24.9114 47.6655 24.6197 46.4397 23.8031C44.514 25.6122 46.6731 28.5304 50.058 28.3546C51.3421 28.2963 51.4587 30.2804 50.1163 30.3387C48.7738 30.3971 47.6655 30.2221 46.7897 29.8137C43.5798 31.3312 41.3624 34.307 40.7207 37.7502C40.1374 41.0184 41.1291 44.2283 43.7556 46.3874C46.6155 48.7215 50.7004 48.7215 54.0853 47.7299C64.59 44.5783 69.1999 33.4903 67.7991 23.3364C66.6316 15.2833 61.6717 6.52941 52.8012 5.47863C49.533 5.07029 46.1481 6.00363 44.514 9.03852C42.5882 12.5984 43.5798 17.4424 45.9147 20.5932C46.9647 21.9356 48.2488 22.9856 49.4155 22.4606ZM29.457 39.2676C28.582 41.8351 26.8312 44.4616 24.263 45.6283C22.1038 46.5624 19.419 46.6208 16.7348 45.8616C7.10595 43.0601 3.2544 33.0812 4.42106 23.9773C5.29606 17.3242 8.97262 9.79607 16.1507 8.22029C20.469 7.22785 24.6713 8.92029 26.4804 13.006C26.3637 7.69529 22.6288 4.83618 17.2015 5.47785C8.38929 6.52863 3.37028 15.2817 2.26195 23.3356C0.80284 33.4312 5.35517 44.52 15.9174 47.7291C19.069 48.6632 22.2197 48.5457 24.613 47.3791C27.8228 45.8624 29.5153 42.6525 29.457 39.2676Z" fill="#2F618A"/>
</svg>
