<svg width="65" height="70" viewBox="0 0 65 70" fill="none" xmlns="http://www.w3.org/2000/svg">
<g clip-path="url(#clip0_8_38)">
<path d="M25.2189 49.401C26.6829 49.2244 27.8451 48.8371 28.7736 48.2845C29.668 47.749 30.3516 47.054 30.8757 46.2394C31.8384 44.7469 32.0662 44.1431 32.1973 43.7842C32.3283 43.4424 32.4023 43.2316 32.6644 42.9354L32.6872 42.9126C32.972 42.5879 33.4049 42.286 34.4474 41.5397C34.8576 41.2492 35.3589 40.8903 35.7918 40.577C36.8229 39.8364 37.666 38.9933 38.304 38.0363C38.9307 37.0964 39.3636 36.0311 39.5801 34.8291C39.6541 34.4303 39.6655 34.0715 39.6769 33.798C39.6997 33.291 39.7111 32.9321 39.9731 32.5619C40.6055 31.6618 41.2777 31.7928 42.7987 32.8638C43.7443 33.5303 44.5134 34.3278 45.1058 35.2507C45.6926 36.1735 46.1027 37.2274 46.3306 38.4009C46.6211 39.9048 46.6268 41.1011 46.6325 42.2917C46.6382 43.8981 46.6439 45.4875 47.4813 47.7946C47.8174 48.7288 48.2389 49.6631 48.7459 50.603C49.2415 51.5259 49.8112 52.443 50.4606 53.3545L59.7575 62.6514C60.1847 63.0786 60.179 63.7736 59.7518 64.2009L54.2773 69.6753C53.8444 70.1082 53.1494 70.1082 52.7279 69.681L43.6759 60.6291C39.9333 57.8263 36.1165 57.4105 32.7783 57.0459C28.8818 56.6187 25.5607 56.2598 23.2992 52.7336C22.2168 51.0474 22.0459 50.3638 23.0314 49.7258C23.4074 49.4808 23.7777 49.4694 24.3018 49.458C24.5581 49.4523 24.8885 49.4409 25.2189 49.401ZM52.1411 9.16016L52.557 13.7972L60.6234 9.87223L51.3379 19.6875L50.6714 15.4606L42.6733 19.7103L52.1411 9.16016ZM33.5417 4.11296L36.3672 8.09489L41.4429 0L38.5832 14.1048L35.5981 10.6584L30.7446 18.9128L33.5417 4.11296ZM57.2909 23.2992L55.1034 27.7995L64.8844 28.3862L50.7853 32.7555L52.4146 28.3748L42.6278 28.2723L57.2909 23.2992ZM6.45426 11.4901L2.66602 15.2783L12.0996 24.7233C12.111 24.7347 12.1224 24.7461 12.1338 24.7632C13.4953 26.0506 14.3783 27.7425 14.908 29.7363C15.4207 31.6504 15.603 33.8436 15.5802 36.2191C15.9277 38.7598 16.8734 41.2606 18.1836 43.0379C18.9014 44.0121 19.7103 44.7469 20.5591 45.1172C21.3167 45.4476 22.1427 45.4704 22.9915 45.0944C23.8517 44.707 24.7575 43.9209 25.6803 42.6278C26.0164 42.155 26.2899 41.5568 26.5747 40.9302C26.7456 40.5599 26.9165 40.1782 27.1102 39.8022C28.8363 36.4299 29.8389 36.071 31.2573 35.5583C31.8897 35.3304 32.6416 35.057 33.7069 34.1968C35.0798 33.0859 35.8545 31.9466 35.9798 30.7674C36.1051 29.5825 35.5924 28.2609 34.3905 26.7798C34.1227 26.4437 33.7752 26.1702 33.3708 25.9367C32.9321 25.6803 32.4308 25.481 31.884 25.3158C29.9642 24.7347 28.3065 24.672 26.7057 24.6094C23.8631 24.5011 21.1743 24.3929 17.4316 21.8636C14.5264 19.8926 11.228 16.4575 8.31706 13.4212C7.69613 12.7718 7.09798 12.1452 6.45426 11.4901ZM0.324707 14.5036L5.67953 9.14876C6.11247 8.71582 6.80746 8.71582 7.2404 9.14876C7.93538 9.84375 8.89811 10.8464 9.90072 11.8945C12.7319 14.8454 15.9391 18.1893 18.6678 20.0407C21.8978 22.2282 24.2733 22.3193 26.7912 22.4162C28.5343 22.4845 30.3402 22.5529 32.522 23.2137C33.2341 23.4302 33.8892 23.6922 34.4759 24.0283C35.0968 24.3872 35.6437 24.8315 36.0994 25.3898C37.6945 27.3551 38.361 29.2179 38.173 31.0067C37.985 32.7954 36.9369 34.4189 35.1025 35.9058C33.7524 36.9995 32.8125 37.3413 32.015 37.6261C31.075 37.9679 30.4085 38.2072 29.0755 40.8106C28.8932 41.1637 28.7337 41.5112 28.5799 41.8473C28.2495 42.5765 27.9305 43.2715 27.4691 43.9152C26.307 45.5387 25.0993 46.5641 23.8973 47.1053C22.439 47.7604 21.0148 47.7092 19.6932 47.1395C18.4627 46.6097 17.3519 45.6242 16.4176 44.3538C14.8853 42.2746 13.7801 39.3636 13.3984 36.4469C13.3927 36.3957 13.387 36.3387 13.387 36.2874C13.4155 34.0715 13.2503 32.0435 12.7889 30.3117C12.3617 28.7052 11.6724 27.3608 10.6356 26.3753C10.6014 26.3525 10.5729 26.3241 10.5444 26.2899L0.324707 16.0588C-0.108236 15.6315 -0.108236 14.9308 0.324707 14.5036ZM29.8844 50.1644C28.7052 50.8651 27.2583 51.355 25.4639 51.5715C25.3613 51.5828 25.2702 51.5942 25.179 51.5999C26.8937 54.1976 29.7192 54.5052 33.029 54.8698C36.6463 55.2629 40.7821 55.7186 44.9976 58.8859C45.0659 58.9258 45.1286 58.9771 45.1856 59.034L53.5026 67.3511L57.4162 63.4375L48.8485 54.8584C48.8086 54.8185 48.7687 54.773 48.7345 54.7274C47.9997 53.6963 47.356 52.6766 46.8091 51.6569C46.2565 50.6315 45.7951 49.6004 45.4191 48.5636C44.4564 45.9033 44.4507 44.1203 44.445 42.3259C44.4393 41.2378 44.4336 40.1383 44.1829 38.8395C44.0063 37.9452 43.6987 37.1476 43.2544 36.4526C42.867 35.8488 42.3828 35.3133 41.7847 34.8576C41.7676 34.9658 41.7505 35.0855 41.7334 35.2051C41.4657 36.709 40.9188 38.0477 40.1156 39.2497C39.3237 40.4346 38.2983 41.4657 37.0622 42.3543C36.4128 42.8215 36.0254 43.0949 35.7121 43.3228C34.8177 43.9608 34.4531 44.2171 34.3221 44.3595L34.3164 44.3652C34.305 44.3766 34.2822 44.4393 34.2424 44.5475C34.0772 44.9919 33.7923 45.7552 32.71 47.43C32.0093 48.5067 31.0921 49.4466 29.8844 50.1644ZM41.7277 33.8607H41.7505C41.7619 33.855 41.7733 33.8493 41.7847 33.8436C41.8701 33.667 41.91 33.5929 41.7562 33.8094C41.7391 33.8322 41.7334 33.8493 41.7277 33.8607ZM41.7277 33.8607C41.722 33.8721 41.7334 33.8721 41.7505 33.8607H41.7277ZM24.2049 51.5658C23.9657 51.7196 24.0625 51.6854 24.2676 51.6113C24.2505 51.5658 24.3018 51.5031 24.2049 51.5658Z" fill="#2F618A"/>
</g>
<defs>
<clipPath id="clip0_8_38">
<rect width="64.8844" height="70" fill="white"/>
</clipPath>
</defs>
</svg>
