<svg width="90" height="73" viewBox="0 0 90 73" fill="none" xmlns="http://www.w3.org/2000/svg">
<g clip-path="url(#clip0_4_2097)">
<path d="M36 37.1112V38.8889C36 39.5027 36.4477 40 37 40C37.5523 40 38 39.5027 38 38.8889V37.1112C38 36.4974 37.5523 36 37 36C36.4477 36 36 36.4974 36 37.1112Z" fill="#2F618A"/>
<path d="M53 37.1112V38.8889C53 39.5027 53.4478 40 54 40C54.5522 40 55 39.5027 55 38.8889V37.1112C55 36.4974 54.5522 36 54 36C53.4478 36 53 36.4974 53 37.1112Z" fill="#2F618A"/>
<path d="M47.0789 38.3431C46.2429 39.2192 44.7567 39.2185 43.9212 38.3431C43.5237 37.9268 42.8318 37.8834 42.3757 38.2461C41.9196 38.6092 41.8722 39.241 42.2696 39.6574C43.9788 41.4483 47.0228 41.4467 48.7304 39.6574C49.1278 39.241 49.0804 38.6092 48.6243 38.2461C48.1683 37.8833 47.4763 37.9266 47.0789 38.3431Z" fill="#2F618A"/>
<path d="M77.915 14.0552C72.2114 12.7037 66.3047 13.8318 61.5663 17.1454C60.8424 16.4933 60.1325 16.036 58.8273 15.9875C58.5079 15.1275 57.8816 14.3951 57.0492 13.9399C53.5314 12.0166 49.5386 11 45.5021 11C42.272 11 39.0644 11.6436 36.084 12.907C35.5563 13.1308 35.3123 13.7346 35.5388 14.2556C35.7656 14.7766 36.377 15.0176 36.9048 14.7939C39.6647 13.6238 42.5979 13.0535 45.5021 13.0535C49.187 13.0535 52.8315 13.9811 56.0414 15.7363C56.564 16.022 56.9128 16.5391 56.9744 17.1195C57.0299 17.6422 57.4763 18.0392 58.0088 18.0392L58.4776 18.0361C59.1277 18.0361 59.5353 18.104 59.958 18.4748C62.753 20.928 64.8687 24.0723 66.0764 27.5671C66.165 27.8239 66.1435 28.0958 66.0316 28.3326H65.7637C64.263 28.3326 62.8521 27.7557 61.791 26.7082L54.9884 19.9924C54.5822 19.5913 53.9236 19.5913 53.5176 19.9924C48.0697 25.3707 40.8264 28.3326 33.1218 28.3326H24.9686C24.8565 28.096 24.8346 27.8237 24.9229 27.568C26.4543 23.1358 29.4722 19.262 33.4206 16.6604C33.8983 16.3455 34.0271 15.708 33.7083 15.2363C33.3894 14.7647 32.7438 14.6374 32.2659 14.9523C31.2648 15.6118 30.3192 16.3469 29.435 17.1461C24.6965 13.8318 18.7891 12.7033 13.0853 14.0552C10.8842 14.5768 9.55129 16.7873 10.1388 18.9519L11.9706 25.701C12.674 28.293 15.7211 29.5003 18.0223 28.0619C19.6787 27.0265 21.4678 26.2764 23.3608 25.8216C23.2165 26.1793 23.0801 26.5404 22.9541 26.9053C22.7898 27.3809 22.7441 27.8911 22.8336 28.4066C19.7514 28.8745 17.3836 31.5103 17.3836 34.6819C17.3836 38.1636 20.2375 40.9986 23.7571 41.0296C25.8169 47.7036 30.9493 53.0671 37.5207 55.5079C34.6166 57.8736 32.88 61.4352 32.88 65.2298V66.9733C32.88 67.5405 33.3457 68 33.9201 68H57.0803C57.6547 68 58.1203 67.5405 58.1203 66.9733V65.2298C58.1203 61.4426 56.3825 57.8753 53.4797 55.5084C54.846 55.0029 56.1654 54.369 57.417 53.6063C57.9056 53.3086 58.0573 52.676 57.7556 52.1934C57.4538 51.7109 56.813 51.5612 56.3244 51.8591C53.0776 53.8374 49.3346 54.8832 45.4999 54.8832C34.1163 54.8832 24.8552 45.7403 24.8552 34.5021C24.8552 33.1175 24.9991 31.7369 25.2797 30.3861H33.1218C40.8172 30.3861 48.4099 27.5455 54.2408 22.1583L60.3203 28.1603C61.7642 29.5855 63.6806 30.3741 65.7208 30.3851C66.0013 31.7353 66.1451 33.1163 66.1451 34.5021C66.1449 40.1826 63.7142 45.6494 59.476 49.5006C59.0534 49.8847 59.0262 50.5342 59.4152 50.9515C59.805 51.3693 60.4628 51.395 60.8847 51.0116C63.8864 48.2839 66.0627 44.8192 67.2341 41.0299C70.7577 41.0035 73.6163 38.1666 73.6163 34.6819C73.6163 31.5102 71.2483 28.8744 68.1662 28.4064C68.2546 27.8954 68.2113 27.3861 68.0453 26.9047C67.9191 26.5394 67.781 26.1788 67.6368 25.8208C69.5306 26.2756 71.3206 27.0258 72.9776 28.0617C75.2811 29.5012 78.327 28.2893 79.0294 25.7009L80.8612 18.9518C81.4482 16.7896 80.118 14.5773 77.915 14.0552ZM19.4637 34.6819C19.4637 32.5366 21.0647 30.7538 23.149 30.4365C22.9005 31.7747 22.775 33.1371 22.775 34.5023C22.775 36.02 22.9294 37.5026 23.2217 38.9367C21.1022 38.65 19.4637 36.8519 19.4637 34.6819ZM37.4813 65.2299V65.9467H34.96V65.2299C34.96 64.8266 34.9848 64.4267 35.0307 64.0314C35.8394 64.3108 36.6605 64.5611 37.4896 64.7746C37.4841 64.9264 37.4813 65.0784 37.4813 65.2299ZM56.0402 65.2299V65.9467H53.5189V65.2299C53.5189 65.0784 53.5161 64.9264 53.5105 64.7746C54.3397 64.5611 55.1606 64.3108 55.9692 64.0315C56.0152 64.4268 56.0402 64.8268 56.0402 65.2299ZM40.0019 56.2715C41.7632 56.705 43.6045 56.9368 45.4999 56.9368C47.3651 56.9368 49.2106 56.7111 50.9983 56.272C53.1692 57.6015 54.76 59.6545 55.5268 62.0097C54.4323 62.3986 53.3099 62.7257 52.1779 62.9834C51.6651 63.1003 51.3213 63.5767 51.3775 64.0934C51.4181 64.4682 51.4388 64.8505 51.4388 65.2299V65.9467H39.5614V65.2299C39.5614 64.8505 39.582 64.4683 39.6227 64.0934C39.6789 63.5767 39.3351 63.1001 38.8223 62.9834C37.6901 62.7256 36.5671 62.3982 35.4719 62.0093C36.238 59.6525 37.829 57.6016 40.0019 56.2715ZM24.4431 23.5124C21.7444 23.9418 19.2126 24.8871 16.9096 26.3268C15.8012 27.0196 14.3219 26.4303 13.9798 25.1694L12.1481 18.4205C11.866 17.3818 12.4997 16.3058 13.5707 16.052C18.5699 14.867 23.7427 15.8053 27.9406 18.6212C26.5717 20.0975 25.3938 21.7435 24.4431 23.5124ZM67.8514 30.4365C69.9355 30.7541 71.5364 32.5368 71.5364 34.6819C71.5364 36.8542 69.8943 38.6538 67.7714 38.9375C68.0695 37.4866 68.225 36.0014 68.225 34.5023C68.225 33.1364 68.0995 31.774 67.8514 30.4365ZM78.8521 18.4205L77.0203 25.1694C76.677 26.4335 75.1952 27.0179 74.0906 26.3268C71.7883 24.8876 69.2572 23.9423 66.5594 23.5127C65.6108 21.7428 64.4351 20.0964 63.0634 18.6186C67.2605 15.8047 72.4313 14.8674 77.4295 16.0518C78.4955 16.3046 79.1354 17.3767 78.8521 18.4205Z" fill="#2F618A"/>
</g>
<defs>
<clipPath id="clip0_4_2097">
<rect width="89" height="72" fill="white" transform="translate(0.5 0.5)"/>
</clipPath>
</defs>
</svg>
