<svg width="70" height="70" viewBox="0 0 70 70" fill="none" xmlns="http://www.w3.org/2000/svg">
<path d="M25.9061 33.9916L26.0375 34.533C23.4748 34.5333 22.3981 34.5346 21.8149 34.5362L25.9061 33.9916Z" stroke="#2F618A" stroke-width="1.5"/>
<path d="M25.8325 4.78063C25.8325 7.00669 24.0279 8.81127 21.8019 8.81127C19.5758 8.81127 17.7712 7.00669 17.7712 4.78063C17.7712 2.55458 19.5758 0.75 21.8019 0.75C24.0279 0.75 25.8325 2.55458 25.8325 4.78063Z" stroke="#2F618A" stroke-width="1.5"/>
<path d="M29.9011 33.9794C30.6465 33.0051 31.5496 32.154 32.5832 31.4586L33.0019 32.0809L32.5832 31.4586C32.8025 31.311 33.0259 31.1723 33.2527 31.0419L32.2778 27.0214C32.0608 26.1267 31.2592 25.5119 30.3613 25.5119C30.3374 25.5119 30.3224 25.5117 30.3118 25.5116C30.2864 25.5113 30.2863 25.5113 30.2499 25.5147C30.1717 25.5219 30.0186 25.5403 29.6588 25.5873C29.2692 25.6382 28.6542 25.7203 27.6615 25.853C26.9514 25.9478 26.0479 26.0685 24.8954 26.2221C24.2635 28.8988 21.6587 30.7681 18.8261 30.3598C18.826 30.3598 18.826 30.3598 18.8259 30.3598C18.8258 30.3598 18.8257 30.3598 18.8257 30.3598L12.5079 29.4523C12.4979 29.5861 12.5015 29.723 12.5199 29.8617L29.9011 33.9794ZM29.9011 33.9794L29.0171 30.3346L28.8581 29.6789L28.1893 29.7679L14.7379 31.5585L14.7372 31.5586C13.6581 31.7034 12.664 30.9439 12.5199 29.8617L29.9011 33.9794Z" stroke="#2F618A" stroke-width="1.5"/>
<path d="M52.3522 43.2774L52.341 43.9735C52.3399 44.0267 52.3398 44.0267 52.3397 44.0267L52.3393 44.0267L52.3384 44.0267L52.3362 44.0266L52.3287 44.0264L52.3286 44.0264C52.3266 44.0263 52.3172 44.026 52.305 44.0251C52.3007 44.0248 52.2831 44.0236 52.2606 44.0207C52.2515 44.0195 52.2234 44.0157 52.188 44.0075C52.1691 44.0029 52.12 43.9883 52.09 43.9775C52.0396 43.9561 51.893 43.8654 51.8065 43.7852C51.7348 43.6758 51.6919 43.4787 51.6867 43.281C51.6821 43.107 51.7065 42.9325 51.766 42.8167C51.8569 42.7191 52.0195 42.6078 52.0779 42.5814C52.159 42.5487 52.2285 42.5383 52.233 42.5376C52.2682 42.5316 52.2963 42.5296 52.2993 42.5294C52.3079 42.5287 52.3154 42.5283 52.3205 42.5281C52.3246 42.5279 52.3271 42.5278 52.3274 42.5278C52.3326 42.5276 52.3346 42.5276 52.3291 42.5277C52.309 42.528 52.2491 42.5287 52.0925 42.5294C51.7825 42.531 51.1075 42.533 49.6492 42.5351C46.7329 42.5392 40.6874 42.5433 28.1706 42.5433C27.331 42.5433 26.6501 41.8625 26.6501 41.0228C26.6501 40.1831 27.331 39.5023 28.1706 39.5023H50.7363L50.8071 38.0057L33.1504 36.3314C34.5113 34.6135 36.6143 33.5628 38.9184 33.563H38.9185L44.9467 33.5629L49.0786 33.5629L50.4459 33.5629L50.8326 33.563L50.9364 33.563L50.971 33.563C50.9714 33.563 50.9718 33.563 50.9722 33.563C52.9305 33.5736 54.5226 35.2015 54.5124 37.171L54.4957 40.4145C54.4895 41.6045 53.5056 42.5415 52.3642 42.5269L52.3522 43.2774Z" stroke="#2F618A" stroke-width="1.5"/>
<path d="M22.6516 41.4749L22.6516 41.475C22.6825 41.825 22.7479 42.1639 22.8441 42.4886H22.8272H22.7991H22.7707H22.742H22.713H22.6838H22.6542H22.6244H22.5943H22.5639H22.5333H22.5024H22.4712H22.4397H22.408H22.3759H22.3437H22.3111H22.2783H22.2452H22.2119H22.1783H22.1445H22.1104H22.076H22.0414H22.0065H21.9714H21.9361H21.9005H21.8646H21.8285H21.7922H21.7556H21.7188H21.6817H21.6444H21.6069H21.5691H21.5311H21.4929H21.4544H21.4158H21.3769H21.3377H21.2984H21.2588H21.219H21.179H21.1388H21.0984H21.0577H21.0169H20.9758H20.9345H20.893H20.8513H20.8094H20.7673H20.7251H20.6826H20.6399H20.597H20.5539H20.5106H20.4672H20.4235H20.3797H20.3357H20.2914H20.247H20.2025H20.1577H20.1128H20.0677H20.0224H19.9769H19.9313H19.8855H19.8395H19.7934H19.7471H19.7006H19.654H19.6072H19.5602H19.5131H19.4658H19.4184H19.3708H19.3231H19.2752H19.2272H19.179H19.1307H19.0822H19.0336H18.9849H18.936H18.887H18.8378H18.7885H18.7391H18.6895H18.6398H18.59H18.54H18.49H18.4398H18.3894H18.339H18.2884H18.2378H18.187H18.136H18.085H18.0339H17.9826H17.9313H17.8798H17.8283H17.7766H17.7248H17.673H17.621H17.5689H17.5168H17.4645H17.4121H17.3597H17.3072H17.2545H17.2018H17.149H17.0962H17.0432H16.9902H16.9371H16.8839H16.8306H16.7773H16.7238H16.6704H16.6168H16.5632H16.5095H16.4557H16.4019H16.348H16.2941H16.2401H16.186H16.1319H16.0777H16.0235H15.9693H15.9149H15.8606H15.8062H15.7517H15.6972H15.6427H15.5881H15.5335H15.4788H15.4241H15.3694H15.3146H15.2598H15.205H15.1502H15.0953H15.0404H14.9855H14.9306H14.8756H14.8206H14.7656H14.7106H14.6556H14.6006H14.5455H14.4905H14.4354H14.3804H14.3253H14.2702H14.2152H14.1601H14.105H14.0499H13.9949H13.9398H13.8848H13.8297H13.7747H13.7197H13.6647H13.6097H13.5548H13.4998H13.4449H13.39H13.3351H13.2803H13.2255H13.1707H13.1159H13.0612H13.0065H12.9518H12.8972H12.8426H12.788H12.7335H12.6791H12.6246H12.5703H12.5159H12.4616H12.4074H12.3532H12.2991H12.245H12.191H12.1371H12.0832H12.0293H11.9756H11.9219H11.8682H11.8146H11.7611H11.7077H11.6543H11.6011H11.5478H11.4947H11.4417H11.3887H11.3358H11.283H11.2302H11.1776H11.125H11.0726H11.0202H10.9679H10.9157H10.8636H10.8117H10.7598H10.708H10.6563H10.6047H10.5532H10.5018H10.4505H10.3994H10.3483H10.2974H10.2466H10.1959H10.1453H10.0948H10.0444H9.99422H9.94411H9.89413H9.84428H9.79455H9.74496H9.69549H9.64616H9.59696H9.5479H9.49898H9.45019H9.40155H9.35305H9.30469H9.25648H9.20842H9.1605H9.11273H9.06512H9.01766H8.97035H8.9232H8.8762H8.82937H8.7827H8.73619H8.68984H8.64366H8.59765H8.55181H8.50613H8.46063H8.4153H8.37015H8.32517H8.28037H8.23575H8.19131H8.14705H8.10298H8.0591H8.0154H7.97189H7.92857H7.88544H7.84251H7.79977H7.75723H7.71489H7.67275H7.6308H7.58907H7.54753H7.5062H7.46508H7.42417H7.38347H7.34298H7.30271H7.26265H7.22281H7.18319H7.14378H7.1046H7.06564H7.02691H6.9884H6.95012H6.91207H6.87425H6.83667H6.79932H6.7622H6.72532H6.68868H6.65228H6.61612H6.58021H6.54454H6.50911H6.47394H6.43901H6.40434H6.36992H6.33575H6.30184H6.26819H6.23479H6.20166H6.16879H6.13618H6.10384H6.07176H6.03995H6.00841H5.97715H5.94615H5.91544H5.88499H5.85483H5.82494H5.79534H5.76602H5.73698H5.70822H5.67976H5.65158H5.62369H5.5961H5.5688H5.54179H5.51508H5.48866H5.46255H5.43674H5.41123H5.38602H5.36112H5.33653H5.31225H5.28827H5.26461H5.24126H5.21823H5.19552H5.17312H5.15104H5.12928H5.10785H5.08674H5.06596H5.0455H5.02537H5.00558H4.98611H4.96698H4.94819H4.92973H4.91161H4.89383H4.87639H4.85929H4.84254H4.82614H4.81008H4.79437H4.77902H4.76401H4.74936H4.73507H4.72113H4.70755H4.69433H4.68148H4.66898H4.65686H4.64509H4.6337H4.62268H4.61202H4.60174H4.59183H4.5823H4.57315H4.56438H4.55598H4.54797H4.54034H4.5331H4.52624H4.51977H4.5137H4.50801H4.50271H4.49781H4.49331H4.4892C3.39858 42.4886 2.5144 41.6043 2.5144 40.5138C2.5144 39.4232 3.39867 38.539 4.4892 38.539H4.49529H4.50178H4.50868H4.51598H4.52369H4.5318H4.54031H4.54921H4.55852H4.56822H4.57831H4.5888H4.59968H4.61094H4.62259H4.63463H4.64705H4.65986H4.67304H4.68661H4.70055H4.71487H4.72956H4.74463H4.76006H4.77587H4.79204H4.80858H4.82548H4.84275H4.86037H4.87836H4.89671H4.91541H4.93446H4.95387H4.97363H4.99374H5.0142H5.035H5.05615H5.07764H5.09948H5.12165H5.14417H5.16701H5.1902H5.21372H5.23757H5.26175H5.28626H5.31109H5.33625H5.36174H5.38754H5.41367H5.44012H5.46688H5.49396H5.52135H5.54905H5.57707H5.60539H5.63403H5.66296H5.69221H5.72175H5.75159H5.78174H5.81218H5.84292H5.87395H5.90528H5.93689H5.9688H6.00099H6.03347H6.06624H6.09929H6.13261H6.16622H6.20011H6.23427H6.26871H6.30342H6.3384H6.37366H6.40918H6.44496H6.48102H6.51733H6.55391H6.59075H6.62785H6.6652H6.70281H6.74067H6.77878H6.81715H6.85576H6.89462H6.93373H6.97308H7.01267H7.0525H7.09258H7.13288H7.17343H7.21421H7.25522H7.29646H7.33793H7.37963H7.42156H7.46371H7.50608H7.54867H7.59148H7.63451H7.67776H7.72122H7.76489H7.80878H7.85287H7.89718H7.94169H7.9864H8.03132H8.07644H8.12175H8.16727H8.21298H8.25889H8.30499H8.35129H8.39777H8.44444H8.4913H8.53834H8.58557H8.63298H8.68057H8.72834H8.77629H8.82441H8.8727H8.92117H8.9698H9.01861H9.06758H9.11672H9.16603H9.21549H9.26512H9.31491H9.36485H9.41495H9.4652H9.51561H9.56616H9.61687H9.66772H9.71872H9.76987H9.82116H9.87259H9.92415H9.97586H10.0277H10.0797H10.1318H10.184H10.2364H10.2889H10.3415H10.3943H10.4472H10.5002H10.5533H10.6065H10.6599H10.7133H10.7669H10.8206H10.8744H10.9283H10.9823H11.0364H11.0907H11.145H11.1994H11.254H11.3086H11.3633H11.4181H11.473H11.528H11.5831H11.6383H11.6935H11.7489H11.8043H11.8598H11.9154H11.9711H12.0268H12.0826H12.1385H12.1945H12.2505H12.3066H12.3628H12.419H12.4753H12.5316H12.5881H12.6445H12.7011H12.7576H12.8143H12.871H12.9277H12.9845H13.0413H13.0982H13.1551H13.2121H13.2691H13.3261H13.3832H13.4403H13.4975H13.5546H13.6118H13.6691H13.7263H13.7836H13.8409H13.8983H13.9556H14.013H14.0704H14.1278H14.1852H14.2427H14.3001H14.3576H14.415H14.4725H14.53H14.5875H14.6449H14.7024H14.7599H14.8174H14.8748H14.9323H14.9897H15.0472H15.1046H15.162H15.2194H15.2768H15.3342H15.3915H15.4488H15.5061H15.5634H15.6207H15.6779H15.7351H15.7922H15.8493H15.9064H15.9635H16.0205H16.0775H16.1344H16.1913H16.2482H16.305H16.3617H16.4184H16.4751H16.5317H16.5882H16.6447H16.7011H16.7575H16.8138H16.8701H16.9263H16.9824H17.0384H17.0944H17.1503H17.2062H17.2619H17.3176H17.3732H17.4288H17.4842H17.5396H17.5949H17.6501H17.7052H17.7602H17.8152H17.87H17.9248H17.9794H18.034H18.0885H18.1428H18.1971H18.2513H18.3053H18.3593H18.4131H18.4668H18.5204H18.574H18.6273H18.6806H18.7338H18.7868H18.8397H18.8925H18.9452H18.9977H19.0502H19.1024H19.1546H19.2066H19.2585H19.3103H19.3619H19.4134H19.4647H19.5159H19.5669H19.6178H19.6686H19.7192H19.7697H19.82H19.8701H19.9201H19.97H20.0196H20.0692H20.1185H20.1677H20.2167H20.2656H20.3143H20.3628H20.4112H20.4594H20.5074H20.5552H20.6029H20.6503H20.6976H20.7447H20.7916H20.8384H20.8849H20.9313H20.9775H21.0234H21.0692H21.1148H21.1602H21.2054H21.2504H21.2951H21.3397H21.3841H21.4283H21.4722H21.516H21.5595H21.6028H21.6459H21.6888H21.7315H21.7739H21.8162H21.8582H21.8999H21.9415H21.9828H22.0239H22.0648H22.1054H22.1458H22.1859H22.2258H22.2655H22.3049H22.3441H22.3831H22.4218H22.4602H22.4984H22.5364H22.5741H22.6115H22.6487H22.6856H22.7223H22.7587H22.7948H22.8307H22.8663H22.9017H22.9368H22.9716H23.0061H23.0404H23.0743H23.108H23.1415H23.1746H23.2075H23.24H23.2705C22.7931 39.404 22.5584 40.4159 22.6516 41.4749Z" stroke="#2F618A" stroke-width="1.5"/>
<path d="M2.54 50.3512L2.54707 49.7573L1.9707 49.6143C1.2683 49.44 0.75 48.8072 0.75 48.0552C0.75 47.1664 1.47058 46.446 2.35921 46.446H2.37054H2.38322H2.39724H2.4126H2.4293H2.44733H2.46668H2.48735H2.50934H2.53264H2.55724H2.58313H2.61032H2.6388H2.66856H2.6996H2.7319H2.76548H2.80031H2.8364H2.87375H2.91233H2.95216H2.99322H3.03551H3.07902H3.12376H3.1697H3.21686H3.26521H3.31477H3.36551H3.41744H3.47056H3.52485H3.58031H3.63693H3.69472H3.75366H3.81375H3.87499H3.93736H4.00087H4.0655H4.13126H4.19814H4.26613H4.33522H4.40542H4.47672H4.5491H4.62257H4.69712H4.77275H4.84945H4.92721H5.00603H5.08591H5.16683H5.2488H5.3318H5.41584H5.50091H5.58699H5.6741H5.76221H5.85134H5.94146H6.03258H6.12469H6.21778H6.31186H6.40691H6.50292H6.59991H6.69785H6.79674H6.89658H6.99736H7.09908H7.20174H7.30532H7.40982H7.51524H7.62156H7.7288H7.83693H7.94596H8.05588H8.16668H8.27836H8.39091H8.50434H8.61862H8.73376H8.84976H8.9666H9.08429H9.20281H9.32216H9.44234H9.56334H9.68515H9.80777H9.9312H10.0554H10.1804H10.3063H10.4329H10.5602H10.6884H10.8173H10.947H11.0774H11.2086H11.3405H11.4732H11.6066H11.7407H11.8756H12.0111H12.1474H12.2844H12.4221H12.5606H12.6997H12.8394H12.9799H13.1211H13.2629H13.4054H13.5485H13.6923H13.8368H13.9819H14.1276H14.274H14.421H14.5686H14.7168H14.8657H15.0152H15.1652H15.3159H15.4672H15.619H15.7714H15.9244H16.078H16.2322H16.3869H16.5421H16.6979H16.8543H17.0112H17.1686H17.3266H17.485H17.644H17.8035H17.9636H18.1241H18.2851H18.4466H18.6086H18.7711H18.934H19.0974H19.2613H19.4256H19.5904H19.7557H19.9214H20.0875H20.2541H20.4211H20.5885H20.7563H20.9245H21.0932H21.2622H21.4317H21.6015H21.7717H21.9423H22.1133H22.2847H22.4564H22.6284H22.8009H22.9736H23.1467H23.3202H23.494H23.6681H23.8425H24.0173H24.1923H24.3677H24.5433H24.7193H24.8956H25.0721H25.2489H25.426H25.6033H25.781H25.9588H26.137H26.3153H26.494H26.6728H26.8519H27.0312H27.2108H27.3905H27.5705H27.7506H27.931H28.1116H28.2923H28.4732H28.6543H28.8356H29.0171H29.1987H29.3805H29.5624H29.7444H29.9267H30.109H30.2915H30.4741H30.6568H30.8396H31.0226H31.2056H31.3888H31.572H31.7553H31.9388H32.1222H32.3058H32.4894H32.6731H32.8569H33.0407H33.2245H33.4084H33.5923H33.7763H33.9602H34.1442H34.3282H34.5123H34.6963H34.8803H35.0643H35.2483H35.4323H35.6162H35.8002H35.9841H36.1679H36.3517H36.5355H36.7192H36.9028H37.0864H37.2699H37.4533H37.6367H37.8199H38.0031H38.1862H38.3691H38.552H38.7348H38.9174H39.0999H39.2823H39.4645H39.6466H39.8286H40.0104H40.192H40.3735H40.5548H40.736H40.9169H41.0977H41.2783H41.4587H41.6389H41.8189H41.9987H42.1783H42.3577H42.5368H42.7157H42.8944H43.0728H43.251H43.4289H43.6066H43.784H43.9612H44.138H44.3146H44.4909H44.667H44.8427H45.0181H45.1932H45.3681H45.5426H45.7167H45.8906H46.0641H46.2373H46.4102H46.5826H46.7548H46.9266H47.098H47.2691H47.4397H47.61H47.78H47.9495H48.1186H48.2874H48.4557H48.6236H48.7911H48.9582H49.1249H49.2911H49.4569H49.6222H49.7871H49.9515H50.1155H50.279H50.4421H50.6047H50.7668H50.9284H51.0895H51.2501H51.4103H51.5699H51.729H51.8876H52.0456H52.2032H52.3602H52.5167H52.6726H52.828H52.9828H53.137H53.2907H53.4439H53.5964H53.7484H53.8998H54.0506H54.2008H54.3504H54.4994H54.6478H54.7955H54.9427H55.0892H55.235H55.3803H55.5249H55.6688H55.8121H55.9547H56.0967H56.238H56.3786H56.5185H56.6578H56.7963H56.9342H57.0714H57.2078H57.3435H57.4786H57.6129H57.7464H57.8792H58.0113H58.1427H58.2733H58.4031H58.5322H58.6605H58.788H58.9148H59.0408H59.166H59.2904H59.414H59.5368H59.6588H59.7799H59.9003H60.0198H60.1385H60.2564H60.3734H60.4896H60.6049H60.7194H60.833H60.9458H61.0576H61.1686H61.2787H61.388H61.4963H61.6037H61.7102H61.8159H61.9206H62.0243H62.1272H62.2291H62.3301H62.4301H62.5292H62.6274H62.7246H62.8208H62.9161H63.0104H63.1037H63.196H63.2873H63.3777H63.467H63.5553H63.6427H63.729H63.8143H63.8985H63.9817H64.0639H64.1451H64.2252H64.3042H64.3822H64.4592H64.535H64.6098H64.6835H64.7561H64.8277H64.8981H64.9674H65.0357H65.1028H65.1688H65.2337H65.2974H65.36H65.4215H65.4819H65.5411H65.5991H65.656H65.7117H65.7662H65.8196H65.8718H65.9228H65.9726H66.0212H66.0686H66.1148H66.1598H66.2036H66.2462H66.2875H66.3276H66.3665H66.4041H66.4404H66.4755H66.5094H66.542H66.5733H66.6033H66.6321H66.6595H66.6857H66.7106H66.7342H66.7564H66.7774H66.7971H66.8154H66.8324H66.848H66.8623H66.8753H66.8869H66.8972C67.7858 46.446 68.5064 47.1665 68.5064 48.0552C68.5064 48.8072 67.988 49.44 67.2856 49.6143L66.7095 49.7573L66.7162 50.3507C66.7164 50.361 66.7166 50.3698 66.7168 50.376L66.7172 50.3847V65.6282C66.7172 67.6246 65.0917 69.2502 63.0952 69.2502C62.2066 69.2502 61.486 68.5296 61.486 67.6409C61.486 66.8332 62.0819 66.1633 62.8579 66.0492L63.4987 65.9549V65.3072V50.7227V49.9727H62.7487H6.50753H5.75753V50.7227V65.307V65.9548L6.39839 66.049C7.17442 66.1632 7.7703 66.8329 7.7703 67.6408C7.7703 68.5296 7.04972 69.25 6.16108 69.25C4.16467 69.25 2.5391 67.6244 2.5391 65.628V50.3847L2.53942 50.3762C2.53962 50.3701 2.53988 50.3614 2.54 50.3512Z" stroke="#2F618A" stroke-width="1.5"/>
<path d="M37.3706 21.8132L35.7298 25.1412C35.2621 24.0658 34.4906 23.1737 33.533 22.5574L33.8362 21.9423L34.0776 21.4527L33.6859 21.0725L28.4582 15.9991L27.1858 14.7644V16.5373V21.9233L24.3738 22.3597C23.5743 20.9011 22.129 19.8385 20.3731 19.5864C20.3731 19.5864 20.3731 19.5864 20.373 19.5864L16.4687 19.0257V17.3529V14.8881L15.0958 16.9351L12.2006 21.2519L11.5363 22.2424L12.7169 22.412L19.8209 23.4323C19.8209 23.4323 19.8209 23.4323 19.8209 23.4323C20.6719 23.5546 21.2625 24.3434 21.1404 25.1944L21.1403 25.1947C21.0191 26.0413 20.2307 26.6362 19.3785 26.5138L19.3785 26.5138L8.64348 24.972L8.53793 25.707L8.64347 24.972C8.17449 24.9047 7.76946 24.6256 7.5351 24.2406L7.53507 24.2405C7.22051 23.7238 7.23644 23.0648 7.57192 22.5645C7.57193 22.5645 7.57193 22.5645 7.57193 22.5645L7.572 22.5643L7.57231 22.5639L7.57355 22.562L7.57842 22.5548L7.59745 22.5264L7.66965 22.4187L7.92737 22.0345L8.70943 20.8683L9.49153 19.7022L9.7493 19.3179L9.80651 19.2326L9.80656 19.2325L9.82151 19.2102L9.8405 19.1819L9.84523 19.1748L9.84527 19.1748L9.8461 19.1736L9.84627 19.1733L9.84716 19.172L14.3057 12.5242L14.3057 12.5241C14.5946 12.0932 15.0795 11.8346 15.5984 11.8346H15.6162H15.634H15.652H15.67H15.688H15.7062H15.7244H15.7427H15.761H15.7795H15.798H15.8165H15.8352H15.8539H15.8726H15.8915H15.9104H15.9294H15.9484H15.9675H15.9867H16.0059H16.0252H16.0446H16.0641H16.0836H16.1031H16.1228H16.1425H16.1622H16.1821H16.2019H16.2219H16.2419H16.262H16.2821H16.3023H16.3226H16.3429H16.3633H16.3838H16.4043H16.4249H16.4455H16.4662H16.4869H16.5077H16.5286H16.5495H16.5705H16.5916H16.6127H16.6338H16.6551H16.6763H16.6977H16.7191H16.7405H16.762H16.7836H16.8052H16.8269H16.8486H16.8704H16.8922H16.9141H16.936H16.958H16.9801H17.0022H17.0243H17.0466H17.0688H17.0911H17.1135H17.1359H17.1584H17.1809H17.2035H17.2261H17.2488H17.2715H17.2942H17.3171H17.3399H17.3629H17.3858H17.4088H17.4319H17.455H17.4782H17.5014H17.5246H17.5479H17.5713H17.5947H17.6181H17.6416H17.6651H17.6887H17.7123H17.7359H17.7596H17.7834H17.8072H17.831H17.8549H17.8788H17.9028H17.9268H17.9508H17.9749H17.9991H18.0232H18.0474H18.0717H18.096H18.1203H18.1447H18.1691H18.1936H18.2181H18.2426H18.2672H18.2918H18.3164H18.3411H18.3658H18.3906H18.4154H18.4402H18.465H18.4899H18.5149H18.5399H18.5649H18.5899H18.615H18.6401H18.6652H18.6904H18.7156H18.7409H18.7661H18.7915H18.8168H18.8422H18.8676H18.893H18.9185H18.944H18.9695H18.9951H19.0207H19.0463H19.0719H19.0976H19.1233H19.1491H19.1748H19.2006H19.2265H19.2523H19.2782H19.3041H19.33H19.356H19.382H19.408H19.434H19.4601H19.4862H19.5123H19.5384H19.5646H19.5908H19.617H19.6432H19.6695H19.6957H19.722H19.7484H19.7747H19.8011H19.8275H19.8539H19.8803H19.9068H19.9333H19.9597H19.9863H20.0128H20.0393H20.0659H20.0925H20.1191H20.1458H20.1724H20.1991H20.2257H20.2524H20.2792H20.3059H20.3326H20.3594H20.3862H20.413H20.4398H20.4666H20.4935H20.5203H20.5472H20.5741H20.601H20.6279H20.6548H20.6818H20.7087H20.7357H20.7626H20.7896H20.8166H20.8436H20.8707H20.8977H20.9247H20.9518H20.9788H21.0059H21.033H21.0601H21.0872H21.1143H21.1414H21.1685H21.1957H21.2228H21.2499H21.2771H21.3043H21.3314H21.3586H21.3858H21.413H21.4401H21.4673H21.4945H21.5217H21.5489H21.5761H21.6034H21.6306H21.6578H21.685H21.7122H21.7395H21.7667H21.7939H21.8212H21.8484H21.8756H21.9029H21.9301H21.9573H21.9846H22.0118H22.039H22.0663H22.0935H22.1207H22.1479H22.1752H22.2024H22.2296H22.2568H22.284H22.3112H22.3384H22.3656H22.3928H22.42H22.4472H22.4744H22.5016H22.5288H22.5559H22.5831H22.6102H22.6374H22.6645H22.6916H22.7188H22.7459H22.773H22.8001H22.8272H22.8542H22.8813H22.9084H22.9354H22.9625H22.9895H23.0165H23.0435H23.0705H23.0975H23.1245H23.1514H23.1784H23.2053H23.2323H23.2592H23.2861H23.313H23.3398H23.3667H23.3935H23.4203H23.4472H23.474H23.5007H23.5275H23.5542H23.581H23.6077H23.6344H23.6611H23.6877H23.7144H23.741H23.7676H23.7942H23.8208H23.8473H23.8739H23.9004H23.9269H23.9533H23.9798H24.0062H24.0326H24.059H24.0854H24.1117H24.1381H24.1644H24.1906H24.2169H24.2431H24.2693H24.2955H24.3217H24.3478H24.3739H24.4H24.4261H24.4521H24.4781H24.5041H24.53H24.556H24.5819H24.6077H24.6336H24.6594H24.6852H24.711H24.7367H24.7624H24.7881H24.8137H24.8394H24.865H24.8905H24.916H24.9415H24.967H24.9924H25.0178H25.0432H25.0686H25.0939H25.1191H25.1444H25.1696H25.1948H25.2199H25.245H25.2701H25.2951H25.3201H25.3451H25.37H25.3949H25.4198H25.4446H25.4694H25.4942H25.5189H25.5436H25.5682H25.5928H25.6174H25.6419H25.6664H25.6908H25.7152H25.7396H25.7639H25.7882H25.8125H25.8367H25.8609H25.885H25.9091H25.9331H25.9571H25.9811H26.005H26.0289H26.0527H26.0765H26.1002H26.1239H26.1476H26.1712H26.1948H26.2183H26.2418H26.2652H26.2886H26.3119H26.3352H26.3585H26.3817H26.4048H26.4279H26.451H26.474H26.497H26.5199H26.5427H26.5655H26.5883H26.611H26.6337H26.6563H26.6789H26.7014H26.7239H26.7463H26.7686H26.7909H26.8132H26.8354H26.8575H26.8796H26.9017H26.9237H26.9456H26.9675H26.9893H27.0111H27.0328H27.0545H27.0761H27.0977H27.1192H27.1406H27.162H27.1833H27.2046H27.2258H27.247H27.2681H27.2891H27.3101H27.331H27.3519H27.3727H27.3934H27.4141H27.4347H27.4553H27.4758H27.4963H27.5166H27.537H27.5572H27.5774H27.5976H27.6176H27.6377H27.6576H27.6775H27.6973H27.7171H27.7368H27.7564H27.7759H27.7954H27.8149H27.8342H27.8535H27.8728H27.892H27.9111H27.9301H27.9491H27.968H27.9868H28.0056C28.4101 11.8346 28.7989 11.9922 29.0894 12.2741L37.0585 20.0078C37.0586 20.0079 37.0586 20.0079 37.0586 20.0079C37.5432 20.4783 37.6692 21.2076 37.3706 21.8132L37.3706 21.8132Z" stroke="#2F618A" stroke-width="1.5"/>
<path d="M66.8124 39.7548L66.8123 39.7542C66.8044 39.7045 66.7611 39.6688 66.7125 39.6688H65.194H62.9443L64.7439 38.3189C65.7241 37.5836 66.3591 36.4175 66.3672 35.1007V35.1007C66.3811 32.8628 64.5781 31.0375 62.3403 31.0237L62.3246 31.0236L62.3146 31.0236L66.8124 39.7548ZM66.8124 39.7548C66.813 39.7582 66.8134 39.7611 66.8138 39.7635M66.8124 39.7548L65.988 38.1688M65.988 38.1688C66.6863 37.3408 67.11 36.2731 67.1172 35.1053L65.988 38.1688ZM65.988 38.1688H65.194V38.9188L65.644 39.5188C65.8858 39.3374 66.1124 39.1367 66.3215 38.9188H66.7125C67.137 38.9188 67.488 39.2296 67.5529 39.6358C67.5546 39.646 67.556 39.6544 67.5573 39.6628C67.571 39.7531 67.5647 39.8464 67.5647 42.237C67.5647 42.7076 67.1832 43.089 66.7126 43.089H58.3512C57.8806 43.089 57.4991 42.7074 57.4988 42.2367M57.4988 42.2367H58.2488V42.2364M57.4988 42.2367L58.2488 42.2363C58.2488 42.2363 58.2488 42.2363 58.2488 42.2364M57.4988 42.2367V39.7708L58.2488 42.2364M58.2488 42.2364C58.2489 42.2933 58.295 42.339 58.3512 42.339H66.7126C66.769 42.339 66.8147 42.2933 66.8147 42.237C66.8147 41.4936 66.8153 40.974 66.8157 40.6071C66.816 40.3271 66.8163 40.1361 66.816 40.0026C66.8158 39.8536 66.8149 39.7921 66.8138 39.7635M58.2488 42.2364V42.2337V42.2306V42.2276V42.2245V42.2214V42.2183V42.2151V42.212V42.2088V42.2056V42.2024V42.1991V42.1959V42.1926V42.1893V42.1859V42.1826V42.1792V42.1759V42.1725V42.169V42.1656V42.1621V42.1587V42.1552V42.1517V42.1481V42.1446V42.141V42.1374V42.1338V42.1302V42.1266V42.1229V42.1192V42.1155V42.1118V42.1081V42.1043V42.1006V42.0968V42.093V42.0891V42.0853V42.0815V42.0776V42.0737V42.0698V42.0659V42.0619V42.058V42.054V42.05V42.046V42.042V42.0379V42.0339V42.0298V42.0257V42.0216V42.0175V42.0134V42.0092V42.005V42.0009V41.9967V41.9925V41.9882V41.984V41.9797V41.9754V41.9712V41.9669V41.9625V41.9582V41.9538V41.9495V41.9451V41.9407V41.9363V41.9319V41.9274V41.923V41.9185V41.9141V41.9096V41.9051V41.9005V41.896V41.8915V41.8869V41.8823V41.8777V41.8731V41.8685V41.8639V41.8593V41.8546V41.8499V41.8453V41.8406V41.8359V41.8311V41.8264V41.8217V41.8169V41.8122V41.8074V41.8026V41.7978V41.793V41.7881V41.7833V41.7785V41.7736V41.7687V41.7638V41.7589V41.754V41.7491V41.7442V41.7392V41.7343V41.7293V41.7244V41.7194V41.7144V41.7094V41.7044V41.6993V41.6943V41.6892V41.6842V41.6791V41.674V41.669V41.6639V41.6588V41.6536V41.6485V41.6434V41.6382V41.6331V41.6279V41.6227V41.6176V41.6124V41.6072V41.602V41.5967V41.5915V41.5863V41.581V41.5758V41.5705V41.5653V41.56V41.5547V41.5494V41.5441V41.5388V41.5335V41.5282V41.5228V41.5175V41.5121V41.5068V41.5014V41.4961V41.4907V41.4853V41.4799V41.4745V41.4691V41.4637V41.4583V41.4528V41.4474V41.442V41.4365V41.4311V41.4256V41.4202V41.4147V41.4092V41.4037V41.3983V41.3928V41.3873V41.3818V41.3763V41.3707V41.3652V41.3597V41.3542V41.3486V41.3431V41.3375V41.332V41.3264V41.3209V41.3153V41.3098V41.3042V41.2986V41.293V41.2874V41.2818V41.2762V41.2707V41.265V41.2594V41.2538V41.2482V41.2426V41.237V41.2314V41.2257V41.2201V41.2145V41.2088V41.2032V41.1976V41.1919V41.1863V41.1806V41.175V41.1693V41.1636V41.158V41.1523V41.1467V41.141V41.1353V41.1296V41.124V41.1183V41.1126V41.1069V41.1013V41.0956V41.0899V41.0842V41.0785V41.0728V41.0672V41.0615V41.0558V41.0501V41.0444V41.0387V41.033V41.0273V41.0216V41.0159V41.0102V41.0045V40.9988V40.9932V40.9875V40.9818V40.9761V40.9704V40.9647V40.959V40.9533V40.9476V40.9419V40.9362V40.9305V40.9248V40.9192V40.9135V40.9078V40.9021V40.8964V40.8907V40.8851V40.8794V40.8737V40.868V40.8624V40.8567V40.851V40.8453V40.8397V40.834V40.8284V40.8227V40.817V40.8114V40.8057V40.8001V40.7945V40.7888V40.7832V40.7775V40.7719V40.7663V40.7606V40.755V40.7494V40.7438V40.7382V40.7326V40.727V40.7214V40.7158V40.7102V40.7046V40.699V40.6934V40.6878V40.6823V40.6767V40.6711V40.6656V40.66V40.6545V40.6489V40.6434V40.6378V40.6323V40.6268V40.6213V40.6158V40.6102V40.6047V40.5992V40.5938V40.5883V40.5828V40.5773V40.5719V40.5664V40.5609V40.5555V40.55V40.5446V40.5392V40.5337V40.5283V40.5229V40.5175V40.5121V40.5067V40.5013V40.496V40.4906V40.4852V40.4799V40.4745V40.4692V40.4639V40.4585V40.4532V40.4479V40.4426V40.4373V40.432V40.4268V40.4215V40.4162V40.411V40.4058V40.4005V40.3953V40.3901V40.3849V40.3797V40.3745V40.3693V40.3641V40.359V40.3538V40.3487V40.3435V40.3384V40.3333V40.3282V40.3231V40.318V40.3129V40.3079V40.3028V40.2978V40.2927V40.2877V40.2827V40.2777V40.2727V40.2677V40.2627V40.2578V40.2528V40.2479V40.243V40.238V40.2331V40.2282V40.2234V40.2185V40.2136V40.2088V40.2039V40.1991V40.1943V40.1895V40.1847V40.1799V40.1752V40.1704V40.1657V40.1609V40.1562V40.1515V40.1468V40.1422V40.1375V40.1328V40.1282V40.1236V40.119V40.1144V40.1098V40.1052V40.1006V40.0961V40.0916V40.087V40.0825V40.0781V40.0736V40.0691V40.0647V40.0602V40.0558V40.0514V40.047V40.0426V40.0383V40.0339V40.0296V40.0253V40.021V40.0167V40.0124V40.0082V40.0039V39.9997V39.9955V39.9913V39.9871V39.9829V39.9788V39.9746V39.9705V39.9664V39.9623V39.9583V39.9542V39.9502V39.9462V39.9422V39.9382V39.9342V39.9302V39.9263V39.9224V39.9185V39.9146V39.9107V39.9069V39.903V39.8992V39.8954V39.8916V39.8879V39.8841V39.8804V39.8767V39.873V39.8693V39.8656V39.862V39.8584V39.8548V39.8512V39.8476V39.8441V39.8405V39.837V39.8335V39.8301V39.8266V39.8232V39.8198V39.8164V39.813V39.8096V39.8063V39.803V39.7997V39.7964V39.7931V39.7899V39.7867V39.7835V39.7803V39.7771V39.774V39.7708C58.2488 39.7145 58.2944 39.6688 58.3508 39.6688H59.4364H61.6856L59.8865 38.3189C58.8926 37.5732 58.255 36.3853 58.2633 35.0505L58.2633 35.0505C58.2771 32.8214 60.0887 31.0237 62.3146 31.0236L58.2488 42.2364ZM66.8138 39.7635C66.817 39.783 66.8153 39.7721 66.8149 39.7688C66.8133 39.7566 66.8133 39.7504 66.8136 39.7584C66.8137 39.76 66.8138 39.7617 66.8138 39.7635Z" stroke="#2F618A" stroke-width="1.5"/>
</svg>
