<svg width="61" height="70" viewBox="0 0 61 70" fill="none" xmlns="http://www.w3.org/2000/svg">
<g clip-path="url(#clip0_8_47)">
<path d="M12.2819 51.8848C12.408 51.8176 12.5463 51.7767 12.6886 51.7643C12.831 51.752 12.9743 51.7686 13.11 51.813C13.2458 51.8575 13.3711 51.929 13.4785 52.0232C13.586 52.1173 13.6732 52.2322 13.7351 52.361C13.797 52.4897 13.8322 52.6296 13.8386 52.7723C13.845 52.915 13.8225 53.0576 13.7724 53.1913C13.7224 53.3251 13.6458 53.4474 13.5472 53.5508C13.4487 53.6542 13.3303 53.7367 13.1991 53.7932C12.2145 54.2444 11.1225 54.4083 10.0488 54.266C9.36834 54.1878 8.69688 54.0448 8.04363 53.8387C8.07212 54.1122 8.1006 54.3799 8.13478 54.6533C8.23732 55.4167 8.37404 56.2028 8.55063 57.006C8.60972 57.2752 8.56279 57.5567 8.41961 57.7922C7.91162 58.7343 7.5887 59.7649 7.46828 60.8285C7.42287 61.185 7.45594 61.5472 7.56516 61.8896C7.67439 62.2321 7.85713 62.5465 8.1006 62.8109C8.75097 63.3813 9.55581 63.746 10.4134 63.8591C12.3769 64.1399 14.3743 64.0743 16.3151 63.6654C18.6182 63.2581 20.8783 62.6364 23.0656 61.8083C24.7598 61.1923 26.3532 60.3284 27.7938 59.2448C29.0357 58.2536 29.6053 56.6301 30.0724 55.2572C30.175 54.9667 30.2718 54.6875 30.3174 54.5736L30.4598 54.1919C31.0694 52.5171 32.1289 49.6346 33.5018 48.5523C33.7284 48.3808 34.0139 48.3064 34.2954 48.3454C34.5769 48.3843 34.8314 48.5336 35.0029 48.7602C35.1743 48.9868 35.2488 49.2723 35.2098 49.5538C35.1708 49.8353 35.0216 50.0898 34.7949 50.2613C33.9063 50.9449 32.9834 53.4798 32.4479 54.9496C32.3397 55.2515 32.3625 55.1945 32.3055 55.3426C32.1916 55.6503 32.1289 55.8212 32.072 55.9921C31.5023 57.6498 30.813 59.5866 29.0926 60.9595C27.4833 62.1654 25.7036 63.1254 23.8119 63.8078C23.3618 63.9844 22.9004 64.1496 22.439 64.3034C22.457 64.9974 22.4323 65.6918 22.3649 66.3827C22.273 67.3451 22.0996 68.2979 21.8465 69.231C21.8091 69.3656 21.7456 69.4916 21.6595 69.6017C21.5734 69.7118 21.4665 69.8038 21.3448 69.8726C21.2231 69.9414 21.0891 69.9855 20.9504 70.0025C20.8117 70.0195 20.671 70.0089 20.5363 69.9715C20.4017 69.9341 20.2757 69.8706 20.1656 69.7845C20.0555 69.6984 19.9634 69.5915 19.8947 69.4698C19.8259 69.3481 19.7818 69.2141 19.7648 69.0754C19.7478 68.9367 19.7583 68.796 19.7958 68.6613C20.0177 67.8417 20.172 67.0053 20.2572 66.1605C20.2971 65.7504 20.3198 65.3402 20.3255 64.9243C19.078 65.2661 17.8361 65.5396 16.674 65.7504C14.481 66.2059 12.2248 66.2715 10.009 65.944C8.73015 65.7547 7.53858 65.1828 6.591 64.3034C6.13407 63.8303 5.78655 63.2627 5.57296 62.6406C5.35937 62.0185 5.2849 61.3571 5.35483 60.7031C5.47584 59.4517 5.83143 58.2342 6.40301 57.1143C6.26059 56.4136 6.13527 55.6901 6.03843 54.9382C5.93019 54.1008 5.85613 53.2292 5.82195 52.4032C5.81931 52.3748 5.81931 52.3462 5.82195 52.3177V52.2095C5.66815 50.6087 5.65106 49.0479 5.62827 47.4699V47.111L3.17873 46.9686C2.57154 46.9554 1.97992 46.774 1.46974 46.4445C1.00398 46.1427 0.629679 45.7191 0.387384 45.2197C0.142 44.6843 0.0231018 44.0995 0.0398902 43.5108C0.0862955 42.5222 0.405733 41.5659 0.962742 40.7479L3.58318 35.3874C4.87062 32.7613 4.85353 32.4138 4.80226 31.0352C4.80226 30.4143 4.74529 29.6224 4.80226 28.4318C4.83446 27.0715 5.00626 25.7181 5.31496 24.3929C5.52322 23.5112 5.81901 22.6524 6.19793 21.8295L1.3729 19.773C1.24331 19.7194 1.12564 19.6407 1.0267 19.5413C0.927767 19.442 0.849539 19.3239 0.796551 19.1941C0.743563 19.0643 0.716869 18.9253 0.718017 18.785C0.719164 18.6448 0.748131 18.5062 0.803237 18.3773C0.836581 18.3065 0.874644 18.238 0.917169 18.1722C12.3104 2.64326 25.1734 -1.62351 36.0596 0.512722C42.3749 1.81525 48.1056 5.1099 52.4089 9.91214C56.7209 14.5805 59.5294 20.4377 60.4696 26.7228C61.8653 36.9198 57.7694 47.8516 45.1628 55.2572C45.0579 55.3204 44.9419 55.363 44.821 55.3825C44.826 56.8887 44.9192 58.3933 45.1001 59.8885C45.4341 62.6676 46.0997 65.3967 47.0825 68.0176C47.1315 68.1481 47.1543 68.2871 47.1497 68.4264C47.145 68.5658 47.1129 68.7028 47.0552 68.8298C46.9976 68.9567 46.9155 69.0711 46.8136 69.1663C46.7118 69.2616 46.5921 69.3358 46.4616 69.3848C46.3311 69.4338 46.1922 69.4566 46.0528 69.4519C45.9134 69.4472 45.7764 69.4151 45.6494 69.3575C45.5225 69.2998 45.4081 69.2177 45.3129 69.1159C45.2177 69.014 45.1434 68.8944 45.0944 68.7639C44.0485 65.9859 43.3408 63.0921 42.9867 60.1449C42.6094 56.9287 42.5941 53.6803 42.9411 50.4606C42.9531 50.3205 42.9929 50.1841 43.0581 50.0595C43.1233 49.9349 43.2127 49.8245 43.3211 49.7348C43.4294 49.6451 43.5546 49.5779 43.6892 49.537C43.8238 49.4962 43.9651 49.4826 44.1051 49.4969C44.245 49.5113 44.3807 49.5534 44.5041 49.6207C44.6276 49.6881 44.7365 49.7793 44.8243 49.8892C44.9122 49.9991 44.9773 50.1253 45.0158 50.2606C45.0544 50.3959 45.0656 50.5374 45.0488 50.6771C44.9691 51.4518 44.9121 52.2152 44.8722 52.9558C55.9977 46.1198 59.6208 36.2305 58.3447 27.0305C57.4671 21.1723 54.847 15.7138 50.8252 11.3648C46.8393 6.90298 41.5322 3.83129 35.6779 2.59768C25.7829 0.655137 14.0308 4.49466 3.44647 18.3659L8.00376 20.3426C8.15123 20.3957 8.28501 20.4809 8.39538 20.5921C8.50575 20.7034 8.58992 20.8378 8.64176 20.9857C8.6936 21.1336 8.71181 21.2912 8.69506 21.447C8.67831 21.6028 8.62702 21.7529 8.54494 21.8864C7.98905 22.8265 7.58168 23.8469 7.33725 24.9113C7.06431 26.0968 6.91163 27.3068 6.88152 28.523C6.84734 29.6623 6.88152 30.3915 6.88152 30.9782C6.95558 32.7783 6.97267 33.2284 5.45167 36.3444L2.80844 41.722C2.78444 41.7775 2.75586 41.8308 2.723 41.8815C2.36364 42.3832 2.15065 42.9749 2.10776 43.5905C2.09634 43.8219 2.1413 44.0526 2.23878 44.2627C2.31249 44.4207 2.42891 44.5548 2.57488 44.6501C2.75623 44.7638 2.96476 44.8267 3.17873 44.8324H3.26417L6.30047 45.009C6.39933 44.9745 6.50337 44.9571 6.60809 44.9577H6.71632L9.51336 45.197C9.66627 45.1856 9.81983 45.2075 9.96344 45.2612C10.107 45.3149 10.2373 45.3992 10.3452 45.5081C10.453 45.6171 10.536 45.7482 10.5883 45.8923C10.6405 46.0365 10.6609 46.1902 10.648 46.343C10.635 46.4958 10.5891 46.644 10.5133 46.7773C10.4375 46.9106 10.3337 47.0258 10.2091 47.1151C10.0844 47.2044 9.94183 47.2655 9.79123 47.2943C9.64063 47.3231 9.48557 47.3189 9.33677 47.2819H9.2798L7.70184 47.1908V47.4073C7.70184 48.7858 7.73602 50.1473 7.84995 51.5202C8.62184 51.829 9.4295 52.0395 10.2539 52.1468C10.941 52.2567 11.6453 52.1657 12.2819 51.8848ZM39.2554 19.5907C39.5964 19.5899 39.9352 19.6457 40.258 19.7559C40.925 19.9991 41.515 20.416 41.967 20.9636C42.4678 21.5475 42.7832 22.2674 42.8727 23.0314C42.9151 23.4116 42.8978 23.796 42.8215 24.1708C43.1609 24.4749 43.4528 24.8282 43.6874 25.2189C44.0264 25.7905 44.1981 26.4458 44.183 27.1102C44.1718 27.8101 43.9428 28.4891 43.5279 29.0528V29.0812C43.2061 29.4872 42.8214 29.8392 42.3885 30.1237C42.437 31.0559 42.1789 31.9783 41.6537 32.7499C41.1607 33.5059 40.3886 34.0363 39.506 34.2253C39.2639 35.0407 38.7225 35.7345 37.9904 36.1676C37.2583 36.6007 36.3896 36.7412 35.5583 36.5609C35.1928 36.4601 34.8521 36.2845 34.558 36.0452C34.2638 35.806 34.0225 35.5083 33.8493 35.1709C33.6448 35.5345 33.3653 35.8506 33.0294 36.098C32.6936 36.3455 32.3089 36.5188 31.9011 36.6065C31.4655 36.689 31.0172 36.6757 30.5873 36.5675C30.1574 36.4593 29.7562 36.2587 29.4116 35.9798C28.8435 35.5612 28.4402 34.9564 28.2723 34.2709C27.9852 34.2575 27.7014 34.2038 27.4292 34.1114C26.7661 33.8777 26.1765 33.4728 25.7202 32.9379C25.2247 32.3746 24.9023 31.6803 24.7917 30.9383C24.7342 30.5251 24.7476 30.1051 24.8316 29.6965C24.5269 29.4214 24.2623 29.105 24.0454 28.7565C23.6749 28.1847 23.4771 27.5182 23.4758 26.8368C23.4864 26.1077 23.7299 25.401 24.1708 24.8202C24.4759 24.4104 24.8453 24.0526 25.2645 23.7606V23.3561C25.2931 22.433 25.6232 21.5446 26.2044 20.8268C26.71 20.1812 27.4363 19.745 28.2438 19.6021C28.272 19.4845 28.3062 19.3686 28.3464 19.2546C28.6298 18.5698 29.1437 18.0056 29.799 17.6595C30.4318 17.2857 31.1794 17.1561 31.9011 17.2949C32.2858 17.3792 32.6495 17.5401 32.9706 17.7682C33.2916 17.9963 33.5634 18.2867 33.7695 18.6223C33.9745 18.2857 34.2458 17.9944 34.5671 17.7662C34.8883 17.5379 35.2527 17.3776 35.638 17.2949C36.3003 17.1623 36.9879 17.2608 37.5863 17.5741C38.1725 17.8674 38.6554 18.3324 38.9706 18.9071C39.088 19.1229 39.178 19.3525 39.2383 19.5907H39.2554ZM34.5728 20.0578V33.16C34.6364 33.2431 34.6776 33.3412 34.6924 33.4449C34.8804 34.5842 35.3646 35.114 35.9115 35.2621C36.1803 35.3187 36.4583 35.316 36.7259 35.254C36.9936 35.192 37.2444 35.0723 37.461 34.9032C37.6814 34.7618 37.8665 34.5717 38.0018 34.3475C38.1371 34.1233 38.2191 33.871 38.2414 33.6101C38.2414 33.0404 37.8255 32.391 36.6976 31.8156C36.6191 31.7752 36.5492 31.7197 36.4921 31.6524C36.435 31.585 36.3917 31.507 36.3648 31.4229C36.3378 31.3388 36.3276 31.2502 36.3349 31.1622C36.3422 31.0741 36.3667 30.9884 36.4071 30.9099C36.4475 30.8313 36.503 30.7615 36.5703 30.7044C36.6377 30.6473 36.7157 30.604 36.7998 30.577C36.8839 30.55 36.9725 30.5399 37.0605 30.5471C37.1486 30.5544 37.2343 30.5789 37.3128 30.6193C38.5661 31.263 39.2326 32.0492 39.4719 32.8467C39.9132 32.685 40.2908 32.3853 40.5485 31.9922C40.9565 31.3767 41.1229 30.6322 41.0156 29.9016V29.856C40.9985 29.7253 41.0201 29.5924 41.0778 29.4739C41.1355 29.3554 41.2268 29.2565 41.3403 29.1895C41.7605 28.9545 42.1303 28.6389 42.4284 28.2609C42.6878 27.9207 42.8369 27.5092 42.8557 27.0817C42.861 26.6677 42.7483 26.2607 42.5309 25.9082C42.3152 25.5486 42.0306 25.235 41.6935 24.9854C41.5715 24.9024 41.4798 24.7818 41.4325 24.642C41.3852 24.5021 41.3849 24.3507 41.4315 24.2106C41.5585 23.8826 41.611 23.5304 41.5853 23.1796C41.5299 22.6839 41.332 22.215 41.0156 21.8295C40.7144 21.4661 40.3209 21.1906 39.8763 21.0319C39.6804 20.9642 39.4741 20.9315 39.2668 20.9351C39.1467 21.355 38.9368 21.7437 38.6515 22.0744C38.5932 22.1436 38.5218 22.2006 38.4414 22.2422C38.361 22.2838 38.2732 22.3092 38.183 22.3169C38.0928 22.3245 38.002 22.3144 37.9157 22.2869C37.8295 22.2595 37.7495 22.2154 37.6803 22.157C37.6111 22.0987 37.5541 22.0272 37.5124 21.9469C37.4708 21.8665 37.4455 21.7787 37.4378 21.6885C37.4301 21.5983 37.4403 21.5075 37.4677 21.4212C37.4952 21.3349 37.5393 21.2549 37.5977 21.1857C37.8037 20.9713 37.937 20.6975 37.979 20.4031C38.0209 20.1087 37.9692 19.8085 37.8312 19.5451C37.6329 19.2183 37.3412 18.9584 36.9938 18.7989C36.6664 18.6286 36.2915 18.5725 35.9286 18.6393C35.5954 18.7403 35.2948 18.9271 35.0568 19.1811C34.8188 19.4351 34.6518 19.7473 34.5728 20.0863V20.0578ZM37.7458 24.3872C37.6182 24.2761 37.5368 24.1212 37.5176 23.9531C37.4984 23.7849 37.5428 23.6157 37.642 23.4786C37.7413 23.3415 37.8882 23.2465 38.0539 23.2123C38.2196 23.178 38.3922 23.207 38.5376 23.2935C38.6572 23.3846 38.7826 23.4815 38.9079 23.5954C39.7249 24.3285 40.227 25.3491 40.3093 26.4437C40.3878 27.5183 40.083 28.586 39.4491 29.4572L39.4149 29.4971C39.3181 29.6224 39.2269 29.7364 39.1358 29.8389C39.0781 29.913 39.0055 29.9742 38.9227 30.0185C38.8399 30.0628 38.7487 30.0893 38.655 30.0963C38.5614 30.1032 38.4673 30.0905 38.3789 30.0588C38.2905 30.0272 38.2096 29.9773 38.1417 29.9125C38.0737 29.8477 38.02 29.7694 37.9841 29.6826C37.9483 29.5958 37.931 29.5025 37.9334 29.4086C37.9358 29.3147 37.9579 29.2224 37.9982 29.1375C38.0385 29.0527 38.0961 28.9772 38.1673 28.916L38.3895 28.6426C38.8366 28.0328 39.0508 27.2831 38.9933 26.5292C38.934 25.7848 38.5915 25.0916 38.0363 24.5923C37.953 24.5189 37.8655 24.4504 37.7743 24.3872H37.7458ZM33.2284 20.7243V20.6901C32.9264 19.4768 32.3454 18.9185 31.7416 18.7932C31.3371 18.722 30.9205 18.7988 30.5681 19.0096C30.2076 19.214 29.9282 19.5357 29.7762 19.9211C29.6777 20.2295 29.6797 20.5613 29.7821 20.8686C29.8845 21.1758 30.082 21.4424 30.3459 21.6301C30.4655 21.7535 30.5333 21.9181 30.5353 22.09C30.5373 22.2619 30.4734 22.428 30.3566 22.5543C30.2399 22.6805 30.0793 22.7571 29.9077 22.7686C29.7362 22.78 29.5668 22.7252 29.4344 22.6156C28.9953 22.229 28.6653 21.734 28.4774 21.18C28.0588 21.3046 27.6901 21.5577 27.4235 21.9035C27.0332 22.3901 26.8096 22.9892 26.7855 23.6125C26.7716 23.7888 26.7716 23.966 26.7855 24.1423C26.8112 24.2773 26.7956 24.4169 26.7407 24.5429C26.6858 24.6689 26.5942 24.7755 26.4779 24.8487C26.0657 25.0928 25.7025 25.4116 25.4069 25.7886C25.1339 26.1462 24.9804 26.5807 24.9683 27.0305C24.9731 27.4568 25.0974 27.8733 25.3272 28.2324C25.5328 28.5594 25.7974 28.8453 26.1076 29.0755C26.2275 29.159 26.3172 29.279 26.3634 29.4175C26.4096 29.5561 26.4098 29.7059 26.3639 29.8446C26.2365 30.1336 26.1706 30.4459 26.1703 30.7617C26.245 31.2379 26.4546 31.6827 26.7741 32.0435C27.0778 32.3989 27.4712 32.6665 27.9134 32.8182C28.0688 32.8684 28.2293 32.9009 28.3919 32.9151C28.5906 32.3987 28.8919 31.928 29.2777 31.5314C29.6635 31.1349 30.1257 30.8207 30.6364 30.6079C30.7154 30.5624 30.8029 30.5335 30.8934 30.5228C30.984 30.5122 31.0758 30.52 31.1632 30.546C31.2506 30.5719 31.3318 30.6154 31.4019 30.6737C31.472 30.732 31.5295 30.804 31.5709 30.8852C31.6123 30.9665 31.6367 31.0553 31.6427 31.1463C31.6487 31.2373 31.6361 31.3285 31.6057 31.4145C31.5753 31.5005 31.5277 31.5793 31.4659 31.6463C31.404 31.7133 31.3292 31.7671 31.2459 31.8042C30.0383 32.4138 29.6224 33.1087 29.6224 33.7069C29.6333 33.9468 29.6984 34.1812 29.8129 34.3923C29.9273 34.6034 30.0881 34.7859 30.2832 34.926C30.4745 35.084 30.698 35.1985 30.938 35.2615C31.1781 35.3244 31.4289 35.3343 31.6732 35.2906C32.277 35.1652 32.8638 34.607 33.16 33.3822C33.1805 33.3089 33.2133 33.2395 33.2569 33.1771V20.7243H33.2284ZM28.5287 23.7264C28.5899 23.6577 28.6646 23.6023 28.7481 23.5636C28.8316 23.5249 28.9222 23.5038 29.0142 23.5016C29.1062 23.4993 29.1977 23.516 29.2831 23.5506C29.3684 23.5852 29.4457 23.6369 29.5102 23.7026C29.5746 23.7682 29.625 23.8464 29.658 23.9324C29.691 24.0183 29.7061 24.1101 29.7022 24.202C29.6983 24.294 29.6755 24.3842 29.6354 24.467C29.5952 24.5498 29.5384 24.6235 29.4686 24.6835C28.9379 25.2034 28.6261 25.9065 28.597 26.6488C28.5707 27.4207 28.8258 28.1758 29.3148 28.7736C29.4274 28.9126 29.4801 29.0906 29.4614 29.2685C29.4427 29.4464 29.3541 29.6096 29.2151 29.7221C29.0761 29.8347 28.8981 29.8874 28.7202 29.8687C28.5423 29.85 28.3792 29.7614 28.2666 29.6224C27.5749 28.7719 27.2164 27.6987 27.2583 26.6032C27.3015 25.5262 27.7562 24.5067 28.5287 23.7549V23.7264ZM18.7988 16.1841L18.6906 16.3436C18.5596 16.5316 18.4286 16.7253 18.3146 16.9133C18.2007 17.1013 18.0697 17.3177 17.95 17.5342C17.0638 19.1184 16.4169 20.8249 16.0303 22.5985C15.6435 24.3651 15.5282 26.1804 15.6885 27.9818C15.767 28.8762 15.9117 29.7635 16.1214 30.6364C16.3351 31.5054 16.615 32.3567 16.9588 33.1828C17.2995 34.0064 17.7033 34.8025 18.1665 35.564C18.6337 36.3292 19.1573 37.0585 19.7331 37.7458C19.9496 38.0021 20.1717 38.2528 20.3882 38.4864C20.6047 38.7199 20.8211 38.9478 21.0604 39.1756C21.2997 39.4035 21.5332 39.6371 21.7668 39.8421C22.0003 40.0472 22.2396 40.2523 22.4902 40.4517C23.6507 41.3856 24.9186 42.1774 26.2671 42.8101C26.9354 43.12 27.6222 43.3883 28.3236 43.6133C29.016 43.8365 29.7219 44.0153 30.437 44.1488H30.5111V41.8018H30.4598C29.8815 41.6702 29.311 41.5066 28.7508 41.3119C28.1857 41.1178 27.6323 40.8915 27.0931 40.634C26.544 40.3702 26.0114 40.0734 25.4981 39.7453C24.9771 39.4147 24.475 39.0552 23.9942 38.6686C23.7663 38.4864 23.5441 38.2984 23.339 38.099C23.134 37.8996 22.9175 37.7173 22.7181 37.5293C22.5187 37.3413 22.3137 37.1249 22.1485 36.9198C21.9833 36.7147 21.7668 36.4982 21.5788 36.2875C20.5779 35.1071 19.7686 33.7769 19.1805 32.3454C18.8849 31.6276 18.643 30.8888 18.457 30.1351C18.083 28.612 17.9465 27.0401 18.0526 25.4753C18.098 24.6874 18.2066 23.9045 18.3773 23.134C18.5434 22.3585 18.7681 21.5968 19.0495 20.8553C19.3299 20.1174 19.6651 19.4014 20.0521 18.7134C20.1717 18.4969 20.2857 18.3032 20.3939 18.1437L20.7471 17.614C20.7833 17.5622 20.8309 17.5194 20.8862 17.4888C20.9415 17.4582 21.003 17.4406 21.0661 17.4374C21.1739 17.4343 21.2786 17.4738 21.3575 17.5474C21.4365 17.6209 21.4832 17.7226 21.4876 17.8304C21.5275 18.8501 21.5275 19.9496 21.6016 20.9579C21.6073 21.1118 21.6441 21.2629 21.7098 21.4022C21.7678 21.5299 21.849 21.6458 21.9491 21.744C22.0596 21.8463 22.1893 21.9257 22.3307 21.9776C22.4635 22.028 22.6046 22.0531 22.7466 22.0516H22.7865C23.0759 22.0306 23.3484 21.9074 23.5555 21.7041C23.761 21.4789 23.8712 21.1829 23.8631 20.8781L23.7435 17.3405L23.6068 13.8086C23.5997 13.6555 23.5649 13.505 23.5042 13.3643C23.4412 13.2364 23.3586 13.1191 23.2593 13.0168C23.0392 12.8104 22.7462 12.6998 22.4447 12.7092C20.5021 12.7832 17.5 13.3985 15.4663 13.6833C15.3154 13.7036 15.1702 13.754 15.0391 13.8314C14.9051 13.9068 14.7886 14.0097 14.6973 14.1333C14.6007 14.2532 14.5325 14.3935 14.4979 14.5435C14.4569 14.6898 14.4472 14.8432 14.4694 14.9935C14.491 15.1459 14.5413 15.2928 14.6175 15.4265C14.7713 15.7021 15.0269 15.9066 15.3296 15.9961C15.4783 16.0247 15.631 16.0247 15.7796 15.9961L18.4343 15.6201C18.5344 15.606 18.6363 15.6304 18.7191 15.6885C18.7642 15.7183 18.8029 15.7568 18.8328 15.8018C18.8628 15.8468 18.8834 15.8974 18.8935 15.9505C18.9036 16.0036 18.9029 16.0582 18.8916 16.111C18.8802 16.1639 18.8584 16.2139 18.8273 16.2582L18.7988 16.1841ZM38.5319 43.7557C39.1648 43.5685 39.7867 43.346 40.3947 43.0892C41.0068 42.8302 41.604 42.5374 42.1834 42.2119C42.7709 41.8821 43.3413 41.5228 43.8924 41.1353L43.9551 41.0954L42.2689 39.4263L42.229 39.4548C41.7904 39.751 41.3517 40.0244 40.9017 40.2694C40.4517 40.5144 39.9903 40.7365 39.5174 40.9416C39.0446 41.1467 38.5547 41.3176 38.0705 41.4657C37.5863 41.6138 37.1078 41.7391 36.6179 41.8417H36.5495V44.2058H36.6236C37.2692 44.0901 37.9081 43.9399 38.5376 43.7557H38.5319ZM49.3555 35.0969C49.6748 34.5238 49.9638 33.9343 50.2214 33.3309C50.4773 32.7206 50.6998 32.0969 50.8879 31.4624C51.0754 30.8261 51.2256 30.1794 51.3379 29.5256V29.4515H48.9909V29.5028C48.8884 30.0041 48.763 30.4997 48.6092 31.001C48.461 31.4906 48.286 31.9718 48.0851 32.4422C47.8814 32.9189 47.6533 33.3848 47.4015 33.8379C47.1552 34.2868 46.8852 34.7222 46.5926 35.1424V35.188L48.256 36.8571L48.3016 36.7945C48.6934 36.2569 49.0548 35.6977 49.384 35.1197L49.3555 35.0969ZM51.1385 22.5643C51.0816 22.308 51.0132 22.0516 50.9448 21.8067C50.8765 21.5617 50.8024 21.3168 50.717 21.0547C50.6315 20.7927 50.5461 20.5363 50.4606 20.3085C50.3239 19.9439 50.1701 19.5679 49.9992 19.1691C49.8283 18.7704 49.6688 18.4457 49.4808 18.0754C49.2928 17.7051 49.0991 17.3576 48.9112 17.0329C48.7232 16.7082 48.5067 16.3721 48.2845 16.036L48.2389 15.9733L46.5528 17.6595V17.6994C46.7123 17.9558 46.8718 18.2178 47.0256 18.4855C47.1737 18.7533 47.3275 19.0552 47.4699 19.3286C47.6123 19.6021 47.7433 19.8983 47.8687 20.2002C47.994 20.5021 48.125 20.8098 48.2333 21.1003C48.3415 21.3908 48.4839 21.8238 48.6035 22.2054C48.7232 22.5871 48.8086 22.9745 48.8941 23.3789H51.2582V23.3049C51.2126 23.0599 51.1613 22.8093 51.0986 22.5415L51.1385 22.5643ZM42.6791 10.7438C42.2461 10.4932 41.7847 10.2596 41.3119 10.0432C40.839 9.82669 40.3776 9.6387 39.8934 9.4735C39.4092 9.30829 38.9079 9.15449 38.4009 9.03486L37.7173 8.88105C37.0432 8.75383 36.3623 8.66633 35.6779 8.619C35.4444 8.619 35.2108 8.619 34.9943 8.619H34.2595L33.5531 8.65318L32.8296 8.71585C32.6779 8.73364 32.531 8.78003 32.3967 8.85256C32.2626 8.92517 32.1444 9.02397 32.0492 9.14309C31.9549 9.25974 31.8834 9.39308 31.8384 9.53616C31.7574 9.81369 31.7797 10.1112 31.9011 10.3736C31.9756 10.5096 32.0763 10.6297 32.1973 10.7268C32.3127 10.8183 32.444 10.8878 32.5847 10.9318C32.7233 10.9721 32.8682 10.9856 33.0119 10.9717L33.6613 10.9147C33.855 10.9147 34.0601 10.9147 34.2709 10.8863H34.8747C35.2905 10.8863 35.6494 10.9261 36.0596 10.9603C36.4697 10.9945 36.8286 11.0685 37.1989 11.1369L37.7686 11.2622C38.1787 11.3648 38.5775 11.4787 38.9649 11.6097C39.3522 11.7407 39.7453 11.8946 40.1042 12.0541C40.4631 12.2136 40.8447 12.4016 41.2093 12.6237C41.5739 12.8459 41.9043 13.0282 42.2347 13.2504L42.3031 13.2959L43.9722 11.6211L43.9095 11.5812C43.488 11.2793 43.055 11.0116 42.6107 10.7381L42.6791 10.7438Z" fill="#2F618A"/>
</g>
<defs>
<clipPath id="clip0_8_47">
<rect width="60.7145" height="70" fill="white"/>
</clipPath>
</defs>
</svg>
