<svg width="70" height="70" viewBox="0 0 70 70" fill="none" xmlns="http://www.w3.org/2000/svg">
<g clip-path="url(#clip0_8_44)">
<path d="M48.4497 41.1637C49.9878 41.8416 51.8221 42.1493 53.8444 42.1834C56.237 42.2233 58.903 41.8929 61.6659 41.3574C62.3381 41.2264 62.9875 41.6707 63.1128 42.3429C63.2438 43.0151 62.7995 43.6645 62.1273 43.7899C59.2277 44.3538 56.4022 44.7013 53.8045 44.6558C51.4233 44.6159 49.2358 44.2399 47.3617 43.3911C46.1141 44.707 45.4305 46.4616 45.328 48.2503C45.2767 49.196 45.3849 50.1473 45.6641 51.0474C45.9375 51.936 46.3761 52.7791 46.98 53.5026C48.2048 54.978 50.1473 56.0262 52.8418 56.18H52.876C54.5622 56.3224 56.0661 56.123 57.3991 55.616C58.7321 55.109 59.9227 54.2887 60.988 53.195C64.3376 49.7371 66.2744 44.1886 66.9808 38.3211C67.784 31.6732 67.0093 24.6777 64.93 19.8185C63.8021 17.181 62.2526 14.8055 60.2531 12.9541C58.4644 11.2964 56.3167 10.0545 53.7817 9.4165C51.9474 8.95508 50.2555 9.00634 48.7915 9.5931C47.3674 10.1628 46.1141 11.2451 45.1058 12.8686C44.4678 13.8883 44.0007 15.1074 43.7158 16.4062C43.2772 18.4001 43.2829 20.5534 43.7842 22.4447C44.2627 24.2334 45.1856 25.7772 46.6154 26.6658C47.1224 26.9849 47.6978 27.2184 48.3472 27.3608C49.7941 27.6798 51.3493 27.2583 52.6766 26.2614C54.021 25.2531 55.1318 23.658 55.6901 21.63C55.8724 20.9749 56.5503 20.5876 57.2111 20.7699C57.8662 20.9521 58.2536 21.63 58.0713 22.2908C57.3592 24.8657 55.918 26.9165 54.1577 28.2381C52.5854 29.423 50.7568 30.0325 48.9453 29.9357C48.37 30.8756 48.0225 31.8441 47.9142 32.7327C47.806 33.6556 47.9598 34.4588 48.3984 34.9943C48.8713 35.564 49.7087 35.6779 50.6315 35.5583C52.312 35.3361 54.1748 34.3677 55.2287 33.6385C55.7926 33.2511 56.5617 33.3936 56.9491 33.9518C57.3364 34.5158 57.194 35.2848 56.6357 35.6722C55.3597 36.5495 53.0754 37.723 50.9562 38.0078C50.3695 38.0876 49.7941 38.099 49.2415 38.0306C49.0365 38.5319 48.8713 39.0389 48.7402 39.5345C48.5921 40.07 48.4953 40.6169 48.4497 41.1637ZM22.8035 43.2943C23.0086 43.8013 23.1852 44.314 23.3333 44.8267C25.3158 41.5967 26.814 39.3009 28.8306 38.5832C28.8363 38.2129 28.8363 37.8483 28.842 37.478C28.2267 37.4324 26.814 38.3382 25.6405 39.0902C25.1847 39.3807 24.7518 39.6598 24.353 39.882C24.2904 40.9985 23.9315 42.0068 23.265 42.8101C23.1226 42.9923 22.9688 43.1519 22.8035 43.2943ZM24.279 48.0225C25.8911 49.7713 26.7798 52.05 26.9108 54.3628C26.9792 55.5933 26.8368 56.8408 26.4722 58.02C26.1019 59.2106 25.5094 60.3385 24.6891 61.3298C23.0542 63.2951 20.5363 64.6908 17.1012 64.8958C15.0448 65.0724 13.1877 64.8161 11.5015 64.1781C9.81527 63.54 8.32275 62.5203 7.01253 61.1645C3.24707 57.2852 1.09375 51.2183 0.324708 44.8608C-0.529784 37.8141 0.319011 30.3402 2.55778 25.0993C3.81673 22.1598 5.56559 19.4881 7.82715 17.3918C9.91211 15.4606 12.4243 14.008 15.3809 13.2617C17.7165 12.675 19.9154 12.7604 21.8807 13.5465C23.8062 14.3156 25.4639 15.7283 26.757 17.8076C27.395 18.8273 27.8906 19.9894 28.2381 21.2256C27.8621 16.5771 27.2925 11.8945 26.5234 7.18343C26.4779 6.8929 26.4095 6.58528 26.3468 6.27767C25.9196 4.20979 25.5151 2.27295 27.9419 0.71777C28.5685 0.319007 29.2806 0.0797492 29.9984 0.022783C30.6991 -0.0398797 31.4111 0.0740526 32.0605 0.353187C32.7327 0.649411 33.3195 1.12223 33.7467 1.78873C34.0942 2.32991 34.3278 2.99072 34.4019 3.76546C34.869 6.5625 35.262 9.38232 35.5924 12.2363C35.6893 10.9033 35.7918 9.576 35.8944 8.24869C35.9342 7.78157 35.9456 7.37142 35.9627 6.94987C36.0653 3.89078 36.1849 0.3304 40.3149 0.0740526C40.6169 0.0569627 40.9245 0.0683559 41.2321 0.119625C42.286 0.290524 43.3057 0.871579 44.0861 2.02799C44.764 3.04199 45.2596 4.51171 45.3849 6.56819C45.4248 7.2347 45.4305 7.97526 45.3906 8.78987C46.1597 8.15185 46.9914 7.66194 47.8857 7.30306C49.8511 6.51692 52.05 6.43147 54.3856 7.01823C57.3421 7.76448 59.8543 9.21142 61.9393 11.1483C64.2009 13.2503 65.9497 15.9163 67.2087 18.8558C69.4474 24.0967 70.2962 31.5649 69.4417 38.6173C68.6727 44.9748 66.5194 51.0417 62.7596 54.9268C61.4437 56.2825 59.9569 57.3022 58.2707 57.9403C56.5845 58.5783 54.7274 58.8289 52.6709 58.658C49.2358 58.453 46.7179 57.063 45.083 55.092C44.2627 54.1007 43.6702 52.9728 43.3 51.7822C42.9354 50.5973 42.7873 49.3555 42.8613 48.125C43.0037 45.5957 44.0519 43.1063 45.966 41.3118C45.9717 41.1751 45.9831 41.0384 45.9945 40.9017C44.8665 40.6283 44.2 40.5314 42.7588 40.8504C42.6847 40.8675 42.605 40.8789 42.5309 40.8789L40.4004 64.8559C40.4004 64.873 40.4004 64.8901 40.3947 64.9072C40.3662 65.2205 40.2922 65.6592 40.201 66.1434C40.1156 66.6048 40.013 67.1118 39.9162 67.5789C39.7681 68.3024 39.3123 68.9518 38.7256 69.3848C38.3211 69.681 37.8369 69.8918 37.3299 69.9601C36.7773 70.0342 36.2077 69.9487 35.6779 69.6468C35.1994 69.3791 34.7778 68.9461 34.4645 68.3081C33.9404 68.9917 33.291 69.4588 32.596 69.7266C31.9466 69.9829 31.263 70.057 30.6079 69.9772C29.9471 69.8975 29.3148 69.6639 28.7565 69.2879C27.4634 68.4163 26.6032 66.8156 26.9108 64.7078V64.6908C27.9191 57.0573 28.5799 49.3213 28.785 41.4827C27.7254 42.417 26.569 44.3026 25.0765 46.7407C24.8088 47.1623 24.5353 47.6066 24.279 48.0225ZM28.6654 27.9419C28.5913 28.409 28.4945 28.8704 28.3748 29.3205C28.0615 30.494 27.5887 31.5934 26.9507 32.5618C27.0418 32.5675 27.1387 32.5732 27.2355 32.5732C27.7311 32.5789 28.2552 32.5163 28.8078 32.4251C28.7793 30.9326 28.7337 29.4401 28.6654 27.9419ZM24.991 34.6582C24.8201 34.7835 24.6436 34.9032 24.467 35.0171C24.1138 35.2393 23.7378 35.4329 23.339 35.5981C23.6125 36.1336 23.8346 36.6748 24.0055 37.216C24.1081 37.1533 24.2106 37.085 24.3132 37.0166C25.7373 36.1051 27.3779 35.0513 28.8477 35.0228V34.9202C28.3008 35 27.7596 35.0456 27.2355 35.0456C26.4437 35.0342 25.6917 34.9202 24.991 34.6582ZM20.8268 36.1792C19.0153 36.276 17.1867 35.6665 15.6144 34.4816C13.8542 33.16 12.4129 31.1092 11.7008 28.5343C11.5186 27.8792 11.9059 27.1956 12.561 27.0133C13.2161 26.831 13.8997 27.2184 14.082 27.8735C14.6403 29.9015 15.7511 31.4909 17.0955 32.5049C18.4229 33.5018 19.9723 33.9233 21.425 33.6043C22.0744 33.4619 22.6497 33.2227 23.1567 32.9093C24.5866 32.0207 25.5094 30.4769 25.988 28.6881C26.4893 26.7969 26.4893 24.6492 26.0563 22.6497C25.7715 21.3509 25.3044 20.1318 24.6663 19.1121C23.658 17.4943 22.4048 16.4062 20.9806 15.8366C19.5166 15.2498 17.8247 15.1986 15.9904 15.66C13.4611 16.298 11.3078 17.5399 9.51904 19.1976C7.51953 21.0547 5.97005 23.4302 4.84212 26.062C2.76286 30.9212 1.98812 37.9167 2.79134 44.5646C3.50342 50.4321 5.43457 55.9806 8.78418 59.4385C9.84945 60.5379 11.04 61.3582 12.373 61.8595C13.7118 62.3665 15.21 62.5659 16.8962 62.4235H16.9303C19.6248 62.2697 21.5617 61.2215 22.7922 59.7461C23.396 59.0169 23.8346 58.1795 24.1081 57.2908C24.3872 56.3965 24.4954 55.4451 24.4385 54.4995C24.3359 52.7108 23.6523 50.9562 22.4048 49.6403C20.5306 50.4891 18.3431 50.8651 15.9619 50.9049C13.3643 50.9505 10.5387 50.603 7.63916 50.0391C6.96696 49.908 6.52832 49.2643 6.65365 48.5921C6.78467 47.9199 7.42839 47.4813 8.10059 47.6066C10.8634 48.1421 13.5295 48.4782 15.922 48.4326C17.9443 48.3984 19.7786 48.0908 21.3167 47.4129C21.2712 46.866 21.1743 46.3249 21.0319 45.778C20.9009 45.2767 20.73 44.7754 20.5306 44.2741C19.978 44.3424 19.4027 44.3311 18.8159 44.2513C16.6911 43.9665 14.4067 42.7987 13.1364 41.9157C12.5724 41.5283 12.4357 40.7593 12.8231 40.1953C13.2104 39.6313 13.9795 39.4946 14.5435 39.882C15.5973 40.6112 17.4601 41.5796 19.1406 41.8018C20.0635 41.9271 20.9009 41.8131 21.3737 41.2378C21.8123 40.708 21.9718 39.8991 21.8579 38.9762C21.7497 38.0933 21.4022 37.1248 20.8268 36.1792ZM31.9352 3.99332C31.9067 3.62874 31.8099 3.33821 31.6675 3.12174C31.5194 2.88818 31.3086 2.71728 31.075 2.61474C30.8187 2.50081 30.5168 2.46093 30.2035 2.48372C29.8787 2.5122 29.5597 2.61474 29.2806 2.79134C28.2837 3.42936 28.5173 4.56298 28.7679 5.76497C28.8363 6.09537 28.9046 6.42578 28.9616 6.77897C30.5965 16.7651 31.3143 26.6317 31.3086 36.3501C31.3029 46.0628 30.5851 55.616 29.3433 64.9984C29.3433 65.0212 29.3376 65.0382 29.3319 65.061C29.1838 66.0921 29.554 66.8441 30.118 67.2257C30.3459 67.3796 30.6079 67.4764 30.8757 67.5106C31.1434 67.5448 31.4168 67.5106 31.6732 67.4137C32.3966 67.1346 33.0233 66.2972 33.1828 64.7477C33.5986 59.7176 33.929 54.7274 34.1455 49.7884C34.1683 44.5019 34.2651 39.3522 34.4246 34.2993C34.4246 34.0885 34.4189 33.8778 34.4189 33.667C34.2879 23.5498 33.536 13.6662 31.9409 4.10156C31.9466 4.06168 31.9409 4.0275 31.9352 3.99332ZM36.9084 34.3506C36.9596 39.506 36.8571 44.7127 36.6292 49.9593C36.6178 52.3975 36.6235 54.8698 36.6463 57.3649C36.652 58.4074 36.5666 59.5695 36.4754 60.7772C36.2988 63.1584 36.1051 65.7446 36.6007 67.0378C36.6976 67.2884 36.7944 67.4251 36.8913 67.4764C36.9198 67.4935 36.9539 67.4935 36.9995 67.4878C37.085 67.4764 37.1761 67.4308 37.2616 67.3682C37.3869 67.277 37.4723 67.1688 37.4951 67.0605C37.5863 66.6105 37.6888 66.1206 37.7686 65.6706C37.8483 65.2433 37.911 64.873 37.9338 64.6452L37.9395 64.6053L41.5112 24.467C41.5283 24.279 41.5853 24.1024 41.6764 23.9486C41.5739 23.6523 41.4827 23.3561 41.403 23.0485C40.7992 20.7755 40.7935 18.2121 41.3062 15.8594C41.5853 14.5947 42.0125 13.3813 42.5822 12.299C42.5594 12.168 42.5537 12.0255 42.5765 11.8831C42.9183 9.76969 43.0094 8.06071 42.924 6.69352C42.8271 5.10986 42.4911 4.05029 42.041 3.37809C41.6878 2.854 41.2663 2.59765 40.8504 2.53499C40.7308 2.5179 40.6055 2.5122 40.4744 2.5179C38.5832 2.63753 38.5034 4.98453 38.4351 7.00114C38.418 7.52522 38.4009 8.03792 38.3667 8.41959C37.7401 16.2638 37.2729 24.1422 36.9824 32.1973C36.9539 32.9264 36.9312 33.6385 36.9084 34.3506ZM43.7215 27.4577L43.2373 32.8979C44.0576 32.8125 44.6842 32.8752 45.4077 33.0233C45.4134 32.8296 45.4305 32.6359 45.4533 32.4365C45.5729 31.4339 45.9033 30.38 46.4388 29.3433C46.04 29.1781 45.6641 28.9844 45.3109 28.7622C44.7184 28.3919 44.1886 27.9533 43.7215 27.4577ZM46.9686 37.0451C46.8034 36.9027 46.6496 36.7432 46.5015 36.5666C46.2793 36.2988 46.0913 36.0083 45.9375 35.695C44.7868 35.4045 44.1488 35.2506 43.0151 35.4272L42.7588 38.3154C44.3538 38.0135 45.1799 38.1388 46.473 38.4578C46.6097 37.9793 46.7806 37.5065 46.9686 37.0451Z" fill="#2F618A"/>
</g>
<defs>
<clipPath id="clip0_8_44">
<rect width="69.7721" height="70" fill="white"/>
</clipPath>
</defs>
</svg>
